M48
; DRILL file {KiCad 9.0.3} date 2025-07-18T15:00:09+0530
; FORMAT={-:-/ absolute / metric / decimal}
; #@! TF.CreationDate,2025-07-18T15:00:09+05:30
; #@! TF.GenerationSoftware,Kicad,Pcbnew,9.0.3
; #@! TF.FileFunction,MixedPlating,1,2
FMAT,2
METRIC
; #@! TA.AperFunction,Plated,PTH,ViaDrill
T1C0.300
; #@! TA.AperFunction,Plated,PTH,ComponentDrill
T2C0.800
; #@! TA.AperFunction,Plated,PTH,ComponentDrill
T3C1.000
; #@! TA.AperFunction,Plated,PTH,ComponentDrill
T4C1.500
; #@! TA.AperFunction,NonPlated,NPTH,ComponentDrill
T5C1.700
; #@! TA.AperFunction,NonPlated,NPTH,ComponentDrill
T6C2.390
; #@! TA.AperFunction,NonPlated,NPTH,ComponentDrill
T7C3.050
; #@! TA.AperFunction,NonPlated,NPTH,ComponentDrill
T8C3.450
; #@! TA.AperFunction,NonPlated,NPTH,ComponentDrill
T9C4.000
%
G90
G05
T1
X41.834Y-46.596
X108.509Y-18.021
X237.096Y-129.94
X262.099Y-134.702
X322.326Y-47.091
T2
X20.402Y-51.121
X20.402Y-58.741
X20.402Y-70.171
X20.402Y-77.791
X20.402Y-90.173
X20.402Y-97.793
X20.402Y-109.223
X20.402Y-116.843
X20.402Y-128.273
X20.402Y-135.893
X39.453Y-51.121
X39.453Y-58.741
X44.215Y-128.273
X44.215Y-135.893
X48.977Y-70.171
X48.977Y-77.791
X53.74Y-90.173
X53.74Y-97.793
X58.502Y-51.121
X58.502Y-58.741
X63.265Y-109.223
X63.265Y-116.843
X68.028Y-70.171
X68.028Y-77.791
X68.028Y-128.273
X68.028Y-135.893
X72.79Y-90.173
X72.79Y-97.793
X77.552Y-51.121
X77.552Y-58.741
X82.315Y-109.223
X82.315Y-116.843
X87.078Y-70.171
X87.078Y-77.791
X91.84Y-90.173
X91.84Y-97.793
X91.84Y-128.273
X91.84Y-135.893
X96.602Y-51.121
X96.602Y-58.741
X101.365Y-109.223
X101.365Y-116.843
X106.127Y-70.171
X106.127Y-77.791
X110.89Y-90.173
X110.89Y-97.793
X115.652Y-51.121
X115.652Y-58.741
X120.415Y-109.223
X120.415Y-116.843
X125.177Y-70.171
X125.177Y-77.791
X129.94Y-90.173
X129.94Y-97.793
X134.702Y-51.121
X134.702Y-58.741
X134.702Y-128.273
X134.702Y-135.893
X139.465Y-109.223
X139.465Y-116.843
X144.227Y-70.171
X144.227Y-77.791
X148.99Y-90.173
X148.99Y-97.793
X153.752Y-51.121
X153.752Y-58.741
X158.515Y-109.223
X158.515Y-116.843
X163.278Y-70.171
X163.278Y-77.791
X168.04Y-90.173
X168.04Y-97.793
X168.04Y-128.273
X168.04Y-135.893
X172.802Y-51.121
X172.802Y-58.741
X177.565Y-109.223
X177.565Y-116.843
X182.327Y-70.171
X182.327Y-77.791
X187.09Y-90.173
X187.09Y-97.793
X191.852Y-51.121
X191.852Y-58.741
X196.615Y-109.223
X196.615Y-116.843
X201.377Y-70.171
X201.377Y-77.791
X206.14Y-90.173
X206.14Y-97.793
X210.903Y-51.121
X210.903Y-58.741
X210.903Y-128.273
X210.903Y-135.893
X215.665Y-109.223
X215.665Y-116.843
X220.427Y-70.171
X220.427Y-77.791
X225.19Y-90.173
X225.19Y-97.793
X229.952Y-51.121
X229.952Y-58.741
X234.715Y-109.223
X234.715Y-116.843
X239.477Y-70.171
X239.477Y-77.791
X244.24Y-90.173
X244.24Y-97.793
X249.002Y-51.121
X249.002Y-58.741
X253.765Y-109.223
X253.765Y-116.843
X258.527Y-71.123
X258.527Y-78.743
X263.29Y-90.173
X263.29Y-97.793
X268.053Y-128.273
X268.053Y-135.893
X270.434Y-51.121
X270.434Y-58.741
X277.577Y-71.123
X277.577Y-78.743
X287.102Y-109.223
X287.102Y-116.843
X287.102Y-128.273
X287.102Y-135.893
X306.152Y-51.121
X306.152Y-58.741
X306.152Y-71.123
X306.152Y-78.743
X306.152Y-90.173
X306.152Y-97.793
X306.152Y-109.223
X306.152Y-116.843
X306.152Y-128.273
X306.152Y-135.893
T3
X43.974Y-21.511
X43.974Y-39.291
X46.514Y-21.511
X46.514Y-39.291
X49.054Y-21.511
X49.054Y-39.291
X51.594Y-21.511
X51.594Y-39.291
X54.134Y-21.511
X54.134Y-39.291
X56.674Y-21.511
X56.674Y-39.291
X59.214Y-21.511
X59.214Y-39.291
X61.754Y-21.511
X61.754Y-39.291
X64.294Y-21.511
X64.294Y-39.291
X66.834Y-21.511
X66.834Y-39.291
X69.374Y-21.511
X69.374Y-39.291
X71.914Y-21.511
X71.914Y-39.291
X74.454Y-21.511
X74.454Y-39.291
X76.994Y-21.511
X76.994Y-39.291
X79.534Y-21.511
X79.534Y-39.291
X82.074Y-21.511
X82.074Y-39.291
X84.614Y-21.511
X84.614Y-39.291
X87.154Y-21.511
X87.154Y-39.291
X89.694Y-21.511
X89.694Y-39.291
X92.234Y-21.511
X92.234Y-39.291
X241.565Y-128.618
X241.565Y-131.118
X241.565Y-133.618
X256.065Y-128.618
X256.065Y-133.618
T4
X26.117Y-52.391
X28.499Y-128.591
X30.88Y-71.441
X32.468Y-49.851
X33.261Y-90.491
X34.849Y-126.051
X37.23Y-68.901
X38.024Y-109.541
X39.611Y-87.951
X44.374Y-107.001
X45.167Y-52.391
X51.517Y-49.851
X52.311Y-128.591
X54.692Y-71.441
X58.661Y-126.051
X59.455Y-90.491
X61.042Y-68.901
X64.218Y-52.391
X65.805Y-87.951
X68.98Y-109.541
X70.567Y-49.851
X73.742Y-71.441
X75.33Y-107.001
X76.124Y-128.591
X78.505Y-90.491
X80.093Y-68.901
X82.474Y-126.051
X83.267Y-52.391
X84.855Y-87.951
X88.03Y-109.541
X89.617Y-49.851
X92.792Y-71.441
X94.38Y-107.001
X97.555Y-90.491
X99.142Y-68.901
X102.317Y-52.391
X103.905Y-87.951
X107.08Y-109.541
X108.667Y-49.851
X109.461Y-128.591
X111.843Y-71.441
X113.43Y-107.001
X115.811Y-126.051
X116.605Y-90.491
X118.192Y-68.901
X121.367Y-52.391
X122.955Y-87.951
X126.13Y-109.541
X127.718Y-49.851
X130.892Y-71.441
X132.48Y-107.001
X135.655Y-90.491
X137.243Y-68.901
X140.417Y-52.391
X142.005Y-87.951
X145.18Y-109.541
X146.767Y-49.851
X147.561Y-128.591
X149.942Y-71.441
X151.53Y-107.001
X153.911Y-126.051
X154.705Y-90.491
X156.292Y-68.901
X159.468Y-52.391
X161.055Y-87.951
X164.23Y-109.541
X165.817Y-49.851
X168.992Y-71.441
X170.58Y-107.001
X173.755Y-90.491
X175.343Y-68.901
X178.517Y-52.391
X180.105Y-87.951
X183.28Y-109.541
X184.867Y-49.851
X185.661Y-128.591
X188.042Y-71.441
X189.63Y-107.001
X192.011Y-126.051
X192.805Y-90.491
X194.392Y-68.901
X197.567Y-52.391
X199.155Y-87.951
X202.33Y-109.541
X203.917Y-49.851
X207.093Y-71.441
X208.68Y-107.001
X211.855Y-90.491
X213.442Y-68.901
X216.617Y-52.391
X216.617Y-128.591
X218.205Y-87.951
X221.38Y-109.541
X222.968Y-49.851
X222.968Y-126.051
X226.142Y-71.441
X227.73Y-107.001
X230.905Y-90.491
X232.492Y-68.901
X235.667Y-52.391
X237.255Y-87.951
X240.43Y-109.541
X242.017Y-49.851
X245.192Y-71.441
X246.78Y-107.001
X249.955Y-90.491
X251.542Y-68.901
X254.718Y-52.391
X256.305Y-87.951
X261.067Y-49.851
X264.243Y-71.441
X266.624Y-109.541
X270.592Y-68.901
X272.974Y-107.001
X273.767Y-128.591
X280.118Y-126.051
X280.911Y-90.491
X283.286Y-52.391
X287.261Y-87.951
X288.055Y-71.441
X289.636Y-49.851
X292.817Y-109.541
X292.817Y-128.591
X294.405Y-68.901
X299.167Y-107.001
X299.167Y-126.051
X311.868Y-52.391
X311.868Y-71.441
X311.868Y-90.491
X311.868Y-109.541
X311.868Y-128.591
X318.217Y-49.851
X318.217Y-68.901
X318.217Y-87.951
X318.217Y-107.001
X318.217Y-126.051
T5
X24.848Y-54.931
X27.229Y-131.131
X29.61Y-73.981
X31.991Y-93.031
X35.008Y-54.931
X36.754Y-112.081
X37.389Y-131.131
X39.77Y-73.981
X42.151Y-93.031
X43.898Y-54.931
X46.914Y-112.081
X51.041Y-131.131
X53.422Y-73.981
X54.057Y-54.931
X58.185Y-93.031
X61.201Y-131.131
X62.947Y-54.931
X63.582Y-73.981
X67.71Y-112.081
X68.345Y-93.031
X72.472Y-73.981
X73.108Y-54.931
X74.854Y-131.131
X77.235Y-93.031
X77.87Y-112.081
X81.998Y-54.931
X82.632Y-73.981
X85.014Y-131.131
X86.76Y-112.081
X87.395Y-93.031
X91.522Y-73.981
X92.157Y-54.931
X96.285Y-93.031
X96.92Y-112.081
X101.047Y-54.931
X101.682Y-73.981
X105.81Y-112.081
X106.445Y-93.031
X108.191Y-131.131
X110.572Y-73.981
X111.207Y-54.931
X115.335Y-93.031
X115.97Y-112.081
X118.351Y-131.131
X120.097Y-54.931
X120.732Y-73.981
X124.86Y-112.081
X125.495Y-93.031
X129.623Y-73.981
X130.257Y-54.931
X134.385Y-93.031
X135.02Y-112.081
X139.147Y-54.931
X139.782Y-73.981
X143.91Y-112.081
X144.545Y-93.031
X146.291Y-131.131
X148.672Y-73.981
X149.308Y-54.931
X153.435Y-93.031
X154.07Y-112.081
X156.451Y-131.131
X158.197Y-54.931
X158.832Y-73.981
X162.96Y-112.081
X163.595Y-93.031
X167.722Y-73.981
X168.357Y-54.931
X172.485Y-93.031
X173.12Y-112.081
X177.248Y-54.931
X177.882Y-73.981
X182.01Y-112.081
X182.645Y-93.031
X184.391Y-131.131
X186.772Y-73.981
X187.407Y-54.931
X191.535Y-93.031
X192.17Y-112.081
X194.551Y-131.131
X196.297Y-54.931
X196.933Y-73.981
X201.06Y-112.081
X201.695Y-93.031
X205.822Y-73.981
X206.457Y-54.931
X210.585Y-93.031
X211.22Y-112.081
X215.347Y-54.931
X215.347Y-131.131
X215.982Y-73.981
X220.11Y-112.081
X220.745Y-93.031
X224.873Y-73.981
X225.507Y-54.931
X225.507Y-131.131
X229.635Y-93.031
X230.27Y-112.081
X234.397Y-54.931
X235.032Y-73.981
X239.16Y-112.081
X239.795Y-93.031
X243.922Y-73.981
X244.557Y-54.931
X248.685Y-93.031
X249.32Y-112.081
X253.447Y-54.931
X254.082Y-73.981
X258.845Y-93.031
X262.972Y-73.981
X263.608Y-54.931
X265.354Y-112.081
X272.498Y-131.131
X273.132Y-73.981
X275.514Y-112.081
X279.641Y-93.031
X282.016Y-54.931
X282.657Y-131.131
X286.785Y-73.981
X289.801Y-93.031
X291.548Y-112.081
X291.548Y-131.131
X292.176Y-54.931
X296.945Y-73.981
X301.707Y-112.081
X301.707Y-131.131
X310.597Y-54.931
X310.597Y-73.981
X310.597Y-93.031
X310.597Y-112.081
X310.597Y-131.131
X320.757Y-54.931
X320.757Y-73.981
X320.757Y-93.031
X320.757Y-112.081
X320.757Y-131.131
T6
X122.385Y-20.737
T7
X29.934Y-105.081
X53.734Y-105.081
X101.371Y-124.131
X125.171Y-124.131
X177.571Y-124.131
X201.371Y-124.131
X272.821Y-86.031
X275.196Y-47.931
X296.621Y-86.031
X298.996Y-47.931
T8
X130.895Y-36.737
X186.135Y-20.737
T9
X29.927Y-54.931
X29.934Y-120.321
X32.309Y-131.131
X34.69Y-73.981
X37.071Y-93.031
X41.834Y-112.081
X48.977Y-54.931
X53.734Y-120.321
X56.121Y-131.131
X58.502Y-73.981
X63.265Y-93.031
X68.028Y-54.931
X72.79Y-112.081
X77.552Y-73.981
X79.934Y-131.131
X82.315Y-93.031
X87.078Y-54.931
X91.84Y-112.081
X96.602Y-73.981
X101.365Y-93.031
X101.371Y-139.371
X106.127Y-54.931
X110.89Y-112.081
X113.271Y-131.131
X115.652Y-73.981
X120.415Y-93.031
X125.171Y-139.371
X125.177Y-54.931
X129.94Y-112.081
X134.702Y-73.981
X139.465Y-93.031
X144.227Y-54.931
X148.99Y-112.081
X151.371Y-131.131
X153.752Y-73.981
X158.515Y-93.031
X163.278Y-54.931
X168.04Y-112.081
X172.802Y-73.981
X177.565Y-93.031
X177.571Y-139.371
X182.327Y-54.931
X187.09Y-112.081
X189.471Y-131.131
X191.852Y-73.981
X196.615Y-93.031
X201.371Y-139.371
X201.377Y-54.931
X206.14Y-112.081
X210.903Y-73.981
X215.665Y-93.031
X220.427Y-54.931
X220.427Y-131.131
X225.19Y-112.081
X229.952Y-73.981
X234.715Y-93.031
X239.477Y-54.931
X244.24Y-112.081
X249.002Y-73.981
X253.765Y-93.031
X258.527Y-54.931
X268.053Y-73.981
X270.434Y-112.081
X272.821Y-101.271
X275.196Y-63.171
X277.577Y-131.131
X284.721Y-93.031
X287.096Y-54.931
X291.865Y-73.981
X296.621Y-101.271
X296.627Y-112.081
X296.627Y-131.131
X298.996Y-63.171
X315.678Y-54.931
X315.678Y-73.981
X315.678Y-93.031
X315.678Y-112.081
X315.678Y-131.131
T4
G00X248.415Y-125.518
M15
G01X249.715Y-125.518
M16
G05
G00X248.415Y-136.718
M15
G01X249.715Y-136.718
M16
G05
M30
