ISO-10303-21;
HEADER;
/* Generated by software containing ST-Developer
 * from STEP Tools, Inc. (www.steptools.com) 
 */
/* OPTION: using custom renumber hook */

FILE_DESCRIPTION(
/* description */ ('STEP AP242',
'CAx-IF Rec.Pracs.---Representation and Presentation of Product Manufa
cturing Information (PMI)---4.0---2014-10-13',
'CAx-IF Rec.Pracs.---3D Tessellated Geometry---0.4---2014-09-14','2;1'),

/* implementation_level */ '2;1');

FILE_NAME(
/* name */ '689ec8a827a3471c8a28c12c',
/* time_stamp */ '2025-08-15T05:42:01Z',
/* author */ (''),
/* organization */ (''),
/* preprocessor_version */ 'ST-DEVELOPER v20',
/* originating_system */ 'ONSHAPE BY PTC INC, 1.202',
/* authorisation */ '  ');

FILE_SCHEMA (('AP242_MANAGED_MODEL_BASED_3D_ENGINEERING_MIM_LF { 1 0 10303 442 1 1 4 }'));
ENDSEC;

DATA;
#10=SHAPE_REPRESENTATION_RELATIONSHIP('','',#988,#11);
#11=ADVANCED_BREP_SHAPE_REPRESENTATION('',(#986),#1650);
#12=PLANE('',#1035);
#13=PLANE('',#1036);
#14=PLANE('',#1037);
#15=PLANE('',#1038);
#16=PLANE('',#1039);
#17=PLANE('',#1040);
#18=PLANE('',#1041);
#19=PLANE('',#1044);
#20=PLANE('',#1045);
#21=PLANE('',#1046);
#22=PLANE('',#1047);
#23=PLANE('',#1048);
#24=PLANE('',#1049);
#25=PLANE('',#1050);
#26=PLANE('',#1051);
#27=PLANE('',#1052);
#28=PLANE('',#1053);
#29=PLANE('',#1057);
#30=PLANE('',#1058);
#31=PLANE('',#1059);
#32=PLANE('',#1060);
#33=PLANE('',#1061);
#34=PLANE('',#1065);
#35=PLANE('',#1067);
#36=PLANE('',#1069);
#37=PLANE('',#1070);
#38=PLANE('',#1071);
#39=PLANE('',#1072);
#40=PLANE('',#1073);
#41=PLANE('',#1075);
#42=PLANE('',#1076);
#43=PLANE('',#1077);
#44=B_SPLINE_CURVE_WITH_KNOTS('',3,(#1381,#1382,#1383,#1384,#1385),
 .UNSPECIFIED.,.F.,.F.,(4,1,4),(0.,0.000781179892129303,0.00156235978425861),
 .UNSPECIFIED.);
#45=B_SPLINE_CURVE_WITH_KNOTS('',3,(#1389,#1390,#1391,#1392,#1393),
 .UNSPECIFIED.,.F.,.F.,(4,1,4),(0.,0.000781179892141013,0.00156235978428203),
 .UNSPECIFIED.);
#46=B_SPLINE_CURVE_WITH_KNOTS('',3,(#1394,#1395,#1396,#1397),
 .UNSPECIFIED.,.F.,.F.,(4,4),(0.00156235978428203,0.00156365269517642),
 .UNSPECIFIED.);
#47=TOROIDAL_SURFACE('',#996,0.013578,0.001);
#48=TOROIDAL_SURFACE('',#1002,0.002,0.0005);
#49=TOROIDAL_SURFACE('',#1008,0.002,0.0005);
#50=TOROIDAL_SURFACE('',#1014,0.002,0.0005);
#51=TOROIDAL_SURFACE('',#1020,0.002,0.0005);
#52=TOROIDAL_SURFACE('',#1026,0.002,0.0005);
#53=TOROIDAL_SURFACE('',#1032,0.002,0.0005);
#54=CIRCLE('',#991,0.001);
#55=CIRCLE('',#992,0.001);
#56=CIRCLE('',#994,0.001);
#57=CIRCLE('',#995,0.001);
#58=CIRCLE('',#997,0.013578);
#59=CIRCLE('',#998,0.014578);
#60=CIRCLE('',#1000,0.0005);
#61=CIRCLE('',#1001,0.0005);
#62=CIRCLE('',#1003,0.002);
#63=CIRCLE('',#1004,0.0005);
#64=CIRCLE('',#1005,0.0015);
#65=CIRCLE('',#1007,0.0005);
#66=CIRCLE('',#1009,0.002);
#67=CIRCLE('',#1010,0.0015);
#68=CIRCLE('',#1012,0.0005);
#69=CIRCLE('',#1013,0.0005);
#70=CIRCLE('',#1015,0.002);
#71=CIRCLE('',#1016,0.0005);
#72=CIRCLE('',#1017,0.0015);
#73=CIRCLE('',#1019,0.0005);
#74=CIRCLE('',#1021,0.002);
#75=CIRCLE('',#1022,0.0015);
#76=CIRCLE('',#1024,0.0005);
#77=CIRCLE('',#1025,0.0005);
#78=CIRCLE('',#1027,0.002);
#79=CIRCLE('',#1028,0.0005);
#80=CIRCLE('',#1029,0.0015);
#81=CIRCLE('',#1031,0.0005);
#82=CIRCLE('',#1033,0.002);
#83=CIRCLE('',#1034,0.0015);
#84=CIRCLE('',#1043,0.014578);
#85=CIRCLE('',#1055,0.011578);
#86=CIRCLE('',#1056,0.011578);
#87=CIRCLE('',#1062,0.0015);
#88=CIRCLE('',#1063,0.0015);
#89=ORIENTED_EDGE('',*,*,#367,.F.);
#90=ORIENTED_EDGE('',*,*,#368,.F.);
#91=ORIENTED_EDGE('',*,*,#369,.F.);
#92=ORIENTED_EDGE('',*,*,#370,.F.);
#93=ORIENTED_EDGE('',*,*,#371,.F.);
#94=ORIENTED_EDGE('',*,*,#372,.F.);
#95=ORIENTED_EDGE('',*,*,#373,.F.);
#96=ORIENTED_EDGE('',*,*,#374,.F.);
#97=ORIENTED_EDGE('',*,*,#375,.F.);
#98=ORIENTED_EDGE('',*,*,#376,.F.);
#99=ORIENTED_EDGE('',*,*,#377,.T.);
#100=ORIENTED_EDGE('',*,*,#378,.F.);
#101=ORIENTED_EDGE('',*,*,#379,.T.);
#102=ORIENTED_EDGE('',*,*,#380,.T.);
#103=ORIENTED_EDGE('',*,*,#381,.F.);
#104=ORIENTED_EDGE('',*,*,#382,.F.);
#105=ORIENTED_EDGE('',*,*,#383,.T.);
#106=ORIENTED_EDGE('',*,*,#384,.F.);
#107=ORIENTED_EDGE('',*,*,#383,.F.);
#108=ORIENTED_EDGE('',*,*,#385,.F.);
#109=ORIENTED_EDGE('',*,*,#386,.T.);
#110=ORIENTED_EDGE('',*,*,#387,.F.);
#111=ORIENTED_EDGE('',*,*,#386,.F.);
#112=ORIENTED_EDGE('',*,*,#388,.F.);
#113=ORIENTED_EDGE('',*,*,#389,.T.);
#114=ORIENTED_EDGE('',*,*,#390,.F.);
#115=ORIENTED_EDGE('',*,*,#391,.F.);
#116=ORIENTED_EDGE('',*,*,#381,.T.);
#117=ORIENTED_EDGE('',*,*,#392,.F.);
#118=ORIENTED_EDGE('',*,*,#389,.F.);
#119=ORIENTED_EDGE('',*,*,#393,.F.);
#120=ORIENTED_EDGE('',*,*,#394,.F.);
#121=ORIENTED_EDGE('',*,*,#395,.T.);
#122=ORIENTED_EDGE('',*,*,#396,.F.);
#123=ORIENTED_EDGE('',*,*,#395,.F.);
#124=ORIENTED_EDGE('',*,*,#397,.F.);
#125=ORIENTED_EDGE('',*,*,#398,.T.);
#126=ORIENTED_EDGE('',*,*,#399,.F.);
#127=ORIENTED_EDGE('',*,*,#398,.F.);
#128=ORIENTED_EDGE('',*,*,#400,.F.);
#129=ORIENTED_EDGE('',*,*,#401,.T.);
#130=ORIENTED_EDGE('',*,*,#402,.F.);
#131=ORIENTED_EDGE('',*,*,#403,.F.);
#132=ORIENTED_EDGE('',*,*,#393,.T.);
#133=ORIENTED_EDGE('',*,*,#404,.F.);
#134=ORIENTED_EDGE('',*,*,#401,.F.);
#135=ORIENTED_EDGE('',*,*,#405,.F.);
#136=ORIENTED_EDGE('',*,*,#406,.F.);
#137=ORIENTED_EDGE('',*,*,#407,.T.);
#138=ORIENTED_EDGE('',*,*,#408,.F.);
#139=ORIENTED_EDGE('',*,*,#407,.F.);
#140=ORIENTED_EDGE('',*,*,#409,.F.);
#141=ORIENTED_EDGE('',*,*,#410,.T.);
#142=ORIENTED_EDGE('',*,*,#411,.F.);
#143=ORIENTED_EDGE('',*,*,#410,.F.);
#144=ORIENTED_EDGE('',*,*,#412,.F.);
#145=ORIENTED_EDGE('',*,*,#413,.T.);
#146=ORIENTED_EDGE('',*,*,#414,.F.);
#147=ORIENTED_EDGE('',*,*,#415,.F.);
#148=ORIENTED_EDGE('',*,*,#405,.T.);
#149=ORIENTED_EDGE('',*,*,#416,.F.);
#150=ORIENTED_EDGE('',*,*,#413,.F.);
#151=ORIENTED_EDGE('',*,*,#417,.T.);
#152=ORIENTED_EDGE('',*,*,#418,.F.);
#153=ORIENTED_EDGE('',*,*,#419,.F.);
#154=ORIENTED_EDGE('',*,*,#420,.T.);
#155=ORIENTED_EDGE('',*,*,#421,.T.);
#156=ORIENTED_EDGE('',*,*,#422,.F.);
#157=ORIENTED_EDGE('',*,*,#423,.F.);
#158=ORIENTED_EDGE('',*,*,#418,.T.);
#159=ORIENTED_EDGE('',*,*,#424,.F.);
#160=ORIENTED_EDGE('',*,*,#425,.F.);
#161=ORIENTED_EDGE('',*,*,#426,.T.);
#162=ORIENTED_EDGE('',*,*,#422,.T.);
#163=ORIENTED_EDGE('',*,*,#427,.F.);
#164=ORIENTED_EDGE('',*,*,#428,.F.);
#165=ORIENTED_EDGE('',*,*,#429,.T.);
#166=ORIENTED_EDGE('',*,*,#425,.T.);
#167=ORIENTED_EDGE('',*,*,#430,.F.);
#168=ORIENTED_EDGE('',*,*,#431,.F.);
#169=ORIENTED_EDGE('',*,*,#432,.T.);
#170=ORIENTED_EDGE('',*,*,#428,.T.);
#171=ORIENTED_EDGE('',*,*,#433,.F.);
#172=ORIENTED_EDGE('',*,*,#434,.F.);
#173=ORIENTED_EDGE('',*,*,#435,.T.);
#174=ORIENTED_EDGE('',*,*,#431,.T.);
#175=ORIENTED_EDGE('',*,*,#436,.F.);
#176=ORIENTED_EDGE('',*,*,#437,.F.);
#177=ORIENTED_EDGE('',*,*,#438,.T.);
#178=ORIENTED_EDGE('',*,*,#434,.T.);
#179=ORIENTED_EDGE('',*,*,#439,.F.);
#180=ORIENTED_EDGE('',*,*,#378,.T.);
#181=ORIENTED_EDGE('',*,*,#440,.T.);
#182=ORIENTED_EDGE('',*,*,#441,.F.);
#183=ORIENTED_EDGE('',*,*,#442,.F.);
#184=ORIENTED_EDGE('',*,*,#437,.T.);
#185=ORIENTED_EDGE('',*,*,#443,.T.);
#186=ORIENTED_EDGE('',*,*,#444,.F.);
#187=ORIENTED_EDGE('',*,*,#445,.F.);
#188=ORIENTED_EDGE('',*,*,#441,.T.);
#189=ORIENTED_EDGE('',*,*,#446,.T.);
#190=ORIENTED_EDGE('',*,*,#447,.F.);
#191=ORIENTED_EDGE('',*,*,#448,.F.);
#192=ORIENTED_EDGE('',*,*,#444,.T.);
#193=ORIENTED_EDGE('',*,*,#449,.T.);
#194=ORIENTED_EDGE('',*,*,#450,.F.);
#195=ORIENTED_EDGE('',*,*,#451,.F.);
#196=ORIENTED_EDGE('',*,*,#447,.T.);
#197=ORIENTED_EDGE('',*,*,#452,.T.);
#198=ORIENTED_EDGE('',*,*,#453,.F.);
#199=ORIENTED_EDGE('',*,*,#454,.F.);
#200=ORIENTED_EDGE('',*,*,#450,.T.);
#201=ORIENTED_EDGE('',*,*,#455,.F.);
#202=ORIENTED_EDGE('',*,*,#456,.F.);
#203=ORIENTED_EDGE('',*,*,#457,.T.);
#204=ORIENTED_EDGE('',*,*,#453,.T.);
#205=ORIENTED_EDGE('',*,*,#458,.F.);
#206=ORIENTED_EDGE('',*,*,#459,.F.);
#207=ORIENTED_EDGE('',*,*,#460,.T.);
#208=ORIENTED_EDGE('',*,*,#456,.T.);
#209=ORIENTED_EDGE('',*,*,#461,.F.);
#210=ORIENTED_EDGE('',*,*,#462,.F.);
#211=ORIENTED_EDGE('',*,*,#463,.T.);
#212=ORIENTED_EDGE('',*,*,#459,.T.);
#213=ORIENTED_EDGE('',*,*,#464,.F.);
#214=ORIENTED_EDGE('',*,*,#465,.F.);
#215=ORIENTED_EDGE('',*,*,#466,.T.);
#216=ORIENTED_EDGE('',*,*,#462,.T.);
#217=ORIENTED_EDGE('',*,*,#467,.T.);
#218=ORIENTED_EDGE('',*,*,#468,.F.);
#219=ORIENTED_EDGE('',*,*,#469,.F.);
#220=ORIENTED_EDGE('',*,*,#465,.T.);
#221=ORIENTED_EDGE('',*,*,#470,.F.);
#222=ORIENTED_EDGE('',*,*,#471,.F.);
#223=ORIENTED_EDGE('',*,*,#472,.T.);
#224=ORIENTED_EDGE('',*,*,#468,.T.);
#225=ORIENTED_EDGE('',*,*,#473,.F.);
#226=ORIENTED_EDGE('',*,*,#474,.F.);
#227=ORIENTED_EDGE('',*,*,#475,.T.);
#228=ORIENTED_EDGE('',*,*,#471,.T.);
#229=ORIENTED_EDGE('',*,*,#476,.T.);
#230=ORIENTED_EDGE('',*,*,#477,.F.);
#231=ORIENTED_EDGE('',*,*,#478,.F.);
#232=ORIENTED_EDGE('',*,*,#474,.T.);
#233=ORIENTED_EDGE('',*,*,#479,.F.);
#234=ORIENTED_EDGE('',*,*,#480,.F.);
#235=ORIENTED_EDGE('',*,*,#481,.T.);
#236=ORIENTED_EDGE('',*,*,#477,.T.);
#237=ORIENTED_EDGE('',*,*,#482,.T.);
#238=ORIENTED_EDGE('',*,*,#420,.F.);
#239=ORIENTED_EDGE('',*,*,#483,.F.);
#240=ORIENTED_EDGE('',*,*,#480,.T.);
#241=ORIENTED_EDGE('',*,*,#419,.T.);
#242=ORIENTED_EDGE('',*,*,#423,.T.);
#243=ORIENTED_EDGE('',*,*,#426,.F.);
#244=ORIENTED_EDGE('',*,*,#429,.F.);
#245=ORIENTED_EDGE('',*,*,#432,.F.);
#246=ORIENTED_EDGE('',*,*,#435,.F.);
#247=ORIENTED_EDGE('',*,*,#438,.F.);
#248=ORIENTED_EDGE('',*,*,#442,.T.);
#249=ORIENTED_EDGE('',*,*,#445,.T.);
#250=ORIENTED_EDGE('',*,*,#448,.T.);
#251=ORIENTED_EDGE('',*,*,#451,.T.);
#252=ORIENTED_EDGE('',*,*,#454,.T.);
#253=ORIENTED_EDGE('',*,*,#457,.F.);
#254=ORIENTED_EDGE('',*,*,#460,.F.);
#255=ORIENTED_EDGE('',*,*,#463,.F.);
#256=ORIENTED_EDGE('',*,*,#466,.F.);
#257=ORIENTED_EDGE('',*,*,#469,.T.);
#258=ORIENTED_EDGE('',*,*,#472,.F.);
#259=ORIENTED_EDGE('',*,*,#475,.F.);
#260=ORIENTED_EDGE('',*,*,#478,.T.);
#261=ORIENTED_EDGE('',*,*,#481,.F.);
#262=ORIENTED_EDGE('',*,*,#483,.T.);
#263=ORIENTED_EDGE('',*,*,#406,.T.);
#264=ORIENTED_EDGE('',*,*,#415,.T.);
#265=ORIENTED_EDGE('',*,*,#412,.T.);
#266=ORIENTED_EDGE('',*,*,#409,.T.);
#267=ORIENTED_EDGE('',*,*,#484,.F.);
#268=ORIENTED_EDGE('',*,*,#485,.F.);
#269=ORIENTED_EDGE('',*,*,#486,.T.);
#270=ORIENTED_EDGE('',*,*,#487,.F.);
#271=ORIENTED_EDGE('',*,*,#443,.F.);
#272=ORIENTED_EDGE('',*,*,#488,.F.);
#273=ORIENTED_EDGE('',*,*,#489,.F.);
#274=ORIENTED_EDGE('',*,*,#490,.T.);
#275=ORIENTED_EDGE('',*,*,#491,.T.);
#276=ORIENTED_EDGE('',*,*,#492,.T.);
#277=ORIENTED_EDGE('',*,*,#436,.T.);
#278=ORIENTED_EDGE('',*,*,#433,.T.);
#279=ORIENTED_EDGE('',*,*,#430,.T.);
#280=ORIENTED_EDGE('',*,*,#427,.T.);
#281=ORIENTED_EDGE('',*,*,#424,.T.);
#282=ORIENTED_EDGE('',*,*,#421,.F.);
#283=ORIENTED_EDGE('',*,*,#417,.F.);
#284=ORIENTED_EDGE('',*,*,#482,.F.);
#285=ORIENTED_EDGE('',*,*,#479,.T.);
#286=ORIENTED_EDGE('',*,*,#476,.F.);
#287=ORIENTED_EDGE('',*,*,#473,.T.);
#288=ORIENTED_EDGE('',*,*,#470,.T.);
#289=ORIENTED_EDGE('',*,*,#467,.F.);
#290=ORIENTED_EDGE('',*,*,#464,.T.);
#291=ORIENTED_EDGE('',*,*,#461,.T.);
#292=ORIENTED_EDGE('',*,*,#458,.T.);
#293=ORIENTED_EDGE('',*,*,#455,.T.);
#294=ORIENTED_EDGE('',*,*,#452,.F.);
#295=ORIENTED_EDGE('',*,*,#449,.F.);
#296=ORIENTED_EDGE('',*,*,#446,.F.);
#297=ORIENTED_EDGE('',*,*,#493,.T.);
#298=ORIENTED_EDGE('',*,*,#416,.T.);
#299=ORIENTED_EDGE('',*,*,#494,.F.);
#300=ORIENTED_EDGE('',*,*,#387,.T.);
#301=ORIENTED_EDGE('',*,*,#495,.T.);
#302=ORIENTED_EDGE('',*,*,#414,.T.);
#303=ORIENTED_EDGE('',*,*,#493,.F.);
#304=ORIENTED_EDGE('',*,*,#390,.T.);
#305=ORIENTED_EDGE('',*,*,#496,.T.);
#306=ORIENTED_EDGE('',*,*,#411,.T.);
#307=ORIENTED_EDGE('',*,*,#495,.F.);
#308=ORIENTED_EDGE('',*,*,#392,.T.);
#309=ORIENTED_EDGE('',*,*,#497,.F.);
#310=ORIENTED_EDGE('',*,*,#396,.T.);
#311=ORIENTED_EDGE('',*,*,#498,.T.);
#312=ORIENTED_EDGE('',*,*,#484,.T.);
#313=ORIENTED_EDGE('',*,*,#498,.F.);
#314=ORIENTED_EDGE('',*,*,#399,.T.);
#315=ORIENTED_EDGE('',*,*,#499,.T.);
#316=ORIENTED_EDGE('',*,*,#485,.T.);
#317=ORIENTED_EDGE('',*,*,#499,.F.);
#318=ORIENTED_EDGE('',*,*,#402,.T.);
#319=ORIENTED_EDGE('',*,*,#500,.T.);
#320=ORIENTED_EDGE('',*,*,#486,.F.);
#321=ORIENTED_EDGE('',*,*,#501,.F.);
#322=ORIENTED_EDGE('',*,*,#372,.T.);
#323=ORIENTED_EDGE('',*,*,#502,.T.);
#324=ORIENTED_EDGE('',*,*,#370,.T.);
#325=ORIENTED_EDGE('',*,*,#503,.T.);
#326=ORIENTED_EDGE('',*,*,#490,.F.);
#327=ORIENTED_EDGE('',*,*,#503,.F.);
#328=ORIENTED_EDGE('',*,*,#369,.T.);
#329=ORIENTED_EDGE('',*,*,#504,.T.);
#330=ORIENTED_EDGE('',*,*,#491,.F.);
#331=ORIENTED_EDGE('',*,*,#504,.F.);
#332=ORIENTED_EDGE('',*,*,#368,.T.);
#333=ORIENTED_EDGE('',*,*,#379,.F.);
#334=ORIENTED_EDGE('',*,*,#439,.T.);
#335=ORIENTED_EDGE('',*,*,#492,.F.);
#336=ORIENTED_EDGE('',*,*,#377,.F.);
#337=ORIENTED_EDGE('',*,*,#374,.T.);
#338=ORIENTED_EDGE('',*,*,#505,.T.);
#339=ORIENTED_EDGE('',*,*,#488,.T.);
#340=ORIENTED_EDGE('',*,*,#440,.F.);
#341=ORIENTED_EDGE('',*,*,#500,.F.);
#342=ORIENTED_EDGE('',*,*,#404,.T.);
#343=ORIENTED_EDGE('',*,*,#497,.T.);
#344=ORIENTED_EDGE('',*,*,#487,.T.);
#345=ORIENTED_EDGE('',*,*,#505,.F.);
#346=ORIENTED_EDGE('',*,*,#373,.T.);
#347=ORIENTED_EDGE('',*,*,#501,.T.);
#348=ORIENTED_EDGE('',*,*,#489,.T.);
#349=ORIENTED_EDGE('',*,*,#494,.T.);
#350=ORIENTED_EDGE('',*,*,#408,.T.);
#351=ORIENTED_EDGE('',*,*,#496,.F.);
#352=ORIENTED_EDGE('',*,*,#384,.T.);
#353=ORIENTED_EDGE('',*,*,#394,.T.);
#354=ORIENTED_EDGE('',*,*,#403,.T.);
#355=ORIENTED_EDGE('',*,*,#400,.T.);
#356=ORIENTED_EDGE('',*,*,#397,.T.);
#357=ORIENTED_EDGE('',*,*,#382,.T.);
#358=ORIENTED_EDGE('',*,*,#391,.T.);
#359=ORIENTED_EDGE('',*,*,#388,.T.);
#360=ORIENTED_EDGE('',*,*,#385,.T.);
#361=ORIENTED_EDGE('',*,*,#502,.F.);
#362=ORIENTED_EDGE('',*,*,#371,.T.);
#363=ORIENTED_EDGE('',*,*,#376,.T.);
#364=ORIENTED_EDGE('',*,*,#375,.T.);
#365=ORIENTED_EDGE('',*,*,#380,.F.);
#366=ORIENTED_EDGE('',*,*,#367,.T.);
#367=EDGE_CURVE('',#506,#507,#594,.T.);
#368=EDGE_CURVE('',#508,#506,#54,.T.);
#369=EDGE_CURVE('',#509,#508,#595,.F.);
#370=EDGE_CURVE('',#507,#509,#55,.T.);
#371=EDGE_CURVE('',#510,#511,#596,.T.);
#372=EDGE_CURVE('',#512,#510,#56,.T.);
#373=EDGE_CURVE('',#513,#512,#597,.F.);
#374=EDGE_CURVE('',#511,#513,#57,.F.);
#375=EDGE_CURVE('',#514,#515,#58,.F.);
#376=EDGE_CURVE('',#511,#514,#598,.T.);
#377=EDGE_CURVE('',#511,#516,#44,.F.);
#378=EDGE_CURVE('',#517,#516,#59,.T.);
#379=EDGE_CURVE('',#517,#506,#45,.T.);
#380=EDGE_CURVE('',#506,#515,#46,.T.);
#381=EDGE_CURVE('',#518,#519,#60,.T.);
#382=EDGE_CURVE('',#520,#518,#599,.T.);
#383=EDGE_CURVE('',#520,#521,#61,.T.);
#384=EDGE_CURVE('',#519,#521,#600,.F.);
#385=EDGE_CURVE('',#522,#520,#62,.T.);
#386=EDGE_CURVE('',#522,#523,#63,.T.);
#387=EDGE_CURVE('',#521,#523,#64,.F.);
#388=EDGE_CURVE('',#524,#522,#601,.T.);
#389=EDGE_CURVE('',#524,#525,#65,.T.);
#390=EDGE_CURVE('',#523,#525,#602,.F.);
#391=EDGE_CURVE('',#518,#524,#66,.T.);
#392=EDGE_CURVE('',#525,#519,#67,.F.);
#393=EDGE_CURVE('',#526,#527,#68,.T.);
#394=EDGE_CURVE('',#528,#526,#603,.T.);
#395=EDGE_CURVE('',#528,#529,#69,.T.);
#396=EDGE_CURVE('',#527,#529,#604,.F.);
#397=EDGE_CURVE('',#530,#528,#70,.T.);
#398=EDGE_CURVE('',#530,#531,#71,.T.);
#399=EDGE_CURVE('',#529,#531,#72,.F.);
#400=EDGE_CURVE('',#532,#530,#605,.T.);
#401=EDGE_CURVE('',#532,#533,#73,.T.);
#402=EDGE_CURVE('',#531,#533,#606,.F.);
#403=EDGE_CURVE('',#526,#532,#74,.T.);
#404=EDGE_CURVE('',#533,#527,#75,.F.);
#405=EDGE_CURVE('',#534,#535,#76,.T.);
#406=EDGE_CURVE('',#536,#534,#607,.T.);
#407=EDGE_CURVE('',#536,#537,#77,.T.);
#408=EDGE_CURVE('',#535,#537,#608,.F.);
#409=EDGE_CURVE('',#538,#536,#78,.F.);
#410=EDGE_CURVE('',#538,#539,#79,.T.);
#411=EDGE_CURVE('',#537,#539,#80,.T.);
#412=EDGE_CURVE('',#540,#538,#609,.T.);
#413=EDGE_CURVE('',#540,#541,#81,.T.);
#414=EDGE_CURVE('',#539,#541,#610,.F.);
#415=EDGE_CURVE('',#534,#540,#82,.F.);
#416=EDGE_CURVE('',#541,#535,#83,.T.);
#417=EDGE_CURVE('',#542,#543,#611,.T.);
#418=EDGE_CURVE('',#544,#543,#612,.T.);
#419=EDGE_CURVE('',#545,#544,#613,.T.);
#420=EDGE_CURVE('',#545,#542,#614,.T.);
#421=EDGE_CURVE('',#543,#546,#615,.T.);
#422=EDGE_CURVE('',#547,#546,#616,.T.);
#423=EDGE_CURVE('',#544,#547,#617,.T.);
#424=EDGE_CURVE('',#548,#546,#618,.T.);
#425=EDGE_CURVE('',#549,#548,#619,.T.);
#426=EDGE_CURVE('',#549,#547,#620,.T.);
#427=EDGE_CURVE('',#550,#548,#621,.T.);
#428=EDGE_CURVE('',#551,#550,#622,.T.);
#429=EDGE_CURVE('',#551,#549,#623,.T.);
#430=EDGE_CURVE('',#552,#550,#624,.T.);
#431=EDGE_CURVE('',#553,#552,#625,.T.);
#432=EDGE_CURVE('',#553,#551,#626,.T.);
#433=EDGE_CURVE('',#554,#552,#627,.T.);
#434=EDGE_CURVE('',#555,#554,#628,.T.);
#435=EDGE_CURVE('',#555,#553,#629,.T.);
#436=EDGE_CURVE('',#556,#554,#630,.T.);
#437=EDGE_CURVE('',#557,#556,#631,.T.);
#438=EDGE_CURVE('',#557,#555,#632,.T.);
#439=EDGE_CURVE('',#517,#556,#633,.T.);
#440=EDGE_CURVE('',#516,#558,#634,.T.);
#441=EDGE_CURVE('',#559,#558,#635,.T.);
#442=EDGE_CURVE('',#557,#559,#84,.T.);
#443=EDGE_CURVE('',#558,#560,#636,.T.);
#444=EDGE_CURVE('',#561,#560,#637,.T.);
#445=EDGE_CURVE('',#559,#561,#638,.T.);
#446=EDGE_CURVE('',#560,#562,#639,.T.);
#447=EDGE_CURVE('',#563,#562,#640,.T.);
#448=EDGE_CURVE('',#561,#563,#641,.T.);
#449=EDGE_CURVE('',#562,#564,#642,.T.);
#450=EDGE_CURVE('',#565,#564,#643,.T.);
#451=EDGE_CURVE('',#563,#565,#644,.T.);
#452=EDGE_CURVE('',#564,#566,#645,.T.);
#453=EDGE_CURVE('',#567,#566,#646,.T.);
#454=EDGE_CURVE('',#565,#567,#647,.T.);
#455=EDGE_CURVE('',#568,#566,#648,.T.);
#456=EDGE_CURVE('',#569,#568,#649,.T.);
#457=EDGE_CURVE('',#569,#567,#650,.T.);
#458=EDGE_CURVE('',#570,#568,#651,.T.);
#459=EDGE_CURVE('',#571,#570,#652,.T.);
#460=EDGE_CURVE('',#571,#569,#653,.T.);
#461=EDGE_CURVE('',#572,#570,#654,.T.);
#462=EDGE_CURVE('',#573,#572,#655,.T.);
#463=EDGE_CURVE('',#573,#571,#656,.T.);
#464=EDGE_CURVE('',#574,#572,#657,.T.);
#465=EDGE_CURVE('',#575,#574,#658,.T.);
#466=EDGE_CURVE('',#575,#573,#659,.T.);
#467=EDGE_CURVE('',#574,#576,#660,.T.);
#468=EDGE_CURVE('',#577,#576,#661,.T.);
#469=EDGE_CURVE('',#575,#577,#662,.T.);
#470=EDGE_CURVE('',#578,#576,#663,.T.);
#471=EDGE_CURVE('',#579,#578,#664,.T.);
#472=EDGE_CURVE('',#579,#577,#665,.T.);
#473=EDGE_CURVE('',#580,#578,#85,.T.);
#474=EDGE_CURVE('',#581,#580,#666,.T.);
#475=EDGE_CURVE('',#581,#579,#86,.T.);
#476=EDGE_CURVE('',#580,#582,#667,.T.);
#477=EDGE_CURVE('',#583,#582,#668,.T.);
#478=EDGE_CURVE('',#581,#583,#669,.T.);
#479=EDGE_CURVE('',#584,#582,#670,.T.);
#480=EDGE_CURVE('',#585,#584,#671,.T.);
#481=EDGE_CURVE('',#585,#583,#672,.T.);
#482=EDGE_CURVE('',#584,#542,#673,.T.);
#483=EDGE_CURVE('',#585,#545,#674,.T.);
#484=EDGE_CURVE('',#586,#587,#675,.T.);
#485=EDGE_CURVE('',#588,#586,#87,.T.);
#486=EDGE_CURVE('',#588,#589,#676,.T.);
#487=EDGE_CURVE('',#587,#589,#88,.T.);
#488=EDGE_CURVE('',#590,#558,#677,.T.);
#489=EDGE_CURVE('',#591,#590,#678,.T.);
#490=EDGE_CURVE('',#591,#592,#679,.T.);
#491=EDGE_CURVE('',#592,#593,#680,.T.);
#492=EDGE_CURVE('',#593,#556,#681,.T.);
#493=EDGE_CURVE('',#523,#541,#682,.T.);
#494=EDGE_CURVE('',#521,#535,#683,.T.);
#495=EDGE_CURVE('',#525,#539,#684,.T.);
#496=EDGE_CURVE('',#519,#537,#685,.T.);
#497=EDGE_CURVE('',#527,#587,#686,.T.);
#498=EDGE_CURVE('',#529,#586,#687,.T.);
#499=EDGE_CURVE('',#531,#588,#688,.T.);
#500=EDGE_CURVE('',#533,#589,#689,.T.);
#501=EDGE_CURVE('',#512,#591,#690,.T.);
#502=EDGE_CURVE('',#510,#507,#691,.T.);
#503=EDGE_CURVE('',#509,#592,#692,.T.);
#504=EDGE_CURVE('',#508,#593,#693,.T.);
#505=EDGE_CURVE('',#513,#590,#694,.T.);
#506=VERTEX_POINT('',#1360);
#507=VERTEX_POINT('',#1361);
#508=VERTEX_POINT('',#1363);
#509=VERTEX_POINT('',#1365);
#510=VERTEX_POINT('',#1369);
#511=VERTEX_POINT('',#1370);
#512=VERTEX_POINT('',#1372);
#513=VERTEX_POINT('',#1374);
#514=VERTEX_POINT('',#1378);
#515=VERTEX_POINT('',#1379);
#516=VERTEX_POINT('',#1386);
#517=VERTEX_POINT('',#1388);
#518=VERTEX_POINT('',#1400);
#519=VERTEX_POINT('',#1401);
#520=VERTEX_POINT('',#1403);
#521=VERTEX_POINT('',#1405);
#522=VERTEX_POINT('',#1409);
#523=VERTEX_POINT('',#1411);
#524=VERTEX_POINT('',#1415);
#525=VERTEX_POINT('',#1417);
#526=VERTEX_POINT('',#1424);
#527=VERTEX_POINT('',#1425);
#528=VERTEX_POINT('',#1427);
#529=VERTEX_POINT('',#1429);
#530=VERTEX_POINT('',#1433);
#531=VERTEX_POINT('',#1435);
#532=VERTEX_POINT('',#1439);
#533=VERTEX_POINT('',#1441);
#534=VERTEX_POINT('',#1448);
#535=VERTEX_POINT('',#1449);
#536=VERTEX_POINT('',#1451);
#537=VERTEX_POINT('',#1453);
#538=VERTEX_POINT('',#1457);
#539=VERTEX_POINT('',#1459);
#540=VERTEX_POINT('',#1463);
#541=VERTEX_POINT('',#1465);
#542=VERTEX_POINT('',#1472);
#543=VERTEX_POINT('',#1473);
#544=VERTEX_POINT('',#1475);
#545=VERTEX_POINT('',#1477);
#546=VERTEX_POINT('',#1481);
#547=VERTEX_POINT('',#1483);
#548=VERTEX_POINT('',#1487);
#549=VERTEX_POINT('',#1489);
#550=VERTEX_POINT('',#1493);
#551=VERTEX_POINT('',#1495);
#552=VERTEX_POINT('',#1499);
#553=VERTEX_POINT('',#1501);
#554=VERTEX_POINT('',#1505);
#555=VERTEX_POINT('',#1507);
#556=VERTEX_POINT('',#1511);
#557=VERTEX_POINT('',#1513);
#558=VERTEX_POINT('',#1518);
#559=VERTEX_POINT('',#1520);
#560=VERTEX_POINT('',#1524);
#561=VERTEX_POINT('',#1526);
#562=VERTEX_POINT('',#1530);
#563=VERTEX_POINT('',#1532);
#564=VERTEX_POINT('',#1536);
#565=VERTEX_POINT('',#1538);
#566=VERTEX_POINT('',#1542);
#567=VERTEX_POINT('',#1544);
#568=VERTEX_POINT('',#1548);
#569=VERTEX_POINT('',#1550);
#570=VERTEX_POINT('',#1554);
#571=VERTEX_POINT('',#1556);
#572=VERTEX_POINT('',#1560);
#573=VERTEX_POINT('',#1562);
#574=VERTEX_POINT('',#1566);
#575=VERTEX_POINT('',#1568);
#576=VERTEX_POINT('',#1572);
#577=VERTEX_POINT('',#1574);
#578=VERTEX_POINT('',#1578);
#579=VERTEX_POINT('',#1580);
#580=VERTEX_POINT('',#1584);
#581=VERTEX_POINT('',#1586);
#582=VERTEX_POINT('',#1590);
#583=VERTEX_POINT('',#1592);
#584=VERTEX_POINT('',#1596);
#585=VERTEX_POINT('',#1598);
#586=VERTEX_POINT('',#1606);
#587=VERTEX_POINT('',#1607);
#588=VERTEX_POINT('',#1609);
#589=VERTEX_POINT('',#1611);
#590=VERTEX_POINT('',#1614);
#591=VERTEX_POINT('',#1616);
#592=VERTEX_POINT('',#1618);
#593=VERTEX_POINT('',#1620);
#594=LINE('',#1359,#695);
#595=LINE('',#1364,#696);
#596=LINE('',#1368,#697);
#597=LINE('',#1373,#698);
#598=LINE('',#1380,#699);
#599=LINE('',#1402,#700);
#600=LINE('',#1406,#701);
#601=LINE('',#1414,#702);
#602=LINE('',#1418,#703);
#603=LINE('',#1426,#704);
#604=LINE('',#1430,#705);
#605=LINE('',#1438,#706);
#606=LINE('',#1442,#707);
#607=LINE('',#1450,#708);
#608=LINE('',#1454,#709);
#609=LINE('',#1462,#710);
#610=LINE('',#1466,#711);
#611=LINE('',#1471,#712);
#612=LINE('',#1474,#713);
#613=LINE('',#1476,#714);
#614=LINE('',#1478,#715);
#615=LINE('',#1480,#716);
#616=LINE('',#1482,#717);
#617=LINE('',#1484,#718);
#618=LINE('',#1486,#719);
#619=LINE('',#1488,#720);
#620=LINE('',#1490,#721);
#621=LINE('',#1492,#722);
#622=LINE('',#1494,#723);
#623=LINE('',#1496,#724);
#624=LINE('',#1498,#725);
#625=LINE('',#1500,#726);
#626=LINE('',#1502,#727);
#627=LINE('',#1504,#728);
#628=LINE('',#1506,#729);
#629=LINE('',#1508,#730);
#630=LINE('',#1510,#731);
#631=LINE('',#1512,#732);
#632=LINE('',#1514,#733);
#633=LINE('',#1516,#734);
#634=LINE('',#1517,#735);
#635=LINE('',#1519,#736);
#636=LINE('',#1523,#737);
#637=LINE('',#1525,#738);
#638=LINE('',#1527,#739);
#639=LINE('',#1529,#740);
#640=LINE('',#1531,#741);
#641=LINE('',#1533,#742);
#642=LINE('',#1535,#743);
#643=LINE('',#1537,#744);
#644=LINE('',#1539,#745);
#645=LINE('',#1541,#746);
#646=LINE('',#1543,#747);
#647=LINE('',#1545,#748);
#648=LINE('',#1547,#749);
#649=LINE('',#1549,#750);
#650=LINE('',#1551,#751);
#651=LINE('',#1553,#752);
#652=LINE('',#1555,#753);
#653=LINE('',#1557,#754);
#654=LINE('',#1559,#755);
#655=LINE('',#1561,#756);
#656=LINE('',#1563,#757);
#657=LINE('',#1565,#758);
#658=LINE('',#1567,#759);
#659=LINE('',#1569,#760);
#660=LINE('',#1571,#761);
#661=LINE('',#1573,#762);
#662=LINE('',#1575,#763);
#663=LINE('',#1577,#764);
#664=LINE('',#1579,#765);
#665=LINE('',#1581,#766);
#666=LINE('',#1585,#767);
#667=LINE('',#1589,#768);
#668=LINE('',#1591,#769);
#669=LINE('',#1593,#770);
#670=LINE('',#1595,#771);
#671=LINE('',#1597,#772);
#672=LINE('',#1599,#773);
#673=LINE('',#1601,#774);
#674=LINE('',#1602,#775);
#675=LINE('',#1605,#776);
#676=LINE('',#1610,#777);
#677=LINE('',#1613,#778);
#678=LINE('',#1615,#779);
#679=LINE('',#1617,#780);
#680=LINE('',#1619,#781);
#681=LINE('',#1621,#782);
#682=LINE('',#1623,#783);
#683=LINE('',#1624,#784);
#684=LINE('',#1626,#785);
#685=LINE('',#1628,#786);
#686=LINE('',#1630,#787);
#687=LINE('',#1631,#788);
#688=LINE('',#1633,#789);
#689=LINE('',#1635,#790);
#690=LINE('',#1637,#791);
#691=LINE('',#1638,#792);
#692=LINE('',#1639,#793);
#693=LINE('',#1641,#794);
#694=LINE('',#1644,#795);
#695=VECTOR('',#1082,1.);
#696=VECTOR('',#1085,1.);
#697=VECTOR('',#1090,1.);
#698=VECTOR('',#1093,1.);
#699=VECTOR('',#1100,1.);
#700=VECTOR('',#1107,1.);
#701=VECTOR('',#1110,1.);
#702=VECTOR('',#1121,1.);
#703=VECTOR('',#1124,1.);
#704=VECTOR('',#1135,1.);
#705=VECTOR('',#1138,1.);
#706=VECTOR('',#1149,1.);
#707=VECTOR('',#1152,1.);
#708=VECTOR('',#1163,1.);
#709=VECTOR('',#1166,1.);
#710=VECTOR('',#1177,1.);
#711=VECTOR('',#1180,1.);
#712=VECTOR('',#1189,1.);
#713=VECTOR('',#1190,1.);
#714=VECTOR('',#1191,1.);
#715=VECTOR('',#1192,1.);
#716=VECTOR('',#1195,1.);
#717=VECTOR('',#1196,1.);
#718=VECTOR('',#1197,1.);
#719=VECTOR('',#1200,1.);
#720=VECTOR('',#1201,1.);
#721=VECTOR('',#1202,1.);
#722=VECTOR('',#1205,1.);
#723=VECTOR('',#1206,1.);
#724=VECTOR('',#1207,1.);
#725=VECTOR('',#1210,1.);
#726=VECTOR('',#1211,1.);
#727=VECTOR('',#1212,1.);
#728=VECTOR('',#1215,1.);
#729=VECTOR('',#1216,1.);
#730=VECTOR('',#1217,1.);
#731=VECTOR('',#1220,1.);
#732=VECTOR('',#1221,1.);
#733=VECTOR('',#1222,1.);
#734=VECTOR('',#1225,1.);
#735=VECTOR('',#1226,1.);
#736=VECTOR('',#1227,1.);
#737=VECTOR('',#1232,1.);
#738=VECTOR('',#1233,1.);
#739=VECTOR('',#1234,1.);
#740=VECTOR('',#1237,1.);
#741=VECTOR('',#1238,1.);
#742=VECTOR('',#1239,1.);
#743=VECTOR('',#1242,1.);
#744=VECTOR('',#1243,1.);
#745=VECTOR('',#1244,1.);
#746=VECTOR('',#1247,1.);
#747=VECTOR('',#1248,1.);
#748=VECTOR('',#1249,1.);
#749=VECTOR('',#1252,1.);
#750=VECTOR('',#1253,1.);
#751=VECTOR('',#1254,1.);
#752=VECTOR('',#1257,1.);
#753=VECTOR('',#1258,1.);
#754=VECTOR('',#1259,1.);
#755=VECTOR('',#1262,1.);
#756=VECTOR('',#1263,1.);
#757=VECTOR('',#1264,1.);
#758=VECTOR('',#1267,1.);
#759=VECTOR('',#1268,1.);
#760=VECTOR('',#1269,1.);
#761=VECTOR('',#1272,1.);
#762=VECTOR('',#1273,1.);
#763=VECTOR('',#1274,1.);
#764=VECTOR('',#1277,1.);
#765=VECTOR('',#1278,1.);
#766=VECTOR('',#1279,1.);
#767=VECTOR('',#1284,1.);
#768=VECTOR('',#1289,1.);
#769=VECTOR('',#1290,1.);
#770=VECTOR('',#1291,1.);
#771=VECTOR('',#1294,1.);
#772=VECTOR('',#1295,1.);
#773=VECTOR('',#1296,1.);
#774=VECTOR('',#1299,1.);
#775=VECTOR('',#1300,1.);
#776=VECTOR('',#1305,1.);
#777=VECTOR('',#1308,1.);
#778=VECTOR('',#1311,1.);
#779=VECTOR('',#1312,1.);
#780=VECTOR('',#1313,1.);
#781=VECTOR('',#1314,1.);
#782=VECTOR('',#1315,1.);
#783=VECTOR('',#1318,1.);
#784=VECTOR('',#1319,1.);
#785=VECTOR('',#1322,1.);
#786=VECTOR('',#1325,1.);
#787=VECTOR('',#1328,1.);
#788=VECTOR('',#1329,1.);
#789=VECTOR('',#1332,1.);
#790=VECTOR('',#1335,1.);
#791=VECTOR('',#1338,1.);
#792=VECTOR('',#1339,1.);
#793=VECTOR('',#1340,1.);
#794=VECTOR('',#1343,1.);
#795=VECTOR('',#1348,1.);
#796=EDGE_LOOP('',(#89,#90,#91,#92));
#797=EDGE_LOOP('',(#93,#94,#95,#96));
#798=EDGE_LOOP('',(#97,#98,#99,#100,#101,#102));
#799=EDGE_LOOP('',(#103,#104,#105,#106));
#800=EDGE_LOOP('',(#107,#108,#109,#110));
#801=EDGE_LOOP('',(#111,#112,#113,#114));
#802=EDGE_LOOP('',(#115,#116,#117,#118));
#803=EDGE_LOOP('',(#119,#120,#121,#122));
#804=EDGE_LOOP('',(#123,#124,#125,#126));
#805=EDGE_LOOP('',(#127,#128,#129,#130));
#806=EDGE_LOOP('',(#131,#132,#133,#134));
#807=EDGE_LOOP('',(#135,#136,#137,#138));
#808=EDGE_LOOP('',(#139,#140,#141,#142));
#809=EDGE_LOOP('',(#143,#144,#145,#146));
#810=EDGE_LOOP('',(#147,#148,#149,#150));
#811=EDGE_LOOP('',(#151,#152,#153,#154));
#812=EDGE_LOOP('',(#155,#156,#157,#158));
#813=EDGE_LOOP('',(#159,#160,#161,#162));
#814=EDGE_LOOP('',(#163,#164,#165,#166));
#815=EDGE_LOOP('',(#167,#168,#169,#170));
#816=EDGE_LOOP('',(#171,#172,#173,#174));
#817=EDGE_LOOP('',(#175,#176,#177,#178));
#818=EDGE_LOOP('',(#179,#180,#181,#182,#183,#184));
#819=EDGE_LOOP('',(#185,#186,#187,#188));
#820=EDGE_LOOP('',(#189,#190,#191,#192));
#821=EDGE_LOOP('',(#193,#194,#195,#196));
#822=EDGE_LOOP('',(#197,#198,#199,#200));
#823=EDGE_LOOP('',(#201,#202,#203,#204));
#824=EDGE_LOOP('',(#205,#206,#207,#208));
#825=EDGE_LOOP('',(#209,#210,#211,#212));
#826=EDGE_LOOP('',(#213,#214,#215,#216));
#827=EDGE_LOOP('',(#217,#218,#219,#220));
#828=EDGE_LOOP('',(#221,#222,#223,#224));
#829=EDGE_LOOP('',(#225,#226,#227,#228));
#830=EDGE_LOOP('',(#229,#230,#231,#232));
#831=EDGE_LOOP('',(#233,#234,#235,#236));
#832=EDGE_LOOP('',(#237,#238,#239,#240));
#833=EDGE_LOOP('',(#241,#242,#243,#244,#245,#246,#247,#248,#249,#250,#251,
#252,#253,#254,#255,#256,#257,#258,#259,#260,#261,#262));
#834=EDGE_LOOP('',(#263,#264,#265,#266));
#835=EDGE_LOOP('',(#267,#268,#269,#270));
#836=EDGE_LOOP('',(#271,#272,#273,#274,#275,#276,#277,#278,#279,#280,#281,
#282,#283,#284,#285,#286,#287,#288,#289,#290,#291,#292,#293,#294,#295,#296));
#837=EDGE_LOOP('',(#297,#298,#299,#300));
#838=EDGE_LOOP('',(#301,#302,#303,#304));
#839=EDGE_LOOP('',(#305,#306,#307,#308));
#840=EDGE_LOOP('',(#309,#310,#311,#312));
#841=EDGE_LOOP('',(#313,#314,#315,#316));
#842=EDGE_LOOP('',(#317,#318,#319,#320));
#843=EDGE_LOOP('',(#321,#322,#323,#324,#325,#326));
#844=EDGE_LOOP('',(#327,#328,#329,#330));
#845=EDGE_LOOP('',(#331,#332,#333,#334,#335));
#846=EDGE_LOOP('',(#336,#337,#338,#339,#340));
#847=EDGE_LOOP('',(#341,#342,#343,#344));
#848=EDGE_LOOP('',(#345,#346,#347,#348));
#849=EDGE_LOOP('',(#349,#350,#351,#352));
#850=EDGE_LOOP('',(#353,#354,#355,#356));
#851=EDGE_LOOP('',(#357,#358,#359,#360));
#852=EDGE_LOOP('',(#361,#362,#363,#364,#365,#366));
#853=FACE_BOUND('',#796,.T.);
#854=FACE_BOUND('',#797,.T.);
#855=FACE_BOUND('',#798,.T.);
#856=FACE_BOUND('',#799,.T.);
#857=FACE_BOUND('',#800,.T.);
#858=FACE_BOUND('',#801,.T.);
#859=FACE_BOUND('',#802,.T.);
#860=FACE_BOUND('',#803,.T.);
#861=FACE_BOUND('',#804,.T.);
#862=FACE_BOUND('',#805,.T.);
#863=FACE_BOUND('',#806,.T.);
#864=FACE_BOUND('',#807,.T.);
#865=FACE_BOUND('',#808,.T.);
#866=FACE_BOUND('',#809,.T.);
#867=FACE_BOUND('',#810,.T.);
#868=FACE_BOUND('',#811,.T.);
#869=FACE_BOUND('',#812,.T.);
#870=FACE_BOUND('',#813,.T.);
#871=FACE_BOUND('',#814,.T.);
#872=FACE_BOUND('',#815,.T.);
#873=FACE_BOUND('',#816,.T.);
#874=FACE_BOUND('',#817,.T.);
#875=FACE_BOUND('',#818,.T.);
#876=FACE_BOUND('',#819,.T.);
#877=FACE_BOUND('',#820,.T.);
#878=FACE_BOUND('',#821,.T.);
#879=FACE_BOUND('',#822,.T.);
#880=FACE_BOUND('',#823,.T.);
#881=FACE_BOUND('',#824,.T.);
#882=FACE_BOUND('',#825,.T.);
#883=FACE_BOUND('',#826,.T.);
#884=FACE_BOUND('',#827,.T.);
#885=FACE_BOUND('',#828,.T.);
#886=FACE_BOUND('',#829,.T.);
#887=FACE_BOUND('',#830,.T.);
#888=FACE_BOUND('',#831,.T.);
#889=FACE_BOUND('',#832,.T.);
#890=FACE_BOUND('',#833,.T.);
#891=FACE_BOUND('',#834,.T.);
#892=FACE_BOUND('',#835,.T.);
#893=FACE_BOUND('',#836,.T.);
#894=FACE_BOUND('',#837,.T.);
#895=FACE_BOUND('',#838,.T.);
#896=FACE_BOUND('',#839,.T.);
#897=FACE_BOUND('',#840,.T.);
#898=FACE_BOUND('',#841,.T.);
#899=FACE_BOUND('',#842,.T.);
#900=FACE_BOUND('',#843,.T.);
#901=FACE_BOUND('',#844,.T.);
#902=FACE_BOUND('',#845,.T.);
#903=FACE_BOUND('',#846,.T.);
#904=FACE_BOUND('',#847,.T.);
#905=FACE_BOUND('',#848,.T.);
#906=FACE_BOUND('',#849,.T.);
#907=FACE_BOUND('',#850,.T.);
#908=FACE_BOUND('',#851,.T.);
#909=FACE_BOUND('',#852,.T.);
#910=CYLINDRICAL_SURFACE('',#990,0.001);
#911=CYLINDRICAL_SURFACE('',#993,0.001);
#912=CYLINDRICAL_SURFACE('',#999,0.0005);
#913=CYLINDRICAL_SURFACE('',#1006,0.0005);
#914=CYLINDRICAL_SURFACE('',#1011,0.0005);
#915=CYLINDRICAL_SURFACE('',#1018,0.0005);
#916=CYLINDRICAL_SURFACE('',#1023,0.0005);
#917=CYLINDRICAL_SURFACE('',#1030,0.0005);
#918=CYLINDRICAL_SURFACE('',#1042,0.014578);
#919=CYLINDRICAL_SURFACE('',#1054,0.011578);
#920=CYLINDRICAL_SURFACE('',#1064,0.0015);
#921=CYLINDRICAL_SURFACE('',#1066,0.0015);
#922=CYLINDRICAL_SURFACE('',#1068,0.0015);
#923=CYLINDRICAL_SURFACE('',#1074,0.0015);
#924=ADVANCED_FACE('',(#853),#910,.T.);
#925=ADVANCED_FACE('',(#854),#911,.T.);
#926=ADVANCED_FACE('',(#855),#47,.T.);
#927=ADVANCED_FACE('',(#856),#912,.T.);
#928=ADVANCED_FACE('',(#857),#48,.T.);
#929=ADVANCED_FACE('',(#858),#913,.T.);
#930=ADVANCED_FACE('',(#859),#49,.T.);
#931=ADVANCED_FACE('',(#860),#914,.T.);
#932=ADVANCED_FACE('',(#861),#50,.T.);
#933=ADVANCED_FACE('',(#862),#915,.T.);
#934=ADVANCED_FACE('',(#863),#51,.T.);
#935=ADVANCED_FACE('',(#864),#916,.T.);
#936=ADVANCED_FACE('',(#865),#52,.T.);
#937=ADVANCED_FACE('',(#866),#917,.T.);
#938=ADVANCED_FACE('',(#867),#53,.T.);
#939=ADVANCED_FACE('',(#868),#12,.F.);
#940=ADVANCED_FACE('',(#869),#13,.F.);
#941=ADVANCED_FACE('',(#870),#14,.T.);
#942=ADVANCED_FACE('',(#871),#15,.T.);
#943=ADVANCED_FACE('',(#872),#16,.T.);
#944=ADVANCED_FACE('',(#873),#17,.T.);
#945=ADVANCED_FACE('',(#874),#18,.T.);
#946=ADVANCED_FACE('',(#875),#918,.T.);
#947=ADVANCED_FACE('',(#876),#19,.F.);
#948=ADVANCED_FACE('',(#877),#20,.F.);
#949=ADVANCED_FACE('',(#878),#21,.F.);
#950=ADVANCED_FACE('',(#879),#22,.F.);
#951=ADVANCED_FACE('',(#880),#23,.T.);
#952=ADVANCED_FACE('',(#881),#24,.T.);
#953=ADVANCED_FACE('',(#882),#25,.T.);
#954=ADVANCED_FACE('',(#883),#26,.T.);
#955=ADVANCED_FACE('',(#884),#27,.F.);
#956=ADVANCED_FACE('',(#885),#28,.T.);
#957=ADVANCED_FACE('',(#886),#919,.F.);
#958=ADVANCED_FACE('',(#887),#29,.F.);
#959=ADVANCED_FACE('',(#888),#30,.T.);
#960=ADVANCED_FACE('',(#889),#31,.F.);
#961=ADVANCED_FACE('',(#890),#32,.T.);
#962=ADVANCED_FACE('',(#891,#892,#893),#33,.T.);
#963=ADVANCED_FACE('',(#894),#920,.F.);
#964=ADVANCED_FACE('',(#895),#34,.T.);
#965=ADVANCED_FACE('',(#896),#921,.F.);
#966=ADVANCED_FACE('',(#897),#35,.F.);
#967=ADVANCED_FACE('',(#898),#922,.F.);
#968=ADVANCED_FACE('',(#899),#36,.T.);
#969=ADVANCED_FACE('',(#900),#37,.T.);
#970=ADVANCED_FACE('',(#901),#38,.T.);
#971=ADVANCED_FACE('',(#902),#39,.T.);
#972=ADVANCED_FACE('',(#903),#40,.F.);
#973=ADVANCED_FACE('',(#904),#923,.F.);
#974=ADVANCED_FACE('',(#905),#41,.F.);
#975=ADVANCED_FACE('',(#906),#42,.F.);
#976=ADVANCED_FACE('',(#907,#908,#909),#43,.F.);
#977=CLOSED_SHELL('',(#924,#925,#926,#927,#928,#929,#930,#931,#932,#933,
#934,#935,#936,#937,#938,#939,#940,#941,#942,#943,#944,#945,#946,#947,#948,
#949,#950,#951,#952,#953,#954,#955,#956,#957,#958,#959,#960,#961,#962,#963,
#964,#965,#966,#967,#968,#969,#970,#971,#972,#973,#974,#975,#976));
#978=STYLED_ITEM('',(#979),#986);
#979=PRESENTATION_STYLE_ASSIGNMENT((#980));
#980=SURFACE_STYLE_USAGE(.BOTH.,#981);
#981=SURFACE_SIDE_STYLE('',(#982));
#982=SURFACE_STYLE_FILL_AREA(#983);
#983=FILL_AREA_STYLE('',(#984));
#984=FILL_AREA_STYLE_COLOUR('',#985);
#985=COLOUR_RGB('',0.301960784313725,0.301960784313725,0.301960784313725);
#986=MANIFOLD_SOLID_BREP('Cover',#977);
#987=SHAPE_DEFINITION_REPRESENTATION(#1655,#988);
#988=SHAPE_REPRESENTATION('Cover',(#989),#1650);
#989=AXIS2_PLACEMENT_3D('',#1357,#1078,#1079);
#990=AXIS2_PLACEMENT_3D('',#1358,#1080,#1081);
#991=AXIS2_PLACEMENT_3D('',#1362,#1083,#1084);
#992=AXIS2_PLACEMENT_3D('',#1366,#1086,#1087);
#993=AXIS2_PLACEMENT_3D('',#1367,#1088,#1089);
#994=AXIS2_PLACEMENT_3D('',#1371,#1091,#1092);
#995=AXIS2_PLACEMENT_3D('',#1375,#1094,#1095);
#996=AXIS2_PLACEMENT_3D('',#1376,#1096,#1097);
#997=AXIS2_PLACEMENT_3D('',#1377,#1098,#1099);
#998=AXIS2_PLACEMENT_3D('',#1387,#1101,#1102);
#999=AXIS2_PLACEMENT_3D('',#1398,#1103,#1104);
#1000=AXIS2_PLACEMENT_3D('',#1399,#1105,#1106);
#1001=AXIS2_PLACEMENT_3D('',#1404,#1108,#1109);
#1002=AXIS2_PLACEMENT_3D('',#1407,#1111,#1112);
#1003=AXIS2_PLACEMENT_3D('',#1408,#1113,#1114);
#1004=AXIS2_PLACEMENT_3D('',#1410,#1115,#1116);
#1005=AXIS2_PLACEMENT_3D('',#1412,#1117,#1118);
#1006=AXIS2_PLACEMENT_3D('',#1413,#1119,#1120);
#1007=AXIS2_PLACEMENT_3D('',#1416,#1122,#1123);
#1008=AXIS2_PLACEMENT_3D('',#1419,#1125,#1126);
#1009=AXIS2_PLACEMENT_3D('',#1420,#1127,#1128);
#1010=AXIS2_PLACEMENT_3D('',#1421,#1129,#1130);
#1011=AXIS2_PLACEMENT_3D('',#1422,#1131,#1132);
#1012=AXIS2_PLACEMENT_3D('',#1423,#1133,#1134);
#1013=AXIS2_PLACEMENT_3D('',#1428,#1136,#1137);
#1014=AXIS2_PLACEMENT_3D('',#1431,#1139,#1140);
#1015=AXIS2_PLACEMENT_3D('',#1432,#1141,#1142);
#1016=AXIS2_PLACEMENT_3D('',#1434,#1143,#1144);
#1017=AXIS2_PLACEMENT_3D('',#1436,#1145,#1146);
#1018=AXIS2_PLACEMENT_3D('',#1437,#1147,#1148);
#1019=AXIS2_PLACEMENT_3D('',#1440,#1150,#1151);
#1020=AXIS2_PLACEMENT_3D('',#1443,#1153,#1154);
#1021=AXIS2_PLACEMENT_3D('',#1444,#1155,#1156);
#1022=AXIS2_PLACEMENT_3D('',#1445,#1157,#1158);
#1023=AXIS2_PLACEMENT_3D('',#1446,#1159,#1160);
#1024=AXIS2_PLACEMENT_3D('',#1447,#1161,#1162);
#1025=AXIS2_PLACEMENT_3D('',#1452,#1164,#1165);
#1026=AXIS2_PLACEMENT_3D('',#1455,#1167,#1168);
#1027=AXIS2_PLACEMENT_3D('',#1456,#1169,#1170);
#1028=AXIS2_PLACEMENT_3D('',#1458,#1171,#1172);
#1029=AXIS2_PLACEMENT_3D('',#1460,#1173,#1174);
#1030=AXIS2_PLACEMENT_3D('',#1461,#1175,#1176);
#1031=AXIS2_PLACEMENT_3D('',#1464,#1178,#1179);
#1032=AXIS2_PLACEMENT_3D('',#1467,#1181,#1182);
#1033=AXIS2_PLACEMENT_3D('',#1468,#1183,#1184);
#1034=AXIS2_PLACEMENT_3D('',#1469,#1185,#1186);
#1035=AXIS2_PLACEMENT_3D('',#1470,#1187,#1188);
#1036=AXIS2_PLACEMENT_3D('',#1479,#1193,#1194);
#1037=AXIS2_PLACEMENT_3D('',#1485,#1198,#1199);
#1038=AXIS2_PLACEMENT_3D('',#1491,#1203,#1204);
#1039=AXIS2_PLACEMENT_3D('',#1497,#1208,#1209);
#1040=AXIS2_PLACEMENT_3D('',#1503,#1213,#1214);
#1041=AXIS2_PLACEMENT_3D('',#1509,#1218,#1219);
#1042=AXIS2_PLACEMENT_3D('',#1515,#1223,#1224);
#1043=AXIS2_PLACEMENT_3D('',#1521,#1228,#1229);
#1044=AXIS2_PLACEMENT_3D('',#1522,#1230,#1231);
#1045=AXIS2_PLACEMENT_3D('',#1528,#1235,#1236);
#1046=AXIS2_PLACEMENT_3D('',#1534,#1240,#1241);
#1047=AXIS2_PLACEMENT_3D('',#1540,#1245,#1246);
#1048=AXIS2_PLACEMENT_3D('',#1546,#1250,#1251);
#1049=AXIS2_PLACEMENT_3D('',#1552,#1255,#1256);
#1050=AXIS2_PLACEMENT_3D('',#1558,#1260,#1261);
#1051=AXIS2_PLACEMENT_3D('',#1564,#1265,#1266);
#1052=AXIS2_PLACEMENT_3D('',#1570,#1270,#1271);
#1053=AXIS2_PLACEMENT_3D('',#1576,#1275,#1276);
#1054=AXIS2_PLACEMENT_3D('',#1582,#1280,#1281);
#1055=AXIS2_PLACEMENT_3D('',#1583,#1282,#1283);
#1056=AXIS2_PLACEMENT_3D('',#1587,#1285,#1286);
#1057=AXIS2_PLACEMENT_3D('',#1588,#1287,#1288);
#1058=AXIS2_PLACEMENT_3D('',#1594,#1292,#1293);
#1059=AXIS2_PLACEMENT_3D('',#1600,#1297,#1298);
#1060=AXIS2_PLACEMENT_3D('',#1603,#1301,#1302);
#1061=AXIS2_PLACEMENT_3D('',#1604,#1303,#1304);
#1062=AXIS2_PLACEMENT_3D('',#1608,#1306,#1307);
#1063=AXIS2_PLACEMENT_3D('',#1612,#1309,#1310);
#1064=AXIS2_PLACEMENT_3D('',#1622,#1316,#1317);
#1065=AXIS2_PLACEMENT_3D('',#1625,#1320,#1321);
#1066=AXIS2_PLACEMENT_3D('',#1627,#1323,#1324);
#1067=AXIS2_PLACEMENT_3D('',#1629,#1326,#1327);
#1068=AXIS2_PLACEMENT_3D('',#1632,#1330,#1331);
#1069=AXIS2_PLACEMENT_3D('',#1634,#1333,#1334);
#1070=AXIS2_PLACEMENT_3D('',#1636,#1336,#1337);
#1071=AXIS2_PLACEMENT_3D('',#1640,#1341,#1342);
#1072=AXIS2_PLACEMENT_3D('',#1642,#1344,#1345);
#1073=AXIS2_PLACEMENT_3D('',#1643,#1346,#1347);
#1074=AXIS2_PLACEMENT_3D('',#1645,#1349,#1350);
#1075=AXIS2_PLACEMENT_3D('',#1646,#1351,#1352);
#1076=AXIS2_PLACEMENT_3D('',#1647,#1353,#1354);
#1077=AXIS2_PLACEMENT_3D('',#1648,#1355,#1356);
#1078=DIRECTION('',(0.,0.,1.));
#1079=DIRECTION('',(1.,0.,0.));
#1080=DIRECTION('',(0.,0.,1.));
#1081=DIRECTION('',(1.,0.,0.));
#1082=DIRECTION('',(0.,0.,-1.));
#1083=DIRECTION('',(0.,0.,1.));
#1084=DIRECTION('',(1.,0.,0.));
#1085=DIRECTION('',(0.,0.,-1.));
#1086=DIRECTION('',(0.,0.,-1.));
#1087=DIRECTION('',(-1.,0.,0.));
#1088=DIRECTION('',(0.,0.,1.));
#1089=DIRECTION('',(1.,0.,0.));
#1090=DIRECTION('',(0.,0.,1.));
#1091=DIRECTION('',(0.,0.,-1.));
#1092=DIRECTION('',(-1.,0.,0.));
#1093=DIRECTION('',(0.,0.,1.));
#1094=DIRECTION('',(0.,0.,-1.));
#1095=DIRECTION('',(-1.,0.,0.));
#1096=DIRECTION('',(1.,1.49829286230507E-16,0.));
#1097=DIRECTION('',(-1.49829286230507E-16,1.,0.));
#1098=DIRECTION('',(1.,1.49829286230507E-16,0.));
#1099=DIRECTION('',(-1.49829286230507E-16,1.,0.));
#1100=DIRECTION('',(-1.49829286230507E-16,1.,0.));
#1101=DIRECTION('',(1.,1.49829286230507E-16,0.));
#1102=DIRECTION('',(-1.49829286230507E-16,1.,0.));
#1103=DIRECTION('',(-1.49829286230507E-16,1.,0.));
#1104=DIRECTION('',(-1.,-1.49829286230507E-16,0.));
#1105=DIRECTION('',(0.,1.,0.));
#1106=DIRECTION('',(0.,0.,1.));
#1107=DIRECTION('',(-1.49829286230507E-16,1.,0.));
#1108=DIRECTION('',(0.,1.,0.));
#1109=DIRECTION('',(0.,0.,1.));
#1110=DIRECTION('',(-1.49829286230507E-16,1.,0.));
#1111=DIRECTION('',(1.,1.49829286230507E-16,0.));
#1112=DIRECTION('',(-1.49829286230507E-16,1.,0.));
#1113=DIRECTION('',(1.,1.49829286230507E-16,0.));
#1114=DIRECTION('',(-1.49829286230507E-16,1.,0.));
#1115=DIRECTION('',(0.,-1.,0.));
#1116=DIRECTION('',(0.,0.,-1.));
#1117=DIRECTION('',(1.,1.49829286230507E-16,0.));
#1118=DIRECTION('',(-1.49829286230507E-16,1.,0.));
#1119=DIRECTION('',(-1.49829286230507E-16,1.,0.));
#1120=DIRECTION('',(-1.,-1.49829286230507E-16,0.));
#1121=DIRECTION('',(1.49829286230507E-16,-1.,0.));
#1122=DIRECTION('',(0.,-1.,0.));
#1123=DIRECTION('',(0.,0.,-1.));
#1124=DIRECTION('',(1.49829286230507E-16,-1.,0.));
#1125=DIRECTION('',(1.,1.49829286230507E-16,0.));
#1126=DIRECTION('',(-1.49829286230507E-16,1.,0.));
#1127=DIRECTION('',(1.,1.49829286230507E-16,0.));
#1128=DIRECTION('',(-1.49829286230507E-16,1.,0.));
#1129=DIRECTION('',(1.,1.49829286230507E-16,0.));
#1130=DIRECTION('',(-1.49829286230507E-16,1.,0.));
#1131=DIRECTION('',(-1.49829286230507E-16,1.,0.));
#1132=DIRECTION('',(-1.,-1.49829286230507E-16,0.));
#1133=DIRECTION('',(0.,1.,0.));
#1134=DIRECTION('',(0.,0.,1.));
#1135=DIRECTION('',(-1.49829286230507E-16,1.,0.));
#1136=DIRECTION('',(0.,1.,0.));
#1137=DIRECTION('',(0.,0.,1.));
#1138=DIRECTION('',(-1.49829286230507E-16,1.,0.));
#1139=DIRECTION('',(1.,1.49829286230507E-16,0.));
#1140=DIRECTION('',(-1.49829286230507E-16,1.,0.));
#1141=DIRECTION('',(1.,1.49829286230507E-16,0.));
#1142=DIRECTION('',(-1.49829286230507E-16,1.,0.));
#1143=DIRECTION('',(0.,-1.,0.));
#1144=DIRECTION('',(0.,0.,-1.));
#1145=DIRECTION('',(1.,1.49829286230507E-16,0.));
#1146=DIRECTION('',(-1.49829286230507E-16,1.,0.));
#1147=DIRECTION('',(-1.49829286230507E-16,1.,0.));
#1148=DIRECTION('',(-1.,-1.49829286230507E-16,0.));
#1149=DIRECTION('',(1.49829286230507E-16,-1.,0.));
#1150=DIRECTION('',(0.,-1.,0.));
#1151=DIRECTION('',(0.,0.,-1.));
#1152=DIRECTION('',(1.49829286230507E-16,-1.,0.));
#1153=DIRECTION('',(1.,1.49829286230507E-16,0.));
#1154=DIRECTION('',(-1.49829286230507E-16,1.,0.));
#1155=DIRECTION('',(1.,1.49829286230507E-16,0.));
#1156=DIRECTION('',(-1.49829286230507E-16,1.,0.));
#1157=DIRECTION('',(1.,1.49829286230507E-16,0.));
#1158=DIRECTION('',(-1.49829286230507E-16,1.,0.));
#1159=DIRECTION('',(-1.49829286230507E-16,1.,0.));
#1160=DIRECTION('',(-1.,-1.49829286230507E-16,0.));
#1161=DIRECTION('',(0.,-1.,0.));
#1162=DIRECTION('',(0.,0.,-1.));
#1163=DIRECTION('',(1.49829286230507E-16,-1.,0.));
#1164=DIRECTION('',(0.,-1.,0.));
#1165=DIRECTION('',(0.,0.,-1.));
#1166=DIRECTION('',(1.49829286230507E-16,-1.,0.));
#1167=DIRECTION('',(1.,1.49829286230507E-16,0.));
#1168=DIRECTION('',(-1.49829286230507E-16,1.,0.));
#1169=DIRECTION('',(1.,1.49829286230507E-16,0.));
#1170=DIRECTION('',(-1.49829286230507E-16,1.,0.));
#1171=DIRECTION('',(0.,1.,0.));
#1172=DIRECTION('',(0.,0.,1.));
#1173=DIRECTION('',(1.,1.49829286230507E-16,0.));
#1174=DIRECTION('',(-1.49829286230507E-16,1.,0.));
#1175=DIRECTION('',(-1.49829286230507E-16,1.,0.));
#1176=DIRECTION('',(-1.,-1.49829286230507E-16,0.));
#1177=DIRECTION('',(-1.49829286230507E-16,1.,0.));
#1178=DIRECTION('',(0.,1.,0.));
#1179=DIRECTION('',(0.,0.,1.));
#1180=DIRECTION('',(-1.49829286230507E-16,1.,0.));
#1181=DIRECTION('',(1.,1.49829286230507E-16,0.));
#1182=DIRECTION('',(-1.49829286230507E-16,1.,0.));
#1183=DIRECTION('',(1.,1.49829286230507E-16,0.));
#1184=DIRECTION('',(-1.49829286230507E-16,1.,0.));
#1185=DIRECTION('',(1.,1.49829286230507E-16,0.));
#1186=DIRECTION('',(-1.49829286230507E-16,1.,0.));
#1187=DIRECTION('',(0.,0.,-1.));
#1188=DIRECTION('',(-1.,0.,0.));
#1189=DIRECTION('',(1.49829286230507E-16,-1.,0.));
#1190=DIRECTION('',(-1.,-1.49829286230507E-16,0.));
#1191=DIRECTION('',(1.49829286230507E-16,-1.,0.));
#1192=DIRECTION('',(-1.,-1.49829286230507E-16,0.));
#1193=DIRECTION('',(-1.49829286230507E-16,1.,0.));
#1194=DIRECTION('',(-1.,-1.49829286230507E-16,0.));
#1195=DIRECTION('',(0.,0.,-1.));
#1196=DIRECTION('',(-1.,-1.49829286230507E-16,0.));
#1197=DIRECTION('',(0.,0.,-1.));
#1198=DIRECTION('',(0.,0.,-1.));
#1199=DIRECTION('',(-1.,0.,0.));
#1200=DIRECTION('',(1.49829286230507E-16,-1.,0.));
#1201=DIRECTION('',(-1.,-1.49829286230507E-16,0.));
#1202=DIRECTION('',(1.49829286230507E-16,-1.,0.));
#1203=DIRECTION('',(-1.49829286230507E-16,1.,0.));
#1204=DIRECTION('',(-1.,-1.49829286230507E-16,0.));
#1205=DIRECTION('',(0.,0.,-1.));
#1206=DIRECTION('',(-1.,-1.49829286230507E-16,0.));
#1207=DIRECTION('',(0.,0.,-1.));
#1208=DIRECTION('',(0.,0.,1.));
#1209=DIRECTION('',(1.,0.,0.));
#1210=DIRECTION('',(-1.49829286230507E-16,1.,0.));
#1211=DIRECTION('',(-1.,-1.49829286230507E-16,0.));
#1212=DIRECTION('',(-1.49829286230507E-16,1.,0.));
#1213=DIRECTION('',(-1.49829286230507E-16,1.,0.));
#1214=DIRECTION('',(-1.,-1.49829286230507E-16,0.));
#1215=DIRECTION('',(0.,0.,-1.));
#1216=DIRECTION('',(-1.,-1.49829286230507E-16,0.));
#1217=DIRECTION('',(0.,0.,-1.));
#1218=DIRECTION('',(0.,0.,-1.));
#1219=DIRECTION('',(-1.,0.,0.));
#1220=DIRECTION('',(1.49829286230507E-16,-1.,0.));
#1221=DIRECTION('',(-1.,-1.49829286230507E-16,0.));
#1222=DIRECTION('',(1.49829286230507E-16,-1.,0.));
#1223=DIRECTION('',(-1.,-1.49829286230507E-16,0.));
#1224=DIRECTION('',(1.49829286230507E-16,-1.,0.));
#1225=DIRECTION('',(1.,1.49829286230507E-16,0.));
#1226=DIRECTION('',(1.,1.49829286230507E-16,0.));
#1227=DIRECTION('',(-1.,-1.49829286230507E-16,0.));
#1228=DIRECTION('',(1.,1.49829286230507E-16,0.));
#1229=DIRECTION('',(-1.49829286230507E-16,1.,0.));
#1230=DIRECTION('',(0.,0.,1.));
#1231=DIRECTION('',(1.,0.,0.));
#1232=DIRECTION('',(-1.49829286230507E-16,1.,0.));
#1233=DIRECTION('',(-1.,-1.49829286230507E-16,0.));
#1234=DIRECTION('',(-1.49829286230507E-16,1.,0.));
#1235=DIRECTION('',(-1.49829286230507E-16,1.,0.));
#1236=DIRECTION('',(-1.,-1.49829286230507E-16,0.));
#1237=DIRECTION('',(0.,0.,-1.));
#1238=DIRECTION('',(-1.,-1.49829286230507E-16,0.));
#1239=DIRECTION('',(0.,0.,-1.));
#1240=DIRECTION('',(0.,0.,-1.));
#1241=DIRECTION('',(-1.,0.,0.));
#1242=DIRECTION('',(1.49829286230507E-16,-1.,0.));
#1243=DIRECTION('',(-1.,-1.49829286230507E-16,0.));
#1244=DIRECTION('',(1.49829286230507E-16,-1.,0.));
#1245=DIRECTION('',(-1.49829286230507E-16,1.,0.));
#1246=DIRECTION('',(-1.,-1.49829286230507E-16,0.));
#1247=DIRECTION('',(0.,0.,-1.));
#1248=DIRECTION('',(-1.,-1.49829286230507E-16,0.));
#1249=DIRECTION('',(0.,0.,-1.));
#1250=DIRECTION('',(0.,0.,-1.));
#1251=DIRECTION('',(-1.,0.,0.));
#1252=DIRECTION('',(1.49829286230507E-16,-1.,0.));
#1253=DIRECTION('',(-1.,-1.49829286230507E-16,0.));
#1254=DIRECTION('',(1.49829286230507E-16,-1.,0.));
#1255=DIRECTION('',(-1.49829286230507E-16,1.,0.));
#1256=DIRECTION('',(-1.,-1.49829286230507E-16,0.));
#1257=DIRECTION('',(0.,0.,-1.));
#1258=DIRECTION('',(-1.,-1.49829286230507E-16,0.));
#1259=DIRECTION('',(0.,0.,-1.));
#1260=DIRECTION('',(0.,0.,1.));
#1261=DIRECTION('',(1.,0.,0.));
#1262=DIRECTION('',(-1.49829286230507E-16,1.,0.));
#1263=DIRECTION('',(-1.,-1.49829286230507E-16,0.));
#1264=DIRECTION('',(-1.49829286230507E-16,1.,0.));
#1265=DIRECTION('',(-1.49829286230507E-16,1.,0.));
#1266=DIRECTION('',(-1.,-1.49829286230507E-16,0.));
#1267=DIRECTION('',(0.,0.,-1.));
#1268=DIRECTION('',(-1.,-1.49829286230507E-16,0.));
#1269=DIRECTION('',(0.,0.,-1.));
#1270=DIRECTION('',(0.,0.,1.));
#1271=DIRECTION('',(1.,0.,0.));
#1272=DIRECTION('',(-1.49829286230507E-16,1.,0.));
#1273=DIRECTION('',(-1.,-1.49829286230507E-16,0.));
#1274=DIRECTION('',(-1.49829286230507E-16,1.,0.));
#1275=DIRECTION('',(1.49829286230507E-16,-1.,0.));
#1276=DIRECTION('',(1.,1.49829286230507E-16,0.));
#1277=DIRECTION('',(0.,0.,1.));
#1278=DIRECTION('',(-1.,-1.49829286230507E-16,0.));
#1279=DIRECTION('',(0.,0.,1.));
#1280=DIRECTION('',(-1.,-1.49829286230507E-16,0.));
#1281=DIRECTION('',(1.49829286230507E-16,-1.,0.));
#1282=DIRECTION('',(1.,1.49829286230507E-16,0.));
#1283=DIRECTION('',(-1.49829286230507E-16,1.,0.));
#1284=DIRECTION('',(-1.,-1.49829286230507E-16,0.));
#1285=DIRECTION('',(1.,1.49829286230507E-16,0.));
#1286=DIRECTION('',(-1.49829286230507E-16,1.,0.));
#1287=DIRECTION('',(1.49829286230507E-16,-1.,0.));
#1288=DIRECTION('',(1.,1.49829286230507E-16,0.));
#1289=DIRECTION('',(0.,0.,1.));
#1290=DIRECTION('',(-1.,-1.49829286230507E-16,0.));
#1291=DIRECTION('',(0.,0.,1.));
#1292=DIRECTION('',(0.,0.,-1.));
#1293=DIRECTION('',(-1.,0.,0.));
#1294=DIRECTION('',(1.49829286230507E-16,-1.,0.));
#1295=DIRECTION('',(-1.,-1.49829286230507E-16,0.));
#1296=DIRECTION('',(1.49829286230507E-16,-1.,0.));
#1297=DIRECTION('',(-1.49829286230507E-16,1.,0.));
#1298=DIRECTION('',(-1.,-1.49829286230507E-16,0.));
#1299=DIRECTION('',(0.,0.,-1.));
#1300=DIRECTION('',(0.,0.,-1.));
#1301=DIRECTION('',(1.,1.49829286230507E-16,0.));
#1302=DIRECTION('',(-1.49829286230507E-16,1.,0.));
#1303=DIRECTION('',(1.,1.49829286230507E-16,0.));
#1304=DIRECTION('',(-1.49829286230507E-16,1.,0.));
#1305=DIRECTION('',(-1.49829286230507E-16,1.,0.));
#1306=DIRECTION('',(1.,1.49829286230507E-16,0.));
#1307=DIRECTION('',(-1.49829286230507E-16,1.,0.));
#1308=DIRECTION('',(-1.49829286230507E-16,1.,0.));
#1309=DIRECTION('',(1.,1.49829286230507E-16,0.));
#1310=DIRECTION('',(-1.49829286230507E-16,1.,0.));
#1311=DIRECTION('',(-1.49829286230507E-16,1.,0.));
#1312=DIRECTION('',(0.,0.,1.));
#1313=DIRECTION('',(-1.49829286230507E-16,1.,0.));
#1314=DIRECTION('',(0.,0.,1.));
#1315=DIRECTION('',(1.49829286230507E-16,-1.,0.));
#1316=DIRECTION('',(1.,1.49829286230507E-16,0.));
#1317=DIRECTION('',(-1.49829286230507E-16,1.,0.));
#1318=DIRECTION('',(1.,1.49829286230507E-16,0.));
#1319=DIRECTION('',(1.,1.49829286230507E-16,0.));
#1320=DIRECTION('',(0.,0.,-1.));
#1321=DIRECTION('',(-1.,0.,0.));
#1322=DIRECTION('',(1.,1.49829286230507E-16,0.));
#1323=DIRECTION('',(1.,1.49829286230507E-16,0.));
#1324=DIRECTION('',(-1.49829286230507E-16,1.,0.));
#1325=DIRECTION('',(1.,1.49829286230507E-16,0.));
#1326=DIRECTION('',(0.,0.,-1.));
#1327=DIRECTION('',(-1.,0.,0.));
#1328=DIRECTION('',(1.,1.49829286230507E-16,0.));
#1329=DIRECTION('',(1.,1.49829286230507E-16,0.));
#1330=DIRECTION('',(1.,1.49829286230507E-16,0.));
#1331=DIRECTION('',(-1.49829286230507E-16,1.,0.));
#1332=DIRECTION('',(1.,1.49829286230507E-16,0.));
#1333=DIRECTION('',(0.,0.,-1.));
#1334=DIRECTION('',(-1.,0.,0.));
#1335=DIRECTION('',(1.,1.49829286230507E-16,0.));
#1336=DIRECTION('',(0.,0.,-1.));
#1337=DIRECTION('',(-1.,0.,0.));
#1338=DIRECTION('',(1.,1.49829286230507E-16,0.));
#1339=DIRECTION('',(-1.49829286230507E-16,1.,0.));
#1340=DIRECTION('',(1.,1.49829286230507E-16,0.));
#1341=DIRECTION('',(-1.49829286230507E-16,1.,0.));
#1342=DIRECTION('',(-1.,-1.49829286230507E-16,0.));
#1343=DIRECTION('',(1.,1.49829286230507E-16,0.));
#1344=DIRECTION('',(0.,0.,1.));
#1345=DIRECTION('',(1.,0.,0.));
#1346=DIRECTION('',(0.,0.,-1.));
#1347=DIRECTION('',(-1.,0.,0.));
#1348=DIRECTION('',(1.,1.49829286230507E-16,0.));
#1349=DIRECTION('',(1.,1.49829286230507E-16,0.));
#1350=DIRECTION('',(-1.49829286230507E-16,1.,0.));
#1351=DIRECTION('',(-1.49829286230507E-16,1.,0.));
#1352=DIRECTION('',(-1.,-1.49829286230507E-16,0.));
#1353=DIRECTION('',(0.,0.,-1.));
#1354=DIRECTION('',(-1.,0.,0.));
#1355=DIRECTION('',(1.,1.49829286230507E-16,0.));
#1356=DIRECTION('',(-1.49829286230507E-16,1.,0.));
#1357=CARTESIAN_POINT('',(0.,0.,0.));
#1358=CARTESIAN_POINT('',(-0.151375553390593,0.063496,0.0235));
#1359=CARTESIAN_POINT('',(-0.152375553390593,0.063496,0.0235));
#1360=CARTESIAN_POINT('',(-0.152375552971634,0.0634959999994577,0.0236875));
#1361=CARTESIAN_POINT('',(-0.152375553390593,0.063496,0.0165));
#1362=CARTESIAN_POINT('',(-0.151375553390593,0.063496,0.0236875));
#1363=CARTESIAN_POINT('',(-0.151375553390593,0.064496,0.0236875));
#1364=CARTESIAN_POINT('',(-0.151375553390593,0.064496,0.0235));
#1365=CARTESIAN_POINT('',(-0.151375553390593,0.064496,0.0165));
#1366=CARTESIAN_POINT('',(-0.151375553390593,0.063496,0.0165));
#1367=CARTESIAN_POINT('',(-0.151375553390593,0.03634,0.0235));
#1368=CARTESIAN_POINT('',(-0.152375553390593,0.03634,0.0235));
#1369=CARTESIAN_POINT('',(-0.152375553390593,0.03634,0.0165));
#1370=CARTESIAN_POINT('',(-0.152375552971634,0.0363400000005423,0.0236875));
#1371=CARTESIAN_POINT('',(-0.151375553390593,0.03634,0.0165));
#1372=CARTESIAN_POINT('',(-0.151375553390593,0.03534,0.0165));
#1373=CARTESIAN_POINT('',(-0.151375553390593,0.03534,0.01925));
#1374=CARTESIAN_POINT('',(-0.151375553390593,0.03534,0.0236875));
#1375=CARTESIAN_POINT('',(-0.151375553390593,0.03634,0.0236875));
#1376=CARTESIAN_POINT('',(-0.151375553390593,0.0499180000000117,0.0235));
#1377=CARTESIAN_POINT('',(-0.152375553390593,0.0499180000000117,0.0235));
#1378=CARTESIAN_POINT('',(-0.152375553390593,0.0363412946651375,0.0236875));
#1379=CARTESIAN_POINT('',(-0.152375553390593,0.0634947053348859,0.0236875));
#1380=CARTESIAN_POINT('',(-0.152375553390593,0.0353406029239962,0.0236875));
#1381=CARTESIAN_POINT('',(-0.151375553390593,0.0353412058480042,0.0236875));
#1382=CARTESIAN_POINT('',(-0.151639695920832,0.0353412058480042,0.0236875));
#1383=CARTESIAN_POINT('',(-0.152157484354958,0.0355576329660403,0.0236875));
#1384=CARTESIAN_POINT('',(-0.152375215049315,0.0360792625236412,0.0236875));
#1385=CARTESIAN_POINT('',(-0.152375552552675,0.0363400000010846,0.0236875));
#1386=CARTESIAN_POINT('',(-0.151375553390593,0.0353412058479925,0.0236875));
#1387=CARTESIAN_POINT('',(-0.151375553390593,0.0499180000000117,0.0235));
#1388=CARTESIAN_POINT('',(-0.151375553390593,0.0644947941520075,0.0236875));
#1389=CARTESIAN_POINT('',(-0.151375553390593,0.0644947941520192,0.0236875));
#1390=CARTESIAN_POINT('',(-0.151639695920836,0.0644947941520192,0.0236875));
#1391=CARTESIAN_POINT('',(-0.15215748435497,0.0642783670339761,0.0236875));
#1392=CARTESIAN_POINT('',(-0.152375215049321,0.063756737476363,0.0236875));
#1393=CARTESIAN_POINT('',(-0.152375552552675,0.0634959999989154,0.0236875));
#1394=CARTESIAN_POINT('',(-0.152375552552675,0.0634959999989154,0.0236875));
#1395=CARTESIAN_POINT('',(-0.152375553111269,0.0634955684589736,0.0236875));
#1396=CARTESIAN_POINT('',(-0.152375553390593,0.0634951369042981,0.0236875));
#1397=CARTESIAN_POINT('',(-0.152375553390593,0.0634947053348859,0.0236875));
#1398=CARTESIAN_POINT('',(-0.151875553390593,0.049918,0.0191445));
#1399=CARTESIAN_POINT('',(-0.151875553390593,0.056418,0.0191445));
#1400=CARTESIAN_POINT('',(-0.152375553390593,0.056418,0.0191445));
#1401=CARTESIAN_POINT('',(-0.151875553390593,0.056418,0.0196445));
#1402=CARTESIAN_POINT('',(-0.152375553390593,0.049918,0.0191445));
#1403=CARTESIAN_POINT('',(-0.152375553390593,0.043418,0.0191445));
#1404=CARTESIAN_POINT('',(-0.151875553390593,0.043418,0.0191445));
#1405=CARTESIAN_POINT('',(-0.151875553390593,0.043418,0.0196445));
#1406=CARTESIAN_POINT('',(-0.151875553390593,0.053168,0.0196445));
#1407=CARTESIAN_POINT('',(-0.151875553390593,0.043418,0.0211445));
#1408=CARTESIAN_POINT('',(-0.152375553390593,0.043418,0.0211445));
#1409=CARTESIAN_POINT('',(-0.152375553390593,0.043418,0.0231445));
#1410=CARTESIAN_POINT('',(-0.151875553390593,0.043418,0.0231445));
#1411=CARTESIAN_POINT('',(-0.151875553390593,0.043418,0.0226445));
#1412=CARTESIAN_POINT('',(-0.151875553390593,0.043418,0.0211445));
#1413=CARTESIAN_POINT('',(-0.151875553390593,0.049918,0.0231445));
#1414=CARTESIAN_POINT('',(-0.152375553390593,0.049918,0.0231445));
#1415=CARTESIAN_POINT('',(-0.152375553390593,0.056418,0.0231445));
#1416=CARTESIAN_POINT('',(-0.151875553390593,0.056418,0.0231445));
#1417=CARTESIAN_POINT('',(-0.151875553390593,0.056418,0.0226445));
#1418=CARTESIAN_POINT('',(-0.151875553390593,0.049918,0.0226445));
#1419=CARTESIAN_POINT('',(-0.151875553390593,0.056418,0.0211445));
#1420=CARTESIAN_POINT('',(-0.152375553390593,0.056418,0.0211445));
#1421=CARTESIAN_POINT('',(-0.151875553390593,0.056418,0.0211445));
#1422=CARTESIAN_POINT('',(-0.151875553390593,0.049918,0.02611125));
#1423=CARTESIAN_POINT('',(-0.151875553390593,0.056418,0.02611125));
#1424=CARTESIAN_POINT('',(-0.152375553390593,0.056418,0.02611125));
#1425=CARTESIAN_POINT('',(-0.151875553390593,0.056418,0.02661125));
#1426=CARTESIAN_POINT('',(-0.152375553390593,0.049918,0.02611125));
#1427=CARTESIAN_POINT('',(-0.152375553390593,0.043418,0.02611125));
#1428=CARTESIAN_POINT('',(-0.151875553390593,0.043418,0.02611125));
#1429=CARTESIAN_POINT('',(-0.151875553390593,0.043418,0.02661125));
#1430=CARTESIAN_POINT('',(-0.151875553390593,0.053168,0.02661125));
#1431=CARTESIAN_POINT('',(-0.151875553390593,0.043418,0.02811125));
#1432=CARTESIAN_POINT('',(-0.152375553390593,0.043418,0.02811125));
#1433=CARTESIAN_POINT('',(-0.152375553390593,0.043418,0.03011125));
#1434=CARTESIAN_POINT('',(-0.151875553390593,0.043418,0.03011125));
#1435=CARTESIAN_POINT('',(-0.151875553390593,0.043418,0.02961125));
#1436=CARTESIAN_POINT('',(-0.151875553390593,0.043418,0.02811125));
#1437=CARTESIAN_POINT('',(-0.151875553390593,0.049918,0.03011125));
#1438=CARTESIAN_POINT('',(-0.152375553390593,0.049918,0.03011125));
#1439=CARTESIAN_POINT('',(-0.152375553390593,0.056418,0.03011125));
#1440=CARTESIAN_POINT('',(-0.151875553390593,0.056418,0.03011125));
#1441=CARTESIAN_POINT('',(-0.151875553390593,0.056418,0.02961125));
#1442=CARTESIAN_POINT('',(-0.151875553390593,0.049918,0.02961125));
#1443=CARTESIAN_POINT('',(-0.151875553390593,0.056418,0.02811125));
#1444=CARTESIAN_POINT('',(-0.152375553390593,0.056418,0.02811125));
#1445=CARTESIAN_POINT('',(-0.151875553390593,0.056418,0.02811125));
#1446=CARTESIAN_POINT('',(-0.147875553390593,0.049918,0.0191445));
#1447=CARTESIAN_POINT('',(-0.147875553390593,0.043418,0.0191445));
#1448=CARTESIAN_POINT('',(-0.147375553390593,0.043418,0.0191445));
#1449=CARTESIAN_POINT('',(-0.147875553390593,0.043418,0.0196445));
#1450=CARTESIAN_POINT('',(-0.147375553390593,0.049918,0.0191445));
#1451=CARTESIAN_POINT('',(-0.147375553390593,0.056418,0.0191445));
#1452=CARTESIAN_POINT('',(-0.147875553390593,0.056418,0.0191445));
#1453=CARTESIAN_POINT('',(-0.147875553390593,0.056418,0.0196445));
#1454=CARTESIAN_POINT('',(-0.147875553390593,0.049918,0.0196445));
#1455=CARTESIAN_POINT('',(-0.147875553390593,0.056418,0.0211445));
#1456=CARTESIAN_POINT('',(-0.147375553390593,0.056418,0.0211445));
#1457=CARTESIAN_POINT('',(-0.147375553390593,0.056418,0.0231445));
#1458=CARTESIAN_POINT('',(-0.147875553390593,0.056418,0.0231445));
#1459=CARTESIAN_POINT('',(-0.147875553390593,0.056418,0.0226445));
#1460=CARTESIAN_POINT('',(-0.147875553390593,0.056418,0.0211445));
#1461=CARTESIAN_POINT('',(-0.147875553390593,0.049918,0.0231445));
#1462=CARTESIAN_POINT('',(-0.147375553390593,0.049918,0.0231445));
#1463=CARTESIAN_POINT('',(-0.147375553390593,0.043418,0.0231445));
#1464=CARTESIAN_POINT('',(-0.147875553390593,0.043418,0.0231445));
#1465=CARTESIAN_POINT('',(-0.147875553390593,0.043418,0.0226445));
#1466=CARTESIAN_POINT('',(-0.147875553390593,0.053168,0.0226445));
#1467=CARTESIAN_POINT('',(-0.147875553390593,0.043418,0.0211445));
#1468=CARTESIAN_POINT('',(-0.147375553390593,0.043418,0.0211445));
#1469=CARTESIAN_POINT('',(-0.147875553390593,0.043418,0.0211445));
#1470=CARTESIAN_POINT('',(0.152124446609406,0.06252725,0.022));
#1471=CARTESIAN_POINT('',(-0.147375553390593,0.06252725,0.022));
#1472=CARTESIAN_POINT('',(-0.147375553390593,0.062621,0.022));
#1473=CARTESIAN_POINT('',(-0.147375553390593,0.0620585,0.022));
#1474=CARTESIAN_POINT('',(0.152124446609406,0.0620585,0.022));
#1475=CARTESIAN_POINT('',(0.152124446609406,0.0620585,0.022));
#1476=CARTESIAN_POINT('',(0.152124446609406,0.06252725,0.022));
#1477=CARTESIAN_POINT('',(0.152124446609406,0.062621,0.022));
#1478=CARTESIAN_POINT('',(0.152124446609406,0.062621,0.022));
#1479=CARTESIAN_POINT('',(0.152124446609406,0.0620585,0.021625));
#1480=CARTESIAN_POINT('',(-0.147375553390593,0.0620585,0.021625));
#1481=CARTESIAN_POINT('',(-0.147375553390593,0.0620585,0.02125));
#1482=CARTESIAN_POINT('',(0.152124446609406,0.0620585,0.02125));
#1483=CARTESIAN_POINT('',(0.152124446609406,0.0620585,0.02125));
#1484=CARTESIAN_POINT('',(0.152124446609406,0.0620585,0.021625));
#1485=CARTESIAN_POINT('',(0.152124446609406,0.062996,0.02125));
#1486=CARTESIAN_POINT('',(-0.147375553390593,0.062996,0.02125));
#1487=CARTESIAN_POINT('',(-0.147375553390593,0.0639335,0.02125));
#1488=CARTESIAN_POINT('',(0.152124446609406,0.0639335,0.02125));
#1489=CARTESIAN_POINT('',(0.152124446609406,0.0639335,0.02125));
#1490=CARTESIAN_POINT('',(0.152124446609406,0.062996,0.02125));
#1491=CARTESIAN_POINT('',(0.152124446609406,0.0639335,0.021625));
#1492=CARTESIAN_POINT('',(-0.147375553390593,0.0639335,0.021625));
#1493=CARTESIAN_POINT('',(-0.147375553390593,0.0639335,0.022));
#1494=CARTESIAN_POINT('',(0.152124446609406,0.0639335,0.022));
#1495=CARTESIAN_POINT('',(0.152124446609406,0.0639335,0.022));
#1496=CARTESIAN_POINT('',(0.152124446609406,0.0639335,0.021625));
#1497=CARTESIAN_POINT('',(0.152124446609406,0.063746,0.022));
#1498=CARTESIAN_POINT('',(-0.147375553390593,0.063746,0.022));
#1499=CARTESIAN_POINT('',(-0.147375553390593,0.063371,0.022));
#1500=CARTESIAN_POINT('',(0.152124446609406,0.063371,0.022));
#1501=CARTESIAN_POINT('',(0.152124446609406,0.063371,0.022));
#1502=CARTESIAN_POINT('',(0.152124446609406,0.063746,0.022));
#1503=CARTESIAN_POINT('',(0.152124446609406,0.063371,0.02209375));
#1504=CARTESIAN_POINT('',(-0.147375553390593,0.063371,0.02209375));
#1505=CARTESIAN_POINT('',(-0.147375553390593,0.063371,0.0236875));
#1506=CARTESIAN_POINT('',(0.152124446609406,0.063371,0.0236875));
#1507=CARTESIAN_POINT('',(0.152124446609406,0.063371,0.0236875));
#1508=CARTESIAN_POINT('',(0.152124446609406,0.063371,0.02209375));
#1509=CARTESIAN_POINT('',(0.152124446609406,0.0639328970760038,0.0236875));
#1510=CARTESIAN_POINT('',(-0.147375553390593,0.0639328970760038,0.0236875));
#1511=CARTESIAN_POINT('',(-0.147375553390593,0.0644947941520075,0.0236875));
#1512=CARTESIAN_POINT('',(0.152124446609406,0.0644947941520075,0.0236875));
#1513=CARTESIAN_POINT('',(0.152124446609406,0.0644947941520075,0.0236875));
#1514=CARTESIAN_POINT('',(0.152124446609406,0.0639328970760038,0.0236875));
#1515=CARTESIAN_POINT('',(0.152124446609406,0.0499180000000118,0.0235));
#1516=CARTESIAN_POINT('',(-0.152375553390593,0.0644947941520075,0.0236875));
#1517=CARTESIAN_POINT('',(-0.152375553390593,0.0353412058479925,0.0236875));
#1518=CARTESIAN_POINT('',(-0.147375553390593,0.0353412058479925,0.0236875));
#1519=CARTESIAN_POINT('',(0.152124446609406,0.0353412058479925,0.0236875));
#1520=CARTESIAN_POINT('',(0.152124446609406,0.0353412058479925,0.0236875));
#1521=CARTESIAN_POINT('',(0.152124446609406,0.0499180000000118,0.0235));
#1522=CARTESIAN_POINT('',(0.152124446609406,0.0359031029239963,0.0236875));
#1523=CARTESIAN_POINT('',(-0.147375553390593,0.0359031029239962,0.0236875));
#1524=CARTESIAN_POINT('',(-0.147375553390593,0.036465,0.0236875));
#1525=CARTESIAN_POINT('',(0.152124446609406,0.036465,0.0236875));
#1526=CARTESIAN_POINT('',(0.152124446609406,0.036465,0.0236875));
#1527=CARTESIAN_POINT('',(0.152124446609406,0.0359031029239963,0.0236875));
#1528=CARTESIAN_POINT('',(0.152124446609406,0.036465,0.02284375));
#1529=CARTESIAN_POINT('',(-0.147375553390593,0.036465,0.02284375));
#1530=CARTESIAN_POINT('',(-0.147375553390593,0.036465,0.022));
#1531=CARTESIAN_POINT('',(0.152124446609406,0.036465,0.022));
#1532=CARTESIAN_POINT('',(0.152124446609406,0.036465,0.022));
#1533=CARTESIAN_POINT('',(0.152124446609406,0.036465,0.02284375));
#1534=CARTESIAN_POINT('',(0.152124446609406,0.03637125,0.022));
#1535=CARTESIAN_POINT('',(-0.147375553390593,0.03637125,0.022));
#1536=CARTESIAN_POINT('',(-0.147375553390593,0.0359025,0.022));
#1537=CARTESIAN_POINT('',(0.152124446609406,0.0359025,0.022));
#1538=CARTESIAN_POINT('',(0.152124446609406,0.0359025,0.022));
#1539=CARTESIAN_POINT('',(0.152124446609406,0.03637125,0.022));
#1540=CARTESIAN_POINT('',(0.152124446609406,0.0359025,0.021625));
#1541=CARTESIAN_POINT('',(-0.147375553390593,0.0359025,0.021625));
#1542=CARTESIAN_POINT('',(-0.147375553390593,0.0359025,0.02125));
#1543=CARTESIAN_POINT('',(0.152124446609406,0.0359025,0.02125));
#1544=CARTESIAN_POINT('',(0.152124446609406,0.0359025,0.02125));
#1545=CARTESIAN_POINT('',(0.152124446609406,0.0359025,0.021625));
#1546=CARTESIAN_POINT('',(0.152124446609406,0.03684,0.02125));
#1547=CARTESIAN_POINT('',(-0.147375553390593,0.03684,0.02125));
#1548=CARTESIAN_POINT('',(-0.147375553390593,0.0377775,0.02125));
#1549=CARTESIAN_POINT('',(0.152124446609406,0.0377775,0.02125));
#1550=CARTESIAN_POINT('',(0.152124446609406,0.0377775,0.02125));
#1551=CARTESIAN_POINT('',(0.152124446609406,0.03684,0.02125));
#1552=CARTESIAN_POINT('',(0.152124446609406,0.0377775,0.021625));
#1553=CARTESIAN_POINT('',(-0.147375553390593,0.0377775,0.021625));
#1554=CARTESIAN_POINT('',(-0.147375553390593,0.0377775,0.022));
#1555=CARTESIAN_POINT('',(0.152124446609406,0.0377775,0.022));
#1556=CARTESIAN_POINT('',(0.152124446609406,0.0377775,0.022));
#1557=CARTESIAN_POINT('',(0.152124446609406,0.0377775,0.021625));
#1558=CARTESIAN_POINT('',(0.152124446609406,0.03759,0.022));
#1559=CARTESIAN_POINT('',(-0.147375553390593,0.03759,0.022));
#1560=CARTESIAN_POINT('',(-0.147375553390593,0.037215,0.022));
#1561=CARTESIAN_POINT('',(0.152124446609406,0.037215,0.022));
#1562=CARTESIAN_POINT('',(0.152124446609406,0.037215,0.022));
#1563=CARTESIAN_POINT('',(0.152124446609406,0.03759,0.022));
#1564=CARTESIAN_POINT('',(0.152124446609406,0.037215,0.02284375));
#1565=CARTESIAN_POINT('',(-0.147375553390593,0.037215,0.02284375));
#1566=CARTESIAN_POINT('',(-0.147375553390593,0.037215,0.0236875));
#1567=CARTESIAN_POINT('',(0.152124446609406,0.037215,0.0236875));
#1568=CARTESIAN_POINT('',(0.152124446609406,0.037215,0.0236875));
#1569=CARTESIAN_POINT('',(0.152124446609406,0.037215,0.02284375));
#1570=CARTESIAN_POINT('',(0.152124446609406,0.0377775,0.0236875));
#1571=CARTESIAN_POINT('',(-0.147375553390593,0.0377775,0.0236875));
#1572=CARTESIAN_POINT('',(-0.147375553390593,0.03834,0.0236875));
#1573=CARTESIAN_POINT('',(0.152124446609406,0.03834,0.0236875));
#1574=CARTESIAN_POINT('',(0.152124446609406,0.03834,0.0236875));
#1575=CARTESIAN_POINT('',(0.152124446609406,0.0377775,0.0236875));
#1576=CARTESIAN_POINT('',(0.152124446609406,0.03834,0.02359375));
#1577=CARTESIAN_POINT('',(-0.147375553390593,0.03834,0.02359375));
#1578=CARTESIAN_POINT('',(-0.147375553390593,0.03834,0.0235));
#1579=CARTESIAN_POINT('',(0.152124446609406,0.03834,0.0235));
#1580=CARTESIAN_POINT('',(0.152124446609406,0.03834,0.0235));
#1581=CARTESIAN_POINT('',(0.152124446609406,0.03834,0.02359375));
#1582=CARTESIAN_POINT('',(0.152124446609406,0.049918,0.0235));
#1583=CARTESIAN_POINT('',(-0.147375553390593,0.049918,0.0235));
#1584=CARTESIAN_POINT('',(-0.147375553390593,0.061496,0.0235));
#1585=CARTESIAN_POINT('',(0.152124446609406,0.061496,0.0235));
#1586=CARTESIAN_POINT('',(0.152124446609406,0.061496,0.0235));
#1587=CARTESIAN_POINT('',(0.152124446609406,0.049918,0.0235));
#1588=CARTESIAN_POINT('',(0.152124446609406,0.061496,0.02359375));
#1589=CARTESIAN_POINT('',(-0.147375553390593,0.061496,0.02359375));
#1590=CARTESIAN_POINT('',(-0.147375553390593,0.061496,0.0236875));
#1591=CARTESIAN_POINT('',(0.152124446609406,0.061496,0.0236875));
#1592=CARTESIAN_POINT('',(0.152124446609406,0.061496,0.0236875));
#1593=CARTESIAN_POINT('',(0.152124446609406,0.061496,0.02359375));
#1594=CARTESIAN_POINT('',(0.152124446609406,0.0620585,0.0236875));
#1595=CARTESIAN_POINT('',(-0.147375553390593,0.0620585,0.0236875));
#1596=CARTESIAN_POINT('',(-0.147375553390593,0.062621,0.0236875));
#1597=CARTESIAN_POINT('',(0.152124446609406,0.062621,0.0236875));
#1598=CARTESIAN_POINT('',(0.152124446609406,0.062621,0.0236875));
#1599=CARTESIAN_POINT('',(0.152124446609406,0.0620585,0.0236875));
#1600=CARTESIAN_POINT('',(0.152124446609406,0.062621,0.02284375));
#1601=CARTESIAN_POINT('',(-0.147375553390593,0.062621,0.02284375));
#1602=CARTESIAN_POINT('',(0.152124446609406,0.062621,0.02284375));
#1603=CARTESIAN_POINT('',(0.152124446609406,0.049918,0.0235));
#1604=CARTESIAN_POINT('',(-0.147375553390593,0.049918,0.0235));
#1605=CARTESIAN_POINT('',(-0.147375553390593,0.053168,0.02661125));
#1606=CARTESIAN_POINT('',(-0.147375553390593,0.043418,0.02661125));
#1607=CARTESIAN_POINT('',(-0.147375553390593,0.056418,0.02661125));
#1608=CARTESIAN_POINT('',(-0.147375553390593,0.043418,0.02811125));
#1609=CARTESIAN_POINT('',(-0.147375553390593,0.043418,0.02961125));
#1610=CARTESIAN_POINT('',(-0.147375553390593,0.053168,0.02961125));
#1611=CARTESIAN_POINT('',(-0.147375553390593,0.056418,0.02961125));
#1612=CARTESIAN_POINT('',(-0.147375553390593,0.056418,0.02811125));
#1613=CARTESIAN_POINT('',(-0.147375553390593,0.0353406029239962,0.0236875));
#1614=CARTESIAN_POINT('',(-0.147375553390593,0.03534,0.0236875));
#1615=CARTESIAN_POINT('',(-0.147375553390593,0.03534,0.01925));
#1616=CARTESIAN_POINT('',(-0.147375553390593,0.03534,0.0165));
#1617=CARTESIAN_POINT('',(-0.147375553390593,0.0621007094866752,0.0165));
#1618=CARTESIAN_POINT('',(-0.147375553390593,0.064496,0.0165));
#1619=CARTESIAN_POINT('',(-0.147375553390593,0.064496,0.01925));
#1620=CARTESIAN_POINT('',(-0.147375553390593,0.064496,0.0236875));
#1621=CARTESIAN_POINT('',(-0.147375553390593,0.0644953970760037,0.0236875));
#1622=CARTESIAN_POINT('',(-0.152375553390593,0.043418,0.0211445));
#1623=CARTESIAN_POINT('',(-0.152375553390593,0.043418,0.0226445));
#1624=CARTESIAN_POINT('',(-0.152375553390593,0.043418,0.0196445));
#1625=CARTESIAN_POINT('',(-0.152375553390593,0.053168,0.0226445));
#1626=CARTESIAN_POINT('',(-0.152375553390593,0.056418,0.0226445));
#1627=CARTESIAN_POINT('',(-0.152375553390593,0.056418,0.0211445));
#1628=CARTESIAN_POINT('',(-0.152375553390593,0.056418,0.0196445));
#1629=CARTESIAN_POINT('',(-0.152375553390593,0.053168,0.02661125));
#1630=CARTESIAN_POINT('',(-0.152375553390593,0.056418,0.02661125));
#1631=CARTESIAN_POINT('',(-0.152375553390593,0.043418,0.02661125));
#1632=CARTESIAN_POINT('',(-0.152375553390593,0.043418,0.02811125));
#1633=CARTESIAN_POINT('',(-0.152375553390593,0.043418,0.02961125));
#1634=CARTESIAN_POINT('',(-0.152375553390593,0.053168,0.02961125));
#1635=CARTESIAN_POINT('',(-0.152375553390593,0.056418,0.02961125));
#1636=CARTESIAN_POINT('',(-0.152375553390593,0.0621007094866752,0.0165));
#1637=CARTESIAN_POINT('',(-0.152375553390593,0.03534,0.0165));
#1638=CARTESIAN_POINT('',(-0.152375553390593,0.0621007094866752,0.0165));
#1639=CARTESIAN_POINT('',(-0.152375553390593,0.064496,0.0165));
#1640=CARTESIAN_POINT('',(-0.152375553390593,0.064496,0.01925));
#1641=CARTESIAN_POINT('',(-0.152375553390593,0.064496,0.0236875));
#1642=CARTESIAN_POINT('',(-0.152375553390593,0.0644953970760037,0.0236875));
#1643=CARTESIAN_POINT('',(-0.152375553390593,0.0353406029239962,0.0236875));
#1644=CARTESIAN_POINT('',(-0.152375553390593,0.03534,0.0236875));
#1645=CARTESIAN_POINT('',(-0.152375553390593,0.056418,0.02811125));
#1646=CARTESIAN_POINT('',(-0.152375553390593,0.03534,0.01925));
#1647=CARTESIAN_POINT('',(-0.152375553390593,0.053168,0.0196445));
#1648=CARTESIAN_POINT('',(-0.152375553390593,0.049918,0.0235));
#1649=MECHANICAL_DESIGN_GEOMETRIC_PRESENTATION_REPRESENTATION('',(#978),
#1650);
#1650=(
GEOMETRIC_REPRESENTATION_CONTEXT(3)
GLOBAL_UNCERTAINTY_ASSIGNED_CONTEXT((#1651))
GLOBAL_UNIT_ASSIGNED_CONTEXT((#1654,#1653,#1652))
REPRESENTATION_CONTEXT('Cover','TOP_LEVEL_ASSEMBLY_PART')
);
#1651=UNCERTAINTY_MEASURE_WITH_UNIT(LENGTH_MEASURE(2.E-5),#1654,
'DISTANCE_ACCURACY_VALUE','Maximum Tolerance applied to model');
#1652=(
NAMED_UNIT(*)
SI_UNIT($,.STERADIAN.)
SOLID_ANGLE_UNIT()
);
#1653=(
NAMED_UNIT(*)
PLANE_ANGLE_UNIT()
SI_UNIT($,.RADIAN.)
);
#1654=(
LENGTH_UNIT()
NAMED_UNIT(*)
SI_UNIT($,.METRE.)
);
#1655=PRODUCT_DEFINITION_SHAPE('','',#1656);
#1656=PRODUCT_DEFINITION('','',#1658,#1657);
#1657=PRODUCT_DEFINITION_CONTEXT('',#1664,'design');
#1658=PRODUCT_DEFINITION_FORMATION_WITH_SPECIFIED_SOURCE('','',#1660,
 .NOT_KNOWN.);
#1659=PRODUCT_RELATED_PRODUCT_CATEGORY('','',(#1660));
#1660=PRODUCT('Cover','Cover','Cover',(#1662));
#1661=PRODUCT_CATEGORY('','');
#1662=PRODUCT_CONTEXT('',#1664,'mechanical');
#1663=APPLICATION_PROTOCOL_DEFINITION('international standard',
'ap242_managed_model_based_3d_engineering',2011,#1664);
#1664=APPLICATION_CONTEXT('managed model based 3d engineering');
ENDSEC;
END-ISO-10303-21;
