ISO-10303-21;
HEADER;
/* Generated by software containing ST-Developer
 * from STEP Tools, Inc. (www.steptools.com) 
 */
/* OPTION: using custom renumber hook */

FILE_DESCRIPTION(
/* description */ ('STEP AP242',
'CAx-IF Rec.Pracs.---Representation and Presentation of Product Manufa
cturing Information (PMI)---4.0---2014-10-13',
'CAx-IF Rec.Pracs.---3D Tessellated Geometry---0.4---2014-09-14','2;1'),

/* implementation_level */ '2;1');

FILE_NAME(
/* name */ '68807acec3d0d75df4f6d29a',
/* time_stamp */ '2025-07-23T06:01:51Z',
/* author */ (''),
/* organization */ (''),
/* preprocessor_version */ 'ST-DEVELOPER v20',
/* originating_system */ 'ONSHAPE BY PTC INC, 1.201',
/* authorisation */ '  ');

FILE_SCHEMA (('AP242_MANAGED_MODEL_BASED_3D_ENGINEERING_MIM_LF { 1 0 10303 442 1 1 4 }'));
ENDSEC;

DATA;
#10=SHAPE_REPRESENTATION_RELATIONSHIP('','',#111,#11);
#11=ADVANCED_BREP_SHAPE_REPRESENTATION('',(#109),#189);
#12=CONICAL_SURFACE('',#124,0.0027,0.78539816339745);
#13=B_SPLINE_CURVE_WITH_KNOTS('',3,(#170,#171,#172,#173),.UNSPECIFIED.,
 .F.,.F.,(4,4),(0.,0.000463321425001965),.UNSPECIFIED.);
#14=B_SPLINE_CURVE_WITH_KNOTS('',3,(#177,#178,#179,#180),.UNSPECIFIED.,
 .F.,.F.,(4,4),(1.7347234759768E-18,0.000463321425001964),.UNSPECIFIED.);
#15=CYLINDRICAL_SURFACE('',#116,0.0055);
#16=CYLINDRICAL_SURFACE('',#122,0.003);
#17=LINE('',#162,#21);
#18=LINE('',#168,#22);
#19=LINE('',#175,#23);
#20=LINE('',#182,#24);
#21=VECTOR('',#133,1.);
#22=VECTOR('',#142,1.);
#23=VECTOR('',#143,1.);
#24=VECTOR('',#144,1.);
#25=ORIENTED_EDGE('',*,*,#47,.T.);
#26=ORIENTED_EDGE('',*,*,#48,.F.);
#27=ORIENTED_EDGE('',*,*,#49,.T.);
#28=ORIENTED_EDGE('',*,*,#50,.T.);
#29=ORIENTED_EDGE('',*,*,#47,.F.);
#30=ORIENTED_EDGE('',*,*,#50,.F.);
#31=ORIENTED_EDGE('',*,*,#51,.T.);
#32=ORIENTED_EDGE('',*,*,#52,.F.);
#33=ORIENTED_EDGE('',*,*,#53,.F.);
#34=ORIENTED_EDGE('',*,*,#54,.F.);
#35=ORIENTED_EDGE('',*,*,#55,.F.);
#36=ORIENTED_EDGE('',*,*,#49,.F.);
#37=ORIENTED_EDGE('',*,*,#53,.T.);
#38=ORIENTED_EDGE('',*,*,#56,.F.);
#39=ORIENTED_EDGE('',*,*,#48,.T.);
#40=ORIENTED_EDGE('',*,*,#55,.T.);
#41=ORIENTED_EDGE('',*,*,#57,.F.);
#42=ORIENTED_EDGE('',*,*,#51,.F.);
#43=ORIENTED_EDGE('',*,*,#56,.T.);
#44=ORIENTED_EDGE('',*,*,#52,.T.);
#45=ORIENTED_EDGE('',*,*,#57,.T.);
#46=ORIENTED_EDGE('',*,*,#54,.T.);
#47=EDGE_CURVE('',#58,#58,#66,.T.);
#48=EDGE_CURVE('',#59,#60,#67,.T.);
#49=EDGE_CURVE('',#59,#60,#17,.T.);
#50=EDGE_CURVE('',#61,#61,#68,.T.);
#51=EDGE_CURVE('',#59,#62,#18,.T.);
#52=EDGE_CURVE('',#63,#62,#13,.T.);
#53=EDGE_CURVE('',#64,#63,#19,.T.);
#54=EDGE_CURVE('',#65,#64,#14,.T.);
#55=EDGE_CURVE('',#60,#65,#20,.T.);
#56=EDGE_CURVE('',#64,#63,#69,.T.);
#57=EDGE_CURVE('',#62,#65,#70,.T.);
#58=VERTEX_POINT('',#158);
#59=VERTEX_POINT('',#160);
#60=VERTEX_POINT('',#161);
#61=VERTEX_POINT('',#165);
#62=VERTEX_POINT('',#169);
#63=VERTEX_POINT('',#174);
#64=VERTEX_POINT('',#176);
#65=VERTEX_POINT('',#181);
#66=CIRCLE('',#114,0.0055);
#67=CIRCLE('',#115,0.003);
#68=CIRCLE('',#117,0.0055);
#69=CIRCLE('',#121,0.0027);
#70=CIRCLE('',#123,0.003);
#71=EDGE_LOOP('',(#25));
#72=EDGE_LOOP('',(#26,#27));
#73=EDGE_LOOP('',(#28));
#74=EDGE_LOOP('',(#29));
#75=EDGE_LOOP('',(#30));
#76=EDGE_LOOP('',(#31,#32,#33,#34,#35,#36));
#77=EDGE_LOOP('',(#37,#38));
#78=EDGE_LOOP('',(#39,#40,#41,#42));
#79=EDGE_LOOP('',(#43,#44,#45,#46));
#80=FACE_BOUND('',#71,.T.);
#81=FACE_BOUND('',#72,.T.);
#82=FACE_BOUND('',#73,.T.);
#83=FACE_BOUND('',#74,.T.);
#84=FACE_BOUND('',#75,.T.);
#85=FACE_BOUND('',#76,.T.);
#86=FACE_BOUND('',#77,.T.);
#87=FACE_BOUND('',#78,.T.);
#88=FACE_BOUND('',#79,.T.);
#89=PLANE('',#113);
#90=PLANE('',#118);
#91=PLANE('',#119);
#92=PLANE('',#120);
#93=ADVANCED_FACE('',(#80,#81),#89,.T.);
#94=ADVANCED_FACE('',(#82,#83),#15,.T.);
#95=ADVANCED_FACE('',(#84),#90,.F.);
#96=ADVANCED_FACE('',(#85),#91,.T.);
#97=ADVANCED_FACE('',(#86),#92,.F.);
#98=ADVANCED_FACE('',(#87),#16,.F.);
#99=ADVANCED_FACE('',(#88),#12,.F.);
#100=CLOSED_SHELL('',(#93,#94,#95,#96,#97,#98,#99));
#101=STYLED_ITEM('',(#102),#109);
#102=PRESENTATION_STYLE_ASSIGNMENT((#103));
#103=SURFACE_STYLE_USAGE(.BOTH.,#104);
#104=SURFACE_SIDE_STYLE('',(#105));
#105=SURFACE_STYLE_FILL_AREA(#106);
#106=FILL_AREA_STYLE('',(#107));
#107=FILL_AREA_STYLE_COLOUR('',#108);
#108=COLOUR_RGB('',0.501960784313726,0.501960784313726,0.501960784313726);
#109=MANIFOLD_SOLID_BREP('Knob',#100);
#110=SHAPE_DEFINITION_REPRESENTATION(#194,#111);
#111=SHAPE_REPRESENTATION('Knob',(#112),#189);
#112=AXIS2_PLACEMENT_3D('',#155,#125,#126);
#113=AXIS2_PLACEMENT_3D('',#156,#127,#128);
#114=AXIS2_PLACEMENT_3D('',#157,#129,#130);
#115=AXIS2_PLACEMENT_3D('',#159,#131,#132);
#116=AXIS2_PLACEMENT_3D('',#163,#134,#135);
#117=AXIS2_PLACEMENT_3D('',#164,#136,#137);
#118=AXIS2_PLACEMENT_3D('',#166,#138,#139);
#119=AXIS2_PLACEMENT_3D('',#167,#140,#141);
#120=AXIS2_PLACEMENT_3D('',#183,#145,#146);
#121=AXIS2_PLACEMENT_3D('',#184,#147,#148);
#122=AXIS2_PLACEMENT_3D('',#185,#149,#150);
#123=AXIS2_PLACEMENT_3D('',#186,#151,#152);
#124=AXIS2_PLACEMENT_3D('',#187,#153,#154);
#125=DIRECTION('',(0.,0.,1.));
#126=DIRECTION('',(1.,0.,0.));
#127=DIRECTION('',(0.,-1.,0.));
#128=DIRECTION('',(1.,0.,0.));
#129=DIRECTION('',(0.,-1.,0.));
#130=DIRECTION('',(0.,0.,-1.));
#131=DIRECTION('',(0.,-1.,0.));
#132=DIRECTION('',(0.,0.,-1.));
#133=DIRECTION('',(0.,0.,1.));
#134=DIRECTION('',(0.,-1.,0.));
#135=DIRECTION('',(0.,0.,-1.));
#136=DIRECTION('',(0.,-1.,0.));
#137=DIRECTION('',(0.,0.,-1.));
#138=DIRECTION('',(0.,-1.,0.));
#139=DIRECTION('',(1.,0.,0.));
#140=DIRECTION('',(1.,0.,0.));
#141=DIRECTION('',(0.,0.,-1.));
#142=DIRECTION('',(0.,1.,0.));
#143=DIRECTION('',(0.,0.,-1.));
#144=DIRECTION('',(0.,1.,0.));
#145=DIRECTION('',(0.,1.,0.));
#146=DIRECTION('',(0.,0.,1.));
#147=DIRECTION('',(0.,1.,0.));
#148=DIRECTION('',(0.,0.,1.));
#149=DIRECTION('',(0.,-1.,0.));
#150=DIRECTION('',(0.,0.,-1.));
#151=DIRECTION('',(0.,-1.,0.));
#152=DIRECTION('',(0.,0.,1.));
#153=DIRECTION('',(0.,-1.,0.));
#154=DIRECTION('',(0.,0.,-1.));
#155=CARTESIAN_POINT('',(0.,0.,0.));
#156=CARTESIAN_POINT('',(0.,-0.001,0.));
#157=CARTESIAN_POINT('',(0.,-0.001,3.36777869765522E-19));
#158=CARTESIAN_POINT('',(0.,-0.001,-0.0055));
#159=CARTESIAN_POINT('',(0.,-0.001,0.));
#160=CARTESIAN_POINT('',(-0.0015,-0.001,-0.00259807621135332));
#161=CARTESIAN_POINT('',(-0.0015,-0.001,0.00259807621135332));
#162=CARTESIAN_POINT('',(-0.0015,-0.001,0.));
#163=CARTESIAN_POINT('',(0.,0.011,3.36777869765522E-19));
#164=CARTESIAN_POINT('',(0.,0.011,3.36777869765522E-19));
#165=CARTESIAN_POINT('',(0.,0.011,-0.0055));
#166=CARTESIAN_POINT('',(0.,0.011,0.));
#167=CARTESIAN_POINT('',(-0.0015,-0.00730832691319598,0.));
#168=CARTESIAN_POINT('',(-0.0015,-0.00730832691319598,-0.00259807621135332));
#169=CARTESIAN_POINT('',(-0.0015,0.0051,-0.00259807621135332));
#170=CARTESIAN_POINT('',(-0.0015,0.0054,-0.00224499443206437));
#171=CARTESIAN_POINT('',(-0.0015,0.00530125960537035,-0.00236374709429476));
#172=CARTESIAN_POINT('',(-0.0015,0.00520110502386505,-0.00248133018586349));
#173=CARTESIAN_POINT('',(-0.0015,0.0051,-0.00259807621135332));
#174=CARTESIAN_POINT('',(-0.0015,0.0054,-0.00224499443206437));
#175=CARTESIAN_POINT('',(-0.0015,0.0054,0.));
#176=CARTESIAN_POINT('',(-0.0015,0.0054,0.00224499443206437));
#177=CARTESIAN_POINT('',(-0.0015,0.0051,0.00259807621135332));
#178=CARTESIAN_POINT('',(-0.0015,0.00520110502386505,0.00248133018586348));
#179=CARTESIAN_POINT('',(-0.0015,0.00530125960537035,0.00236374709429477));
#180=CARTESIAN_POINT('',(-0.0015,0.0054,0.00224499443206437));
#181=CARTESIAN_POINT('',(-0.0015,0.0051,0.00259807621135332));
#182=CARTESIAN_POINT('',(-0.0015,-0.00730832691319598,0.00259807621135332));
#183=CARTESIAN_POINT('',(0.,0.0054,0.));
#184=CARTESIAN_POINT('',(0.,0.0054,0.));
#185=CARTESIAN_POINT('',(0.,0.0054,0.));
#186=CARTESIAN_POINT('',(0.,0.0051,0.));
#187=CARTESIAN_POINT('',(0.,0.0054,0.));
#188=MECHANICAL_DESIGN_GEOMETRIC_PRESENTATION_REPRESENTATION('',(#101),
#189);
#189=(
GEOMETRIC_REPRESENTATION_CONTEXT(3)
GLOBAL_UNCERTAINTY_ASSIGNED_CONTEXT((#190))
GLOBAL_UNIT_ASSIGNED_CONTEXT((#193,#192,#191))
REPRESENTATION_CONTEXT('Knob','TOP_LEVEL_ASSEMBLY_PART')
);
#190=UNCERTAINTY_MEASURE_WITH_UNIT(LENGTH_MEASURE(1.E-6),#193,
'DISTANCE_ACCURACY_VALUE','Maximum Tolerance applied to model');
#191=(
NAMED_UNIT(*)
SI_UNIT($,.STERADIAN.)
SOLID_ANGLE_UNIT()
);
#192=(
NAMED_UNIT(*)
PLANE_ANGLE_UNIT()
SI_UNIT($,.RADIAN.)
);
#193=(
LENGTH_UNIT()
NAMED_UNIT(*)
SI_UNIT($,.METRE.)
);
#194=PRODUCT_DEFINITION_SHAPE('','',#195);
#195=PRODUCT_DEFINITION('','',#197,#196);
#196=PRODUCT_DEFINITION_CONTEXT('',#203,'design');
#197=PRODUCT_DEFINITION_FORMATION_WITH_SPECIFIED_SOURCE('','',#199,
 .NOT_KNOWN.);
#198=PRODUCT_RELATED_PRODUCT_CATEGORY('','',(#199));
#199=PRODUCT('Knob','Knob','Knob',(#201));
#200=PRODUCT_CATEGORY('','');
#201=PRODUCT_CONTEXT('',#203,'mechanical');
#202=APPLICATION_PROTOCOL_DEFINITION('international standard',
'ap242_managed_model_based_3d_engineering',2011,#203);
#203=APPLICATION_CONTEXT('managed model based 3d engineering');
ENDSEC;
END-ISO-10303-21;
