%TF.GenerationSoftware,KiCad,Pcbnew,9.0.4*%
%TF.CreationDate,2025-09-15T12:08:47+05:30*%
%TF.ProjectId,Mechanical-PicoBoard-W,4d656368-616e-4696-9361-6c2d5069636f,rev?*%
%TF.SameCoordinates,Original*%
%TF.FileFunction,Soldermask,Top*%
%TF.FilePolarity,Negative*%
%FSLAX46Y46*%
G04 Gerber Fmt 4.6, Leading zero omitted, Abs format (unit mm)*
G04 Created by KiCad (PCBNEW 9.0.4) date 2025-09-15 12:08:47*
%MOMM*%
%LPD*%
G01*
G04 APERTURE LIST*
G04 Aperture macros list*
%AMRoundRect*
0 Rectangle with rounded corners*
0 $1 Rounding radius*
0 $2 $3 $4 $5 $6 $7 $8 $9 X,Y pos of 4 corners*
0 Add a 4 corners polygon primitive as box body*
4,1,4,$2,$3,$4,$5,$6,$7,$8,$9,$2,$3,0*
0 Add four circle primitives for the rounded corners*
1,1,$1+$1,$2,$3*
1,1,$1+$1,$4,$5*
1,1,$1+$1,$6,$7*
1,1,$1+$1,$8,$9*
0 Add four rect primitives between the rounded corners*
20,1,$1+$1,$2,$3,$4,$5,0*
20,1,$1+$1,$4,$5,$6,$7,0*
20,1,$1+$1,$6,$7,$8,$9,0*
20,1,$1+$1,$8,$9,$2,$3,0*%
%AMFreePoly0*
4,1,37,0.603843,0.796157,0.639018,0.796157,0.711114,0.766294,0.766294,0.711114,0.796157,0.639018,0.796157,0.603843,0.800000,0.600000,0.800000,-0.600000,0.796157,-0.603843,0.796157,-0.639018,0.766294,-0.711114,0.711114,-0.766294,0.639018,-0.796157,0.603843,-0.796157,0.600000,-0.800000,0.000000,-0.800000,0.000000,-0.796148,-0.078414,-0.796148,-0.232228,-0.765552,-0.377117,-0.705537,
-0.507515,-0.618408,-0.618408,-0.507515,-0.705537,-0.377117,-0.765552,-0.232228,-0.796148,-0.078414,-0.796148,0.078414,-0.765552,0.232228,-0.705537,0.377117,-0.618408,0.507515,-0.507515,0.618408,-0.377117,0.705537,-0.232228,0.765552,-0.078414,0.796148,0.000000,0.796148,0.000000,0.800000,0.600000,0.800000,0.603843,0.796157,0.603843,0.796157,$1*%
%AMFreePoly1*
4,1,37,0.000000,0.796148,0.078414,0.796148,0.232228,0.765552,0.377117,0.705537,0.507515,0.618408,0.618408,0.507515,0.705537,0.377117,0.765552,0.232228,0.796148,0.078414,0.796148,-0.078414,0.765552,-0.232228,0.705537,-0.377117,0.618408,-0.507515,0.507515,-0.618408,0.377117,-0.705537,0.232228,-0.765552,0.078414,-0.796148,0.000000,-0.796148,0.000000,-0.800000,-0.600000,-0.800000,
-0.603843,-0.796157,-0.639018,-0.796157,-0.711114,-0.766294,-0.766294,-0.711114,-0.796157,-0.639018,-0.796157,-0.603843,-0.800000,-0.600000,-0.800000,0.600000,-0.796157,0.603843,-0.796157,0.639018,-0.766294,0.711114,-0.711114,0.766294,-0.639018,0.796157,-0.603843,0.796157,-0.600000,0.800000,0.000000,0.800000,0.000000,0.796148,0.000000,0.796148,$1*%
G04 Aperture macros list end*
%ADD10C,1.700000*%
%ADD11C,4.000000*%
%ADD12C,2.200000*%
%ADD13R,2.000000X2.000000*%
%ADD14C,2.000000*%
%ADD15R,3.200000X2.000000*%
%ADD16C,3.050000*%
%ADD17RoundRect,0.200000X0.600000X-0.600000X0.600000X0.600000X-0.600000X0.600000X-0.600000X-0.600000X0*%
%ADD18C,1.600000*%
%ADD19FreePoly0,90.000000*%
%ADD20FreePoly1,90.000000*%
%ADD21C,2.390000*%
%ADD22C,3.450000*%
%ADD23RoundRect,0.250003X-3.499997X-2.999997X3.499997X-2.999997X3.499997X2.999997X-3.499997X2.999997X0*%
%ADD24RoundRect,0.250000X0.550000X-0.550000X0.550000X0.550000X-0.550000X0.550000X-0.550000X-0.550000X0*%
G04 APERTURE END LIST*
D10*
%TO.C,SW48*%
X105810000Y-112080625D03*
D11*
X110890000Y-112080625D03*
D10*
X115970000Y-112080625D03*
D12*
X113430000Y-107000625D03*
X107080000Y-109540625D03*
%TD*%
D10*
%TO.C,SW49*%
X124860000Y-112080625D03*
D11*
X129940000Y-112080625D03*
D10*
X135020000Y-112080625D03*
D12*
X132480000Y-107000625D03*
X126130000Y-109540625D03*
%TD*%
D10*
%TO.C,SW23*%
X167722500Y-73980625D03*
D11*
X172802500Y-73980625D03*
D10*
X177882500Y-73980625D03*
D12*
X175342500Y-68900625D03*
X168992500Y-71440625D03*
%TD*%
D13*
%TO.C,SW69*%
X241565000Y-128618125D03*
D14*
X241565000Y-133618125D03*
X241565000Y-131118125D03*
D15*
X249065000Y-125518125D03*
X249065000Y-136718125D03*
D14*
X256065000Y-133618125D03*
X256065000Y-128618125D03*
%TD*%
D10*
%TO.C,SW19*%
X91522500Y-73980625D03*
D11*
X96602500Y-73980625D03*
D10*
X101682500Y-73980625D03*
D12*
X99142500Y-68900625D03*
X92792500Y-71440625D03*
%TD*%
D10*
%TO.C,SW20*%
X110572500Y-73980625D03*
D11*
X115652500Y-73980625D03*
D10*
X120732500Y-73980625D03*
D12*
X118192500Y-68900625D03*
X111842500Y-71440625D03*
%TD*%
D10*
%TO.C,SW67*%
X291547500Y-131130625D03*
D11*
X296627500Y-131130625D03*
D10*
X301707500Y-131130625D03*
D12*
X299167500Y-126050625D03*
X292817500Y-128590625D03*
%TD*%
D10*
%TO.C,SW8*%
X158197500Y-54930625D03*
D11*
X163277500Y-54930625D03*
D10*
X168357500Y-54930625D03*
D12*
X165817500Y-49850625D03*
X159467500Y-52390625D03*
%TD*%
D10*
%TO.C,SW63*%
X146291250Y-131130625D03*
D11*
X151371250Y-131130625D03*
D10*
X156451250Y-131130625D03*
D12*
X153911250Y-126050625D03*
X147561250Y-128590625D03*
%TD*%
D10*
%TO.C,SW1*%
X24847500Y-54930625D03*
D11*
X29927500Y-54930625D03*
D10*
X35007500Y-54930625D03*
D12*
X32467500Y-49850625D03*
X26117500Y-52390625D03*
%TD*%
D10*
%TO.C,SW66*%
X272497500Y-131130625D03*
D11*
X277577500Y-131130625D03*
D10*
X282657500Y-131130625D03*
D12*
X280117500Y-126050625D03*
X273767500Y-128590625D03*
%TD*%
D16*
%TO.C,SW45*%
X29933750Y-105080625D03*
D11*
X29933750Y-120320625D03*
D10*
X36753750Y-112080625D03*
D11*
X41833750Y-112080625D03*
D10*
X46913750Y-112080625D03*
D16*
X53733750Y-105080625D03*
D11*
X53733750Y-120320625D03*
D12*
X44373750Y-107000625D03*
X38023750Y-109540625D03*
%TD*%
D10*
%TO.C,SW36*%
X134385000Y-93030625D03*
D11*
X139465000Y-93030625D03*
D10*
X144545000Y-93030625D03*
D12*
X142005000Y-87950625D03*
X135655000Y-90490625D03*
%TD*%
D10*
%TO.C,SW12*%
X234397500Y-54930625D03*
D11*
X239477500Y-54930625D03*
D10*
X244557500Y-54930625D03*
D12*
X242017500Y-49850625D03*
X235667500Y-52390625D03*
%TD*%
D10*
%TO.C,SW30*%
X310597500Y-73980625D03*
D11*
X315677500Y-73980625D03*
D10*
X320757500Y-73980625D03*
D12*
X318217500Y-68900625D03*
X311867500Y-71440625D03*
%TD*%
D10*
%TO.C,SW38*%
X172485000Y-93030625D03*
D11*
X177565000Y-93030625D03*
D10*
X182645000Y-93030625D03*
D12*
X180105000Y-87950625D03*
X173755000Y-90490625D03*
%TD*%
D10*
%TO.C,SW34*%
X96285000Y-93030625D03*
D11*
X101365000Y-93030625D03*
D10*
X106445000Y-93030625D03*
D12*
X103905000Y-87950625D03*
X97555000Y-90490625D03*
%TD*%
D10*
%TO.C,SW22*%
X148672500Y-73980625D03*
D11*
X153752500Y-73980625D03*
D10*
X158832500Y-73980625D03*
D12*
X156292500Y-68900625D03*
X149942500Y-71440625D03*
%TD*%
D10*
%TO.C,SW37*%
X153435000Y-93030625D03*
D11*
X158515000Y-93030625D03*
D10*
X163595000Y-93030625D03*
D12*
X161055000Y-87950625D03*
X154705000Y-90490625D03*
%TD*%
D10*
%TO.C,SW15*%
X310597500Y-54930625D03*
D11*
X315677500Y-54930625D03*
D10*
X320757500Y-54930625D03*
D12*
X318217500Y-49850625D03*
X311867500Y-52390625D03*
%TD*%
D10*
%TO.C,SW5*%
X101047500Y-54930625D03*
D11*
X106127500Y-54930625D03*
D10*
X111207500Y-54930625D03*
D12*
X108667500Y-49850625D03*
X102317500Y-52390625D03*
%TD*%
D10*
%TO.C,SW47*%
X86760000Y-112080625D03*
D11*
X91840000Y-112080625D03*
D10*
X96920000Y-112080625D03*
D12*
X94380000Y-107000625D03*
X88030000Y-109540625D03*
%TD*%
D16*
%TO.C,SW14*%
X275196250Y-47930625D03*
D11*
X275196250Y-63170625D03*
D10*
X282016250Y-54930625D03*
D11*
X287096250Y-54930625D03*
D10*
X292176250Y-54930625D03*
D16*
X298996250Y-47930625D03*
D11*
X298996250Y-63170625D03*
D12*
X289636250Y-49850625D03*
X283286250Y-52390625D03*
%TD*%
D10*
%TO.C,SW3*%
X62947500Y-54930625D03*
D11*
X68027500Y-54930625D03*
D10*
X73107500Y-54930625D03*
D12*
X70567500Y-49850625D03*
X64217500Y-52390625D03*
%TD*%
D10*
%TO.C,SW13*%
X253447500Y-54930625D03*
D11*
X258527500Y-54930625D03*
D10*
X263607500Y-54930625D03*
D12*
X261067500Y-49850625D03*
X254717500Y-52390625D03*
%TD*%
D10*
%TO.C,SW58*%
X310597500Y-112080625D03*
D11*
X315677500Y-112080625D03*
D10*
X320757500Y-112080625D03*
D12*
X318217500Y-107000625D03*
X311867500Y-109540625D03*
%TD*%
D10*
%TO.C,SW25*%
X205822500Y-73980625D03*
D11*
X210902500Y-73980625D03*
D10*
X215982500Y-73980625D03*
D12*
X213442500Y-68900625D03*
X207092500Y-71440625D03*
%TD*%
D10*
%TO.C,SW50*%
X143910000Y-112080625D03*
D11*
X148990000Y-112080625D03*
D10*
X154070000Y-112080625D03*
D12*
X151530000Y-107000625D03*
X145180000Y-109540625D03*
%TD*%
D10*
%TO.C,SW59*%
X27228750Y-131130625D03*
D11*
X32308750Y-131130625D03*
D10*
X37388750Y-131130625D03*
D12*
X34848750Y-126050625D03*
X28498750Y-128590625D03*
%TD*%
D10*
%TO.C,SW29*%
X286785000Y-73980625D03*
D11*
X291865000Y-73980625D03*
D10*
X296945000Y-73980625D03*
D12*
X294405000Y-68900625D03*
X288055000Y-71440625D03*
%TD*%
D10*
%TO.C,SW44*%
X310597500Y-93030625D03*
D11*
X315677500Y-93030625D03*
D10*
X320757500Y-93030625D03*
D12*
X318217500Y-87950625D03*
X311867500Y-90490625D03*
%TD*%
D10*
%TO.C,SW6*%
X120097500Y-54930625D03*
D11*
X125177500Y-54930625D03*
D10*
X130257500Y-54930625D03*
D12*
X127717500Y-49850625D03*
X121367500Y-52390625D03*
%TD*%
D10*
%TO.C,SW46*%
X67710000Y-112080625D03*
D11*
X72790000Y-112080625D03*
D10*
X77870000Y-112080625D03*
D12*
X75330000Y-107000625D03*
X68980000Y-109540625D03*
%TD*%
D10*
%TO.C,SW9*%
X177247500Y-54930625D03*
D11*
X182327500Y-54930625D03*
D10*
X187407500Y-54930625D03*
D12*
X184867500Y-49850625D03*
X178517500Y-52390625D03*
%TD*%
D10*
%TO.C,SW51*%
X162960000Y-112080625D03*
D11*
X168040000Y-112080625D03*
D10*
X173120000Y-112080625D03*
D12*
X170580000Y-107000625D03*
X164230000Y-109540625D03*
%TD*%
D10*
%TO.C,SW31*%
X31991250Y-93030625D03*
D11*
X37071250Y-93030625D03*
D10*
X42151250Y-93030625D03*
D12*
X39611250Y-87950625D03*
X33261250Y-90490625D03*
%TD*%
D10*
%TO.C,SW68*%
X310597500Y-131130625D03*
D11*
X315677500Y-131130625D03*
D10*
X320757500Y-131130625D03*
D12*
X318217500Y-126050625D03*
X311867500Y-128590625D03*
%TD*%
D10*
%TO.C,SW24*%
X186772500Y-73980625D03*
D11*
X191852500Y-73980625D03*
D10*
X196932500Y-73980625D03*
D12*
X194392500Y-68900625D03*
X188042500Y-71440625D03*
%TD*%
D10*
%TO.C,SW57*%
X291547500Y-112080625D03*
D11*
X296627500Y-112080625D03*
D10*
X301707500Y-112080625D03*
D12*
X299167500Y-107000625D03*
X292817500Y-109540625D03*
%TD*%
D10*
%TO.C,SW53*%
X201060000Y-112080625D03*
D11*
X206140000Y-112080625D03*
D10*
X211220000Y-112080625D03*
D12*
X208680000Y-107000625D03*
X202330000Y-109540625D03*
%TD*%
D16*
%TO.C,SW43*%
X272821250Y-86030625D03*
D11*
X272821250Y-101270625D03*
D10*
X279641250Y-93030625D03*
D11*
X284721250Y-93030625D03*
D10*
X289801250Y-93030625D03*
D16*
X296621250Y-86030625D03*
D11*
X296621250Y-101270625D03*
D12*
X287261250Y-87950625D03*
X280911250Y-90490625D03*
%TD*%
D17*
%TO.C,A1*%
X43973750Y-39290625D03*
D18*
X46513750Y-39290625D03*
D19*
X49053750Y-39290625D03*
D18*
X51593750Y-39290625D03*
X54133750Y-39290625D03*
X56673750Y-39290625D03*
X59213750Y-39290625D03*
D19*
X61753750Y-39290625D03*
D18*
X64293750Y-39290625D03*
X66833750Y-39290625D03*
X69373750Y-39290625D03*
X71913750Y-39290625D03*
D19*
X74453750Y-39290625D03*
D18*
X76993750Y-39290625D03*
X79533750Y-39290625D03*
X82073750Y-39290625D03*
X84613750Y-39290625D03*
D19*
X87153750Y-39290625D03*
D18*
X89693750Y-39290625D03*
X92233750Y-39290625D03*
X92233750Y-21510625D03*
X89693750Y-21510625D03*
D20*
X87153750Y-21510625D03*
D18*
X84613750Y-21510625D03*
X82073750Y-21510625D03*
X79533750Y-21510625D03*
X76993750Y-21510625D03*
D20*
X74453750Y-21510625D03*
D18*
X71913750Y-21510625D03*
X69373750Y-21510625D03*
X66833750Y-21510625D03*
X64293750Y-21510625D03*
D20*
X61753750Y-21510625D03*
D18*
X59213750Y-21510625D03*
X56673750Y-21510625D03*
X54133750Y-21510625D03*
X51593750Y-21510625D03*
D20*
X49053750Y-21510625D03*
D18*
X46513750Y-21510625D03*
X43973750Y-21510625D03*
%TD*%
D10*
%TO.C,SW21*%
X129622500Y-73980625D03*
D11*
X134702500Y-73980625D03*
D10*
X139782500Y-73980625D03*
D12*
X137242500Y-68900625D03*
X130892500Y-71440625D03*
%TD*%
D10*
%TO.C,SW27*%
X243922500Y-73980625D03*
D11*
X249002500Y-73980625D03*
D10*
X254082500Y-73980625D03*
D12*
X251542500Y-68900625D03*
X245192500Y-71440625D03*
%TD*%
D10*
%TO.C,SW39*%
X191535000Y-93030625D03*
D11*
X196615000Y-93030625D03*
D10*
X201695000Y-93030625D03*
D12*
X199155000Y-87950625D03*
X192805000Y-90490625D03*
%TD*%
D10*
%TO.C,SW60*%
X51041250Y-131130625D03*
D11*
X56121250Y-131130625D03*
D10*
X61201250Y-131130625D03*
D12*
X58661250Y-126050625D03*
X52311250Y-128590625D03*
%TD*%
D10*
%TO.C,SW17*%
X53422500Y-73980625D03*
D11*
X58502500Y-73980625D03*
D10*
X63582500Y-73980625D03*
D12*
X61042500Y-68900625D03*
X54692500Y-71440625D03*
%TD*%
D10*
%TO.C,SW11*%
X215347500Y-54930625D03*
D11*
X220427500Y-54930625D03*
D10*
X225507500Y-54930625D03*
D12*
X222967500Y-49850625D03*
X216617500Y-52390625D03*
%TD*%
D21*
%TO.C,BT1*%
X122385000Y-20736875D03*
D22*
X130895000Y-36736875D03*
X186135000Y-20736875D03*
D23*
X118825000Y-28736875D03*
X198205000Y-28736875D03*
%TD*%
D10*
%TO.C,SW55*%
X239160000Y-112080625D03*
D11*
X244240000Y-112080625D03*
D10*
X249320000Y-112080625D03*
D12*
X246780000Y-107000625D03*
X240430000Y-109540625D03*
%TD*%
D10*
%TO.C,SW52*%
X182010000Y-112080625D03*
D11*
X187090000Y-112080625D03*
D10*
X192170000Y-112080625D03*
D12*
X189630000Y-107000625D03*
X183280000Y-109540625D03*
%TD*%
D10*
%TO.C,SW16*%
X29610000Y-73980625D03*
D11*
X34690000Y-73980625D03*
D10*
X39770000Y-73980625D03*
D12*
X37230000Y-68900625D03*
X30880000Y-71440625D03*
%TD*%
D10*
%TO.C,SW42*%
X248685000Y-93030625D03*
D11*
X253765000Y-93030625D03*
D10*
X258845000Y-93030625D03*
D12*
X256305000Y-87950625D03*
X249955000Y-90490625D03*
%TD*%
D10*
%TO.C,SW10*%
X196297500Y-54930625D03*
D11*
X201377500Y-54930625D03*
D10*
X206457500Y-54930625D03*
D12*
X203917500Y-49850625D03*
X197567500Y-52390625D03*
%TD*%
D16*
%TO.C,SW64*%
X177571250Y-124130625D03*
D11*
X177571250Y-139370625D03*
D10*
X184391250Y-131130625D03*
D11*
X189471250Y-131130625D03*
D10*
X194551250Y-131130625D03*
D16*
X201371250Y-124130625D03*
D11*
X201371250Y-139370625D03*
D12*
X192011250Y-126050625D03*
X185661250Y-128590625D03*
%TD*%
D16*
%TO.C,SW62*%
X101371250Y-124130625D03*
D11*
X101371250Y-139370625D03*
D10*
X108191250Y-131130625D03*
D11*
X113271250Y-131130625D03*
D10*
X118351250Y-131130625D03*
D16*
X125171250Y-124130625D03*
D11*
X125171250Y-139370625D03*
D12*
X115811250Y-126050625D03*
X109461250Y-128590625D03*
%TD*%
D10*
%TO.C,SW33*%
X77235000Y-93030625D03*
D11*
X82315000Y-93030625D03*
D10*
X87395000Y-93030625D03*
D12*
X84855000Y-87950625D03*
X78505000Y-90490625D03*
%TD*%
D10*
%TO.C,SW41*%
X229635000Y-93030625D03*
D11*
X234715000Y-93030625D03*
D10*
X239795000Y-93030625D03*
D12*
X237255000Y-87950625D03*
X230905000Y-90490625D03*
%TD*%
D10*
%TO.C,SW18*%
X72472500Y-73980625D03*
D11*
X77552500Y-73980625D03*
D10*
X82632500Y-73980625D03*
D12*
X80092500Y-68900625D03*
X73742500Y-71440625D03*
%TD*%
D10*
%TO.C,SW2*%
X43897500Y-54930625D03*
D11*
X48977500Y-54930625D03*
D10*
X54057500Y-54930625D03*
D12*
X51517500Y-49850625D03*
X45167500Y-52390625D03*
%TD*%
D10*
%TO.C,SW40*%
X210585000Y-93030625D03*
D11*
X215665000Y-93030625D03*
D10*
X220745000Y-93030625D03*
D12*
X218205000Y-87950625D03*
X211855000Y-90490625D03*
%TD*%
D10*
%TO.C,SW56*%
X265353750Y-112080625D03*
D11*
X270433750Y-112080625D03*
D10*
X275513750Y-112080625D03*
D12*
X272973750Y-107000625D03*
X266623750Y-109540625D03*
%TD*%
D10*
%TO.C,SW7*%
X139147500Y-54930625D03*
D11*
X144227500Y-54930625D03*
D10*
X149307500Y-54930625D03*
D12*
X146767500Y-49850625D03*
X140417500Y-52390625D03*
%TD*%
D10*
%TO.C,SW4*%
X81997500Y-54930625D03*
D11*
X87077500Y-54930625D03*
D10*
X92157500Y-54930625D03*
D12*
X89617500Y-49850625D03*
X83267500Y-52390625D03*
%TD*%
D10*
%TO.C,SW26*%
X224872500Y-73980625D03*
D11*
X229952500Y-73980625D03*
D10*
X235032500Y-73980625D03*
D12*
X232492500Y-68900625D03*
X226142500Y-71440625D03*
%TD*%
D10*
%TO.C,SW35*%
X115335000Y-93030625D03*
D11*
X120415000Y-93030625D03*
D10*
X125495000Y-93030625D03*
D12*
X122955000Y-87950625D03*
X116605000Y-90490625D03*
%TD*%
D10*
%TO.C,SW65*%
X215347500Y-131130625D03*
D11*
X220427500Y-131130625D03*
D10*
X225507500Y-131130625D03*
D12*
X222967500Y-126050625D03*
X216617500Y-128590625D03*
%TD*%
D10*
%TO.C,SW32*%
X58185000Y-93030625D03*
D11*
X63265000Y-93030625D03*
D10*
X68345000Y-93030625D03*
D12*
X65805000Y-87950625D03*
X59455000Y-90490625D03*
%TD*%
D10*
%TO.C,SW28*%
X262972500Y-73980625D03*
D11*
X268052500Y-73980625D03*
D10*
X273132500Y-73980625D03*
D12*
X270592500Y-68900625D03*
X264242500Y-71440625D03*
%TD*%
D10*
%TO.C,SW54*%
X220110000Y-112080625D03*
D11*
X225190000Y-112080625D03*
D10*
X230270000Y-112080625D03*
D12*
X227730000Y-107000625D03*
X221380000Y-109540625D03*
%TD*%
D10*
%TO.C,SW61*%
X74853750Y-131130625D03*
D11*
X79933750Y-131130625D03*
D10*
X85013750Y-131130625D03*
D12*
X82473750Y-126050625D03*
X76123750Y-128590625D03*
%TD*%
D24*
%TO.C,D55*%
X234715000Y-116843125D03*
D18*
X234715000Y-109223125D03*
%TD*%
D24*
%TO.C,D4*%
X77552500Y-58740625D03*
D18*
X77552500Y-51120625D03*
%TD*%
D24*
%TO.C,D30*%
X306152500Y-78743125D03*
D18*
X306152500Y-71123125D03*
%TD*%
D24*
%TO.C,D39*%
X187090000Y-97793125D03*
D18*
X187090000Y-90173125D03*
%TD*%
D24*
%TO.C,D5*%
X96602500Y-58740625D03*
D18*
X96602500Y-51120625D03*
%TD*%
D24*
%TO.C,D47*%
X82315000Y-116843125D03*
D18*
X82315000Y-109223125D03*
%TD*%
D24*
%TO.C,D40*%
X206140000Y-97793125D03*
D18*
X206140000Y-90173125D03*
%TD*%
D24*
%TO.C,D7*%
X134702500Y-58740625D03*
D18*
X134702500Y-51120625D03*
%TD*%
D24*
%TO.C,D43*%
X263290000Y-97793125D03*
D18*
X263290000Y-90173125D03*
%TD*%
D24*
%TO.C,D48*%
X101365000Y-116843125D03*
D18*
X101365000Y-109223125D03*
%TD*%
D24*
%TO.C,D51*%
X158515000Y-116843125D03*
D18*
X158515000Y-109223125D03*
%TD*%
D24*
%TO.C,D20*%
X106127500Y-77790625D03*
D18*
X106127500Y-70170625D03*
%TD*%
D24*
%TO.C,D11*%
X210902500Y-58740625D03*
D18*
X210902500Y-51120625D03*
%TD*%
D24*
%TO.C,D50*%
X139465000Y-116843125D03*
D18*
X139465000Y-109223125D03*
%TD*%
D24*
%TO.C,D2*%
X39452500Y-58740625D03*
D18*
X39452500Y-51120625D03*
%TD*%
D24*
%TO.C,D28*%
X258527500Y-78743125D03*
D18*
X258527500Y-71123125D03*
%TD*%
D24*
%TO.C,D41*%
X225190000Y-97793125D03*
D18*
X225190000Y-90173125D03*
%TD*%
D24*
%TO.C,D63*%
X134702500Y-135893125D03*
D18*
X134702500Y-128273125D03*
%TD*%
D24*
%TO.C,D45*%
X20402500Y-116843125D03*
D18*
X20402500Y-109223125D03*
%TD*%
D24*
%TO.C,D19*%
X87077500Y-77790625D03*
D18*
X87077500Y-70170625D03*
%TD*%
D24*
%TO.C,D62*%
X91840000Y-135893125D03*
D18*
X91840000Y-128273125D03*
%TD*%
D24*
%TO.C,D37*%
X148990000Y-97793125D03*
D18*
X148990000Y-90173125D03*
%TD*%
D24*
%TO.C,D68*%
X306152500Y-135893125D03*
D18*
X306152500Y-128273125D03*
%TD*%
D24*
%TO.C,D25*%
X201377500Y-77790625D03*
D18*
X201377500Y-70170625D03*
%TD*%
D24*
%TO.C,D29*%
X277577500Y-78743125D03*
D18*
X277577500Y-71123125D03*
%TD*%
D24*
%TO.C,D33*%
X72790000Y-97793125D03*
D18*
X72790000Y-90173125D03*
%TD*%
D24*
%TO.C,D38*%
X168040000Y-97793125D03*
D18*
X168040000Y-90173125D03*
%TD*%
D24*
%TO.C,D31*%
X20402500Y-97793125D03*
D18*
X20402500Y-90173125D03*
%TD*%
D24*
%TO.C,D15*%
X306152500Y-58740625D03*
D18*
X306152500Y-51120625D03*
%TD*%
D24*
%TO.C,D21*%
X125177500Y-77790625D03*
D18*
X125177500Y-70170625D03*
%TD*%
D24*
%TO.C,D66*%
X268052500Y-135893125D03*
D18*
X268052500Y-128273125D03*
%TD*%
D24*
%TO.C,D35*%
X110890000Y-97793125D03*
D18*
X110890000Y-90173125D03*
%TD*%
D24*
%TO.C,D3*%
X58502500Y-58740625D03*
D18*
X58502500Y-51120625D03*
%TD*%
D24*
%TO.C,D16*%
X20402500Y-77790625D03*
D18*
X20402500Y-70170625D03*
%TD*%
D24*
%TO.C,D57*%
X287102500Y-116843125D03*
D18*
X287102500Y-109223125D03*
%TD*%
D24*
%TO.C,D27*%
X239477500Y-77790625D03*
D18*
X239477500Y-70170625D03*
%TD*%
D24*
%TO.C,D18*%
X68027500Y-77790625D03*
D18*
X68027500Y-70170625D03*
%TD*%
D24*
%TO.C,D61*%
X68027500Y-135893125D03*
D18*
X68027500Y-128273125D03*
%TD*%
D24*
%TO.C,D24*%
X182327500Y-77790625D03*
D18*
X182327500Y-70170625D03*
%TD*%
D24*
%TO.C,D17*%
X48977500Y-77790625D03*
D18*
X48977500Y-70170625D03*
%TD*%
D24*
%TO.C,D49*%
X120415000Y-116843125D03*
D18*
X120415000Y-109223125D03*
%TD*%
D24*
%TO.C,D1*%
X20402500Y-58740625D03*
D18*
X20402500Y-51120625D03*
%TD*%
D24*
%TO.C,D67*%
X287102500Y-135893125D03*
D18*
X287102500Y-128273125D03*
%TD*%
D24*
%TO.C,D34*%
X91840000Y-97793125D03*
D18*
X91840000Y-90173125D03*
%TD*%
D24*
%TO.C,D52*%
X177565000Y-116843125D03*
D18*
X177565000Y-109223125D03*
%TD*%
D24*
%TO.C,D8*%
X153752500Y-58740625D03*
D18*
X153752500Y-51120625D03*
%TD*%
D24*
%TO.C,D26*%
X220427500Y-77790625D03*
D18*
X220427500Y-70170625D03*
%TD*%
D24*
%TO.C,D22*%
X144227500Y-77790625D03*
D18*
X144227500Y-70170625D03*
%TD*%
D24*
%TO.C,D44*%
X306152500Y-97793125D03*
D18*
X306152500Y-90173125D03*
%TD*%
D24*
%TO.C,D10*%
X191852500Y-58740625D03*
D18*
X191852500Y-51120625D03*
%TD*%
D24*
%TO.C,D64*%
X168040000Y-135893125D03*
D18*
X168040000Y-128273125D03*
%TD*%
D24*
%TO.C,D6*%
X115652500Y-58740625D03*
D18*
X115652500Y-51120625D03*
%TD*%
D24*
%TO.C,D14*%
X270433750Y-58740625D03*
D18*
X270433750Y-51120625D03*
%TD*%
D24*
%TO.C,D23*%
X163277500Y-77790625D03*
D18*
X163277500Y-70170625D03*
%TD*%
D24*
%TO.C,D36*%
X129940000Y-97793125D03*
D18*
X129940000Y-90173125D03*
%TD*%
D24*
%TO.C,D46*%
X63265000Y-116843125D03*
D18*
X63265000Y-109223125D03*
%TD*%
D24*
%TO.C,D42*%
X244240000Y-97793125D03*
D18*
X244240000Y-90173125D03*
%TD*%
D24*
%TO.C,D13*%
X249002500Y-58740625D03*
D18*
X249002500Y-51120625D03*
%TD*%
D24*
%TO.C,D58*%
X306152500Y-116843125D03*
D18*
X306152500Y-109223125D03*
%TD*%
D24*
%TO.C,D59*%
X20402500Y-135893125D03*
D18*
X20402500Y-128273125D03*
%TD*%
D24*
%TO.C,D65*%
X210902500Y-135893125D03*
D18*
X210902500Y-128273125D03*
%TD*%
D24*
%TO.C,D56*%
X253765000Y-116843125D03*
D18*
X253765000Y-109223125D03*
%TD*%
D24*
%TO.C,D60*%
X44215000Y-135893125D03*
D18*
X44215000Y-128273125D03*
%TD*%
D24*
%TO.C,D32*%
X53740000Y-97793125D03*
D18*
X53740000Y-90173125D03*
%TD*%
D24*
%TO.C,D9*%
X172802500Y-58740625D03*
D18*
X172802500Y-51120625D03*
%TD*%
D24*
%TO.C,D12*%
X229952500Y-58740625D03*
D18*
X229952500Y-51120625D03*
%TD*%
D24*
%TO.C,D54*%
X215665000Y-116843125D03*
D18*
X215665000Y-109223125D03*
%TD*%
D24*
%TO.C,D53*%
X196615000Y-116843125D03*
D18*
X196615000Y-109223125D03*
%TD*%
M02*
