%TF.GenerationSoftware,KiCad,Pcbnew,9.0.3*%
%TF.CreationDate,2025-07-21T11:25:02+05:30*%
%TF.ProjectId,Mechanical-PicoBoard-W,4d656368-616e-4696-9361-6c2d5069636f,rev?*%
%TF.SameCoordinates,Original*%
%TF.FileFunction,Copper,L2,Bot*%
%TF.FilePolarity,Positive*%
%FSLAX46Y46*%
G04 Gerber Fmt 4.6, Leading zero omitted, Abs format (unit mm)*
G04 Created by KiCad (PCBNEW 9.0.3) date 2025-07-21 11:25:02*
%MOMM*%
%LPD*%
G01*
G04 APERTURE LIST*
G04 Aperture macros list*
%AMRoundRect*
0 Rectangle with rounded corners*
0 $1 Rounding radius*
0 $2 $3 $4 $5 $6 $7 $8 $9 X,Y pos of 4 corners*
0 Add a 4 corners polygon primitive as box body*
4,1,4,$2,$3,$4,$5,$6,$7,$8,$9,$2,$3,0*
0 Add four circle primitives for the rounded corners*
1,1,$1+$1,$2,$3*
1,1,$1+$1,$4,$5*
1,1,$1+$1,$6,$7*
1,1,$1+$1,$8,$9*
0 Add four rect primitives between the rounded corners*
20,1,$1+$1,$2,$3,$4,$5,0*
20,1,$1+$1,$4,$5,$6,$7,0*
20,1,$1+$1,$6,$7,$8,$9,0*
20,1,$1+$1,$8,$9,$2,$3,0*%
%AMFreePoly0*
4,1,37,0.603843,0.796157,0.639018,0.796157,0.711114,0.766294,0.766294,0.711114,0.796157,0.639018,0.796157,0.603843,0.800000,0.600000,0.800000,-0.600000,0.796157,-0.603843,0.796157,-0.639018,0.766294,-0.711114,0.711114,-0.766294,0.639018,-0.796157,0.603843,-0.796157,0.600000,-0.800000,0.000000,-0.800000,0.000000,-0.796148,-0.078414,-0.796148,-0.232228,-0.765552,-0.377117,-0.705537,
-0.507515,-0.618408,-0.618408,-0.507515,-0.705537,-0.377117,-0.765552,-0.232228,-0.796148,-0.078414,-0.796148,0.078414,-0.765552,0.232228,-0.705537,0.377117,-0.618408,0.507515,-0.507515,0.618408,-0.377117,0.705537,-0.232228,0.765552,-0.078414,0.796148,0.000000,0.796148,0.000000,0.800000,0.600000,0.800000,0.603843,0.796157,0.603843,0.796157,$1*%
%AMFreePoly1*
4,1,37,0.000000,0.796148,0.078414,0.796148,0.232228,0.765552,0.377117,0.705537,0.507515,0.618408,0.618408,0.507515,0.705537,0.377117,0.765552,0.232228,0.796148,0.078414,0.796148,-0.078414,0.765552,-0.232228,0.705537,-0.377117,0.618408,-0.507515,0.507515,-0.618408,0.377117,-0.705537,0.232228,-0.765552,0.078414,-0.796148,0.000000,-0.796148,0.000000,-0.800000,-0.600000,-0.800000,
-0.603843,-0.796157,-0.639018,-0.796157,-0.711114,-0.766294,-0.766294,-0.711114,-0.796157,-0.639018,-0.796157,-0.603843,-0.800000,-0.600000,-0.800000,0.600000,-0.796157,0.603843,-0.796157,0.639018,-0.766294,0.711114,-0.711114,0.766294,-0.639018,0.796157,-0.603843,0.796157,-0.600000,0.800000,0.000000,0.800000,0.000000,0.796148,0.000000,0.796148,$1*%
G04 Aperture macros list end*
%ADD10C,0.100000*%
%ADD11C,0.150000*%
%ADD12C,0.300000*%
%ADD13C,0.400000*%
%TA.AperFunction,ComponentPad*%
%ADD14C,2.200000*%
%TD*%
%TA.AperFunction,ComponentPad*%
%ADD15R,2.000000X2.000000*%
%TD*%
%TA.AperFunction,ComponentPad*%
%ADD16C,2.000000*%
%TD*%
%TA.AperFunction,ComponentPad*%
%ADD17R,3.200000X2.000000*%
%TD*%
%TA.AperFunction,ComponentPad*%
%ADD18RoundRect,0.200000X0.600000X-0.600000X0.600000X0.600000X-0.600000X0.600000X-0.600000X-0.600000X0*%
%TD*%
%TA.AperFunction,ComponentPad*%
%ADD19C,1.600000*%
%TD*%
%TA.AperFunction,ComponentPad*%
%ADD20FreePoly0,90.000000*%
%TD*%
%TA.AperFunction,ComponentPad*%
%ADD21FreePoly1,90.000000*%
%TD*%
%TA.AperFunction,ComponentPad*%
%ADD22RoundRect,0.250000X0.550000X-0.550000X0.550000X0.550000X-0.550000X0.550000X-0.550000X-0.550000X0*%
%TD*%
%TA.AperFunction,ViaPad*%
%ADD23C,0.600000*%
%TD*%
%TA.AperFunction,Conductor*%
%ADD24C,0.400000*%
%TD*%
G04 APERTURE END LIST*
D10*
D11*
X299989000Y-253002200D02*
X407989000Y-253002200D01*
X407989000Y-285002200D01*
X299989000Y-285002200D01*
X299989000Y-253002200D01*
D10*
D11*
X10000000Y-10000000D02*
X409989000Y-10000000D01*
X409989000Y-287002200D01*
X10000000Y-287002200D01*
X10000000Y-10000000D01*
D10*
D11*
X12000000Y-12000000D02*
X407989000Y-12000000D01*
X407989000Y-285002200D01*
X12000000Y-285002200D01*
X12000000Y-12000000D01*
D10*
D11*
X60000000Y-12000000D02*
X60000000Y-10000000D01*
D10*
D11*
X110000000Y-12000000D02*
X110000000Y-10000000D01*
D10*
D11*
X160000000Y-12000000D02*
X160000000Y-10000000D01*
D10*
D11*
X210000000Y-12000000D02*
X210000000Y-10000000D01*
D10*
D11*
X260000000Y-12000000D02*
X260000000Y-10000000D01*
D10*
D11*
X310000000Y-12000000D02*
X310000000Y-10000000D01*
D10*
D11*
X360000000Y-12000000D02*
X360000000Y-10000000D01*
D10*
D11*
X36089160Y-11593604D02*
X35346303Y-11593604D01*
X35717731Y-11593604D02*
X35717731Y-10293604D01*
X35717731Y-10293604D02*
X35593922Y-10479319D01*
X35593922Y-10479319D02*
X35470112Y-10603128D01*
X35470112Y-10603128D02*
X35346303Y-10665033D01*
D10*
D11*
X85346303Y-10417414D02*
X85408207Y-10355509D01*
X85408207Y-10355509D02*
X85532017Y-10293604D01*
X85532017Y-10293604D02*
X85841541Y-10293604D01*
X85841541Y-10293604D02*
X85965350Y-10355509D01*
X85965350Y-10355509D02*
X86027255Y-10417414D01*
X86027255Y-10417414D02*
X86089160Y-10541223D01*
X86089160Y-10541223D02*
X86089160Y-10665033D01*
X86089160Y-10665033D02*
X86027255Y-10850747D01*
X86027255Y-10850747D02*
X85284398Y-11593604D01*
X85284398Y-11593604D02*
X86089160Y-11593604D01*
D10*
D11*
X135284398Y-10293604D02*
X136089160Y-10293604D01*
X136089160Y-10293604D02*
X135655826Y-10788842D01*
X135655826Y-10788842D02*
X135841541Y-10788842D01*
X135841541Y-10788842D02*
X135965350Y-10850747D01*
X135965350Y-10850747D02*
X136027255Y-10912652D01*
X136027255Y-10912652D02*
X136089160Y-11036461D01*
X136089160Y-11036461D02*
X136089160Y-11345985D01*
X136089160Y-11345985D02*
X136027255Y-11469795D01*
X136027255Y-11469795D02*
X135965350Y-11531700D01*
X135965350Y-11531700D02*
X135841541Y-11593604D01*
X135841541Y-11593604D02*
X135470112Y-11593604D01*
X135470112Y-11593604D02*
X135346303Y-11531700D01*
X135346303Y-11531700D02*
X135284398Y-11469795D01*
D10*
D11*
X185965350Y-10726938D02*
X185965350Y-11593604D01*
X185655826Y-10231700D02*
X185346303Y-11160271D01*
X185346303Y-11160271D02*
X186151064Y-11160271D01*
D10*
D11*
X236027255Y-10293604D02*
X235408207Y-10293604D01*
X235408207Y-10293604D02*
X235346303Y-10912652D01*
X235346303Y-10912652D02*
X235408207Y-10850747D01*
X235408207Y-10850747D02*
X235532017Y-10788842D01*
X235532017Y-10788842D02*
X235841541Y-10788842D01*
X235841541Y-10788842D02*
X235965350Y-10850747D01*
X235965350Y-10850747D02*
X236027255Y-10912652D01*
X236027255Y-10912652D02*
X236089160Y-11036461D01*
X236089160Y-11036461D02*
X236089160Y-11345985D01*
X236089160Y-11345985D02*
X236027255Y-11469795D01*
X236027255Y-11469795D02*
X235965350Y-11531700D01*
X235965350Y-11531700D02*
X235841541Y-11593604D01*
X235841541Y-11593604D02*
X235532017Y-11593604D01*
X235532017Y-11593604D02*
X235408207Y-11531700D01*
X235408207Y-11531700D02*
X235346303Y-11469795D01*
D10*
D11*
X285965350Y-10293604D02*
X285717731Y-10293604D01*
X285717731Y-10293604D02*
X285593922Y-10355509D01*
X285593922Y-10355509D02*
X285532017Y-10417414D01*
X285532017Y-10417414D02*
X285408207Y-10603128D01*
X285408207Y-10603128D02*
X285346303Y-10850747D01*
X285346303Y-10850747D02*
X285346303Y-11345985D01*
X285346303Y-11345985D02*
X285408207Y-11469795D01*
X285408207Y-11469795D02*
X285470112Y-11531700D01*
X285470112Y-11531700D02*
X285593922Y-11593604D01*
X285593922Y-11593604D02*
X285841541Y-11593604D01*
X285841541Y-11593604D02*
X285965350Y-11531700D01*
X285965350Y-11531700D02*
X286027255Y-11469795D01*
X286027255Y-11469795D02*
X286089160Y-11345985D01*
X286089160Y-11345985D02*
X286089160Y-11036461D01*
X286089160Y-11036461D02*
X286027255Y-10912652D01*
X286027255Y-10912652D02*
X285965350Y-10850747D01*
X285965350Y-10850747D02*
X285841541Y-10788842D01*
X285841541Y-10788842D02*
X285593922Y-10788842D01*
X285593922Y-10788842D02*
X285470112Y-10850747D01*
X285470112Y-10850747D02*
X285408207Y-10912652D01*
X285408207Y-10912652D02*
X285346303Y-11036461D01*
D10*
D11*
X335284398Y-10293604D02*
X336151064Y-10293604D01*
X336151064Y-10293604D02*
X335593922Y-11593604D01*
D10*
D11*
X385593922Y-10850747D02*
X385470112Y-10788842D01*
X385470112Y-10788842D02*
X385408207Y-10726938D01*
X385408207Y-10726938D02*
X385346303Y-10603128D01*
X385346303Y-10603128D02*
X385346303Y-10541223D01*
X385346303Y-10541223D02*
X385408207Y-10417414D01*
X385408207Y-10417414D02*
X385470112Y-10355509D01*
X385470112Y-10355509D02*
X385593922Y-10293604D01*
X385593922Y-10293604D02*
X385841541Y-10293604D01*
X385841541Y-10293604D02*
X385965350Y-10355509D01*
X385965350Y-10355509D02*
X386027255Y-10417414D01*
X386027255Y-10417414D02*
X386089160Y-10541223D01*
X386089160Y-10541223D02*
X386089160Y-10603128D01*
X386089160Y-10603128D02*
X386027255Y-10726938D01*
X386027255Y-10726938D02*
X385965350Y-10788842D01*
X385965350Y-10788842D02*
X385841541Y-10850747D01*
X385841541Y-10850747D02*
X385593922Y-10850747D01*
X385593922Y-10850747D02*
X385470112Y-10912652D01*
X385470112Y-10912652D02*
X385408207Y-10974557D01*
X385408207Y-10974557D02*
X385346303Y-11098366D01*
X385346303Y-11098366D02*
X385346303Y-11345985D01*
X385346303Y-11345985D02*
X385408207Y-11469795D01*
X385408207Y-11469795D02*
X385470112Y-11531700D01*
X385470112Y-11531700D02*
X385593922Y-11593604D01*
X385593922Y-11593604D02*
X385841541Y-11593604D01*
X385841541Y-11593604D02*
X385965350Y-11531700D01*
X385965350Y-11531700D02*
X386027255Y-11469795D01*
X386027255Y-11469795D02*
X386089160Y-11345985D01*
X386089160Y-11345985D02*
X386089160Y-11098366D01*
X386089160Y-11098366D02*
X386027255Y-10974557D01*
X386027255Y-10974557D02*
X385965350Y-10912652D01*
X385965350Y-10912652D02*
X385841541Y-10850747D01*
D10*
D11*
X60000000Y-285002200D02*
X60000000Y-287002200D01*
D10*
D11*
X110000000Y-285002200D02*
X110000000Y-287002200D01*
D10*
D11*
X160000000Y-285002200D02*
X160000000Y-287002200D01*
D10*
D11*
X210000000Y-285002200D02*
X210000000Y-287002200D01*
D10*
D11*
X260000000Y-285002200D02*
X260000000Y-287002200D01*
D10*
D11*
X310000000Y-285002200D02*
X310000000Y-287002200D01*
D10*
D11*
X360000000Y-285002200D02*
X360000000Y-287002200D01*
D10*
D11*
X36089160Y-286595804D02*
X35346303Y-286595804D01*
X35717731Y-286595804D02*
X35717731Y-285295804D01*
X35717731Y-285295804D02*
X35593922Y-285481519D01*
X35593922Y-285481519D02*
X35470112Y-285605328D01*
X35470112Y-285605328D02*
X35346303Y-285667233D01*
D10*
D11*
X85346303Y-285419614D02*
X85408207Y-285357709D01*
X85408207Y-285357709D02*
X85532017Y-285295804D01*
X85532017Y-285295804D02*
X85841541Y-285295804D01*
X85841541Y-285295804D02*
X85965350Y-285357709D01*
X85965350Y-285357709D02*
X86027255Y-285419614D01*
X86027255Y-285419614D02*
X86089160Y-285543423D01*
X86089160Y-285543423D02*
X86089160Y-285667233D01*
X86089160Y-285667233D02*
X86027255Y-285852947D01*
X86027255Y-285852947D02*
X85284398Y-286595804D01*
X85284398Y-286595804D02*
X86089160Y-286595804D01*
D10*
D11*
X135284398Y-285295804D02*
X136089160Y-285295804D01*
X136089160Y-285295804D02*
X135655826Y-285791042D01*
X135655826Y-285791042D02*
X135841541Y-285791042D01*
X135841541Y-285791042D02*
X135965350Y-285852947D01*
X135965350Y-285852947D02*
X136027255Y-285914852D01*
X136027255Y-285914852D02*
X136089160Y-286038661D01*
X136089160Y-286038661D02*
X136089160Y-286348185D01*
X136089160Y-286348185D02*
X136027255Y-286471995D01*
X136027255Y-286471995D02*
X135965350Y-286533900D01*
X135965350Y-286533900D02*
X135841541Y-286595804D01*
X135841541Y-286595804D02*
X135470112Y-286595804D01*
X135470112Y-286595804D02*
X135346303Y-286533900D01*
X135346303Y-286533900D02*
X135284398Y-286471995D01*
D10*
D11*
X185965350Y-285729138D02*
X185965350Y-286595804D01*
X185655826Y-285233900D02*
X185346303Y-286162471D01*
X185346303Y-286162471D02*
X186151064Y-286162471D01*
D10*
D11*
X236027255Y-285295804D02*
X235408207Y-285295804D01*
X235408207Y-285295804D02*
X235346303Y-285914852D01*
X235346303Y-285914852D02*
X235408207Y-285852947D01*
X235408207Y-285852947D02*
X235532017Y-285791042D01*
X235532017Y-285791042D02*
X235841541Y-285791042D01*
X235841541Y-285791042D02*
X235965350Y-285852947D01*
X235965350Y-285852947D02*
X236027255Y-285914852D01*
X236027255Y-285914852D02*
X236089160Y-286038661D01*
X236089160Y-286038661D02*
X236089160Y-286348185D01*
X236089160Y-286348185D02*
X236027255Y-286471995D01*
X236027255Y-286471995D02*
X235965350Y-286533900D01*
X235965350Y-286533900D02*
X235841541Y-286595804D01*
X235841541Y-286595804D02*
X235532017Y-286595804D01*
X235532017Y-286595804D02*
X235408207Y-286533900D01*
X235408207Y-286533900D02*
X235346303Y-286471995D01*
D10*
D11*
X285965350Y-285295804D02*
X285717731Y-285295804D01*
X285717731Y-285295804D02*
X285593922Y-285357709D01*
X285593922Y-285357709D02*
X285532017Y-285419614D01*
X285532017Y-285419614D02*
X285408207Y-285605328D01*
X285408207Y-285605328D02*
X285346303Y-285852947D01*
X285346303Y-285852947D02*
X285346303Y-286348185D01*
X285346303Y-286348185D02*
X285408207Y-286471995D01*
X285408207Y-286471995D02*
X285470112Y-286533900D01*
X285470112Y-286533900D02*
X285593922Y-286595804D01*
X285593922Y-286595804D02*
X285841541Y-286595804D01*
X285841541Y-286595804D02*
X285965350Y-286533900D01*
X285965350Y-286533900D02*
X286027255Y-286471995D01*
X286027255Y-286471995D02*
X286089160Y-286348185D01*
X286089160Y-286348185D02*
X286089160Y-286038661D01*
X286089160Y-286038661D02*
X286027255Y-285914852D01*
X286027255Y-285914852D02*
X285965350Y-285852947D01*
X285965350Y-285852947D02*
X285841541Y-285791042D01*
X285841541Y-285791042D02*
X285593922Y-285791042D01*
X285593922Y-285791042D02*
X285470112Y-285852947D01*
X285470112Y-285852947D02*
X285408207Y-285914852D01*
X285408207Y-285914852D02*
X285346303Y-286038661D01*
D10*
D11*
X335284398Y-285295804D02*
X336151064Y-285295804D01*
X336151064Y-285295804D02*
X335593922Y-286595804D01*
D10*
D11*
X385593922Y-285852947D02*
X385470112Y-285791042D01*
X385470112Y-285791042D02*
X385408207Y-285729138D01*
X385408207Y-285729138D02*
X385346303Y-285605328D01*
X385346303Y-285605328D02*
X385346303Y-285543423D01*
X385346303Y-285543423D02*
X385408207Y-285419614D01*
X385408207Y-285419614D02*
X385470112Y-285357709D01*
X385470112Y-285357709D02*
X385593922Y-285295804D01*
X385593922Y-285295804D02*
X385841541Y-285295804D01*
X385841541Y-285295804D02*
X385965350Y-285357709D01*
X385965350Y-285357709D02*
X386027255Y-285419614D01*
X386027255Y-285419614D02*
X386089160Y-285543423D01*
X386089160Y-285543423D02*
X386089160Y-285605328D01*
X386089160Y-285605328D02*
X386027255Y-285729138D01*
X386027255Y-285729138D02*
X385965350Y-285791042D01*
X385965350Y-285791042D02*
X385841541Y-285852947D01*
X385841541Y-285852947D02*
X385593922Y-285852947D01*
X385593922Y-285852947D02*
X385470112Y-285914852D01*
X385470112Y-285914852D02*
X385408207Y-285976757D01*
X385408207Y-285976757D02*
X385346303Y-286100566D01*
X385346303Y-286100566D02*
X385346303Y-286348185D01*
X385346303Y-286348185D02*
X385408207Y-286471995D01*
X385408207Y-286471995D02*
X385470112Y-286533900D01*
X385470112Y-286533900D02*
X385593922Y-286595804D01*
X385593922Y-286595804D02*
X385841541Y-286595804D01*
X385841541Y-286595804D02*
X385965350Y-286533900D01*
X385965350Y-286533900D02*
X386027255Y-286471995D01*
X386027255Y-286471995D02*
X386089160Y-286348185D01*
X386089160Y-286348185D02*
X386089160Y-286100566D01*
X386089160Y-286100566D02*
X386027255Y-285976757D01*
X386027255Y-285976757D02*
X385965350Y-285914852D01*
X385965350Y-285914852D02*
X385841541Y-285852947D01*
D10*
D11*
X10000000Y-60000000D02*
X12000000Y-60000000D01*
D10*
D11*
X10000000Y-110000000D02*
X12000000Y-110000000D01*
D10*
D11*
X10000000Y-160000000D02*
X12000000Y-160000000D01*
D10*
D11*
X10000000Y-210000000D02*
X12000000Y-210000000D01*
D10*
D11*
X10000000Y-260000000D02*
X12000000Y-260000000D01*
D10*
D11*
X10690476Y-35222176D02*
X11309523Y-35222176D01*
X10566666Y-35593604D02*
X10999999Y-34293604D01*
X10999999Y-34293604D02*
X11433333Y-35593604D01*
D10*
D11*
X11092857Y-84912652D02*
X11278571Y-84974557D01*
X11278571Y-84974557D02*
X11340476Y-85036461D01*
X11340476Y-85036461D02*
X11402380Y-85160271D01*
X11402380Y-85160271D02*
X11402380Y-85345985D01*
X11402380Y-85345985D02*
X11340476Y-85469795D01*
X11340476Y-85469795D02*
X11278571Y-85531700D01*
X11278571Y-85531700D02*
X11154761Y-85593604D01*
X11154761Y-85593604D02*
X10659523Y-85593604D01*
X10659523Y-85593604D02*
X10659523Y-84293604D01*
X10659523Y-84293604D02*
X11092857Y-84293604D01*
X11092857Y-84293604D02*
X11216666Y-84355509D01*
X11216666Y-84355509D02*
X11278571Y-84417414D01*
X11278571Y-84417414D02*
X11340476Y-84541223D01*
X11340476Y-84541223D02*
X11340476Y-84665033D01*
X11340476Y-84665033D02*
X11278571Y-84788842D01*
X11278571Y-84788842D02*
X11216666Y-84850747D01*
X11216666Y-84850747D02*
X11092857Y-84912652D01*
X11092857Y-84912652D02*
X10659523Y-84912652D01*
D10*
D11*
X11402380Y-135469795D02*
X11340476Y-135531700D01*
X11340476Y-135531700D02*
X11154761Y-135593604D01*
X11154761Y-135593604D02*
X11030952Y-135593604D01*
X11030952Y-135593604D02*
X10845238Y-135531700D01*
X10845238Y-135531700D02*
X10721428Y-135407890D01*
X10721428Y-135407890D02*
X10659523Y-135284080D01*
X10659523Y-135284080D02*
X10597619Y-135036461D01*
X10597619Y-135036461D02*
X10597619Y-134850747D01*
X10597619Y-134850747D02*
X10659523Y-134603128D01*
X10659523Y-134603128D02*
X10721428Y-134479319D01*
X10721428Y-134479319D02*
X10845238Y-134355509D01*
X10845238Y-134355509D02*
X11030952Y-134293604D01*
X11030952Y-134293604D02*
X11154761Y-134293604D01*
X11154761Y-134293604D02*
X11340476Y-134355509D01*
X11340476Y-134355509D02*
X11402380Y-134417414D01*
D10*
D11*
X10659523Y-185593604D02*
X10659523Y-184293604D01*
X10659523Y-184293604D02*
X10969047Y-184293604D01*
X10969047Y-184293604D02*
X11154761Y-184355509D01*
X11154761Y-184355509D02*
X11278571Y-184479319D01*
X11278571Y-184479319D02*
X11340476Y-184603128D01*
X11340476Y-184603128D02*
X11402380Y-184850747D01*
X11402380Y-184850747D02*
X11402380Y-185036461D01*
X11402380Y-185036461D02*
X11340476Y-185284080D01*
X11340476Y-185284080D02*
X11278571Y-185407890D01*
X11278571Y-185407890D02*
X11154761Y-185531700D01*
X11154761Y-185531700D02*
X10969047Y-185593604D01*
X10969047Y-185593604D02*
X10659523Y-185593604D01*
D10*
D11*
X10721428Y-234912652D02*
X11154762Y-234912652D01*
X11340476Y-235593604D02*
X10721428Y-235593604D01*
X10721428Y-235593604D02*
X10721428Y-234293604D01*
X10721428Y-234293604D02*
X11340476Y-234293604D01*
D10*
D11*
X11185714Y-284912652D02*
X10752380Y-284912652D01*
X10752380Y-285593604D02*
X10752380Y-284293604D01*
X10752380Y-284293604D02*
X11371428Y-284293604D01*
D10*
D11*
X409989000Y-60000000D02*
X407989000Y-60000000D01*
D10*
D11*
X409989000Y-110000000D02*
X407989000Y-110000000D01*
D10*
D11*
X409989000Y-160000000D02*
X407989000Y-160000000D01*
D10*
D11*
X409989000Y-210000000D02*
X407989000Y-210000000D01*
D10*
D11*
X409989000Y-260000000D02*
X407989000Y-260000000D01*
D10*
D11*
X408679476Y-35222176D02*
X409298523Y-35222176D01*
X408555666Y-35593604D02*
X408988999Y-34293604D01*
X408988999Y-34293604D02*
X409422333Y-35593604D01*
D10*
D11*
X409081857Y-84912652D02*
X409267571Y-84974557D01*
X409267571Y-84974557D02*
X409329476Y-85036461D01*
X409329476Y-85036461D02*
X409391380Y-85160271D01*
X409391380Y-85160271D02*
X409391380Y-85345985D01*
X409391380Y-85345985D02*
X409329476Y-85469795D01*
X409329476Y-85469795D02*
X409267571Y-85531700D01*
X409267571Y-85531700D02*
X409143761Y-85593604D01*
X409143761Y-85593604D02*
X408648523Y-85593604D01*
X408648523Y-85593604D02*
X408648523Y-84293604D01*
X408648523Y-84293604D02*
X409081857Y-84293604D01*
X409081857Y-84293604D02*
X409205666Y-84355509D01*
X409205666Y-84355509D02*
X409267571Y-84417414D01*
X409267571Y-84417414D02*
X409329476Y-84541223D01*
X409329476Y-84541223D02*
X409329476Y-84665033D01*
X409329476Y-84665033D02*
X409267571Y-84788842D01*
X409267571Y-84788842D02*
X409205666Y-84850747D01*
X409205666Y-84850747D02*
X409081857Y-84912652D01*
X409081857Y-84912652D02*
X408648523Y-84912652D01*
D10*
D11*
X409391380Y-135469795D02*
X409329476Y-135531700D01*
X409329476Y-135531700D02*
X409143761Y-135593604D01*
X409143761Y-135593604D02*
X409019952Y-135593604D01*
X409019952Y-135593604D02*
X408834238Y-135531700D01*
X408834238Y-135531700D02*
X408710428Y-135407890D01*
X408710428Y-135407890D02*
X408648523Y-135284080D01*
X408648523Y-135284080D02*
X408586619Y-135036461D01*
X408586619Y-135036461D02*
X408586619Y-134850747D01*
X408586619Y-134850747D02*
X408648523Y-134603128D01*
X408648523Y-134603128D02*
X408710428Y-134479319D01*
X408710428Y-134479319D02*
X408834238Y-134355509D01*
X408834238Y-134355509D02*
X409019952Y-134293604D01*
X409019952Y-134293604D02*
X409143761Y-134293604D01*
X409143761Y-134293604D02*
X409329476Y-134355509D01*
X409329476Y-134355509D02*
X409391380Y-134417414D01*
D10*
D11*
X408648523Y-185593604D02*
X408648523Y-184293604D01*
X408648523Y-184293604D02*
X408958047Y-184293604D01*
X408958047Y-184293604D02*
X409143761Y-184355509D01*
X409143761Y-184355509D02*
X409267571Y-184479319D01*
X409267571Y-184479319D02*
X409329476Y-184603128D01*
X409329476Y-184603128D02*
X409391380Y-184850747D01*
X409391380Y-184850747D02*
X409391380Y-185036461D01*
X409391380Y-185036461D02*
X409329476Y-185284080D01*
X409329476Y-185284080D02*
X409267571Y-185407890D01*
X409267571Y-185407890D02*
X409143761Y-185531700D01*
X409143761Y-185531700D02*
X408958047Y-185593604D01*
X408958047Y-185593604D02*
X408648523Y-185593604D01*
D10*
D11*
X408710428Y-234912652D02*
X409143762Y-234912652D01*
X409329476Y-235593604D02*
X408710428Y-235593604D01*
X408710428Y-235593604D02*
X408710428Y-234293604D01*
X408710428Y-234293604D02*
X409329476Y-234293604D01*
D10*
D11*
X409174714Y-284912652D02*
X408741380Y-284912652D01*
X408741380Y-285593604D02*
X408741380Y-284293604D01*
X408741380Y-284293604D02*
X409360428Y-284293604D01*
D10*
D11*
X323444826Y-280788328D02*
X323444826Y-279288328D01*
X323444826Y-279288328D02*
X323801969Y-279288328D01*
X323801969Y-279288328D02*
X324016255Y-279359757D01*
X324016255Y-279359757D02*
X324159112Y-279502614D01*
X324159112Y-279502614D02*
X324230541Y-279645471D01*
X324230541Y-279645471D02*
X324301969Y-279931185D01*
X324301969Y-279931185D02*
X324301969Y-280145471D01*
X324301969Y-280145471D02*
X324230541Y-280431185D01*
X324230541Y-280431185D02*
X324159112Y-280574042D01*
X324159112Y-280574042D02*
X324016255Y-280716900D01*
X324016255Y-280716900D02*
X323801969Y-280788328D01*
X323801969Y-280788328D02*
X323444826Y-280788328D01*
X325587684Y-280788328D02*
X325587684Y-280002614D01*
X325587684Y-280002614D02*
X325516255Y-279859757D01*
X325516255Y-279859757D02*
X325373398Y-279788328D01*
X325373398Y-279788328D02*
X325087684Y-279788328D01*
X325087684Y-279788328D02*
X324944826Y-279859757D01*
X325587684Y-280716900D02*
X325444826Y-280788328D01*
X325444826Y-280788328D02*
X325087684Y-280788328D01*
X325087684Y-280788328D02*
X324944826Y-280716900D01*
X324944826Y-280716900D02*
X324873398Y-280574042D01*
X324873398Y-280574042D02*
X324873398Y-280431185D01*
X324873398Y-280431185D02*
X324944826Y-280288328D01*
X324944826Y-280288328D02*
X325087684Y-280216900D01*
X325087684Y-280216900D02*
X325444826Y-280216900D01*
X325444826Y-280216900D02*
X325587684Y-280145471D01*
X326087684Y-279788328D02*
X326659112Y-279788328D01*
X326301969Y-279288328D02*
X326301969Y-280574042D01*
X326301969Y-280574042D02*
X326373398Y-280716900D01*
X326373398Y-280716900D02*
X326516255Y-280788328D01*
X326516255Y-280788328D02*
X326659112Y-280788328D01*
X327730541Y-280716900D02*
X327587684Y-280788328D01*
X327587684Y-280788328D02*
X327301970Y-280788328D01*
X327301970Y-280788328D02*
X327159112Y-280716900D01*
X327159112Y-280716900D02*
X327087684Y-280574042D01*
X327087684Y-280574042D02*
X327087684Y-280002614D01*
X327087684Y-280002614D02*
X327159112Y-279859757D01*
X327159112Y-279859757D02*
X327301970Y-279788328D01*
X327301970Y-279788328D02*
X327587684Y-279788328D01*
X327587684Y-279788328D02*
X327730541Y-279859757D01*
X327730541Y-279859757D02*
X327801970Y-280002614D01*
X327801970Y-280002614D02*
X327801970Y-280145471D01*
X327801970Y-280145471D02*
X327087684Y-280288328D01*
X328444826Y-280645471D02*
X328516255Y-280716900D01*
X328516255Y-280716900D02*
X328444826Y-280788328D01*
X328444826Y-280788328D02*
X328373398Y-280716900D01*
X328373398Y-280716900D02*
X328444826Y-280645471D01*
X328444826Y-280645471D02*
X328444826Y-280788328D01*
X328444826Y-279859757D02*
X328516255Y-279931185D01*
X328516255Y-279931185D02*
X328444826Y-280002614D01*
X328444826Y-280002614D02*
X328373398Y-279931185D01*
X328373398Y-279931185D02*
X328444826Y-279859757D01*
X328444826Y-279859757D02*
X328444826Y-280002614D01*
D10*
D11*
X299989000Y-281502200D02*
X407989000Y-281502200D01*
D10*
D11*
X301444826Y-283588328D02*
X301444826Y-282088328D01*
X302301969Y-283588328D02*
X301659112Y-282731185D01*
X302301969Y-282088328D02*
X301444826Y-282945471D01*
X302944826Y-283588328D02*
X302944826Y-282588328D01*
X302944826Y-282088328D02*
X302873398Y-282159757D01*
X302873398Y-282159757D02*
X302944826Y-282231185D01*
X302944826Y-282231185D02*
X303016255Y-282159757D01*
X303016255Y-282159757D02*
X302944826Y-282088328D01*
X302944826Y-282088328D02*
X302944826Y-282231185D01*
X304516255Y-283445471D02*
X304444827Y-283516900D01*
X304444827Y-283516900D02*
X304230541Y-283588328D01*
X304230541Y-283588328D02*
X304087684Y-283588328D01*
X304087684Y-283588328D02*
X303873398Y-283516900D01*
X303873398Y-283516900D02*
X303730541Y-283374042D01*
X303730541Y-283374042D02*
X303659112Y-283231185D01*
X303659112Y-283231185D02*
X303587684Y-282945471D01*
X303587684Y-282945471D02*
X303587684Y-282731185D01*
X303587684Y-282731185D02*
X303659112Y-282445471D01*
X303659112Y-282445471D02*
X303730541Y-282302614D01*
X303730541Y-282302614D02*
X303873398Y-282159757D01*
X303873398Y-282159757D02*
X304087684Y-282088328D01*
X304087684Y-282088328D02*
X304230541Y-282088328D01*
X304230541Y-282088328D02*
X304444827Y-282159757D01*
X304444827Y-282159757D02*
X304516255Y-282231185D01*
X305801970Y-283588328D02*
X305801970Y-282802614D01*
X305801970Y-282802614D02*
X305730541Y-282659757D01*
X305730541Y-282659757D02*
X305587684Y-282588328D01*
X305587684Y-282588328D02*
X305301970Y-282588328D01*
X305301970Y-282588328D02*
X305159112Y-282659757D01*
X305801970Y-283516900D02*
X305659112Y-283588328D01*
X305659112Y-283588328D02*
X305301970Y-283588328D01*
X305301970Y-283588328D02*
X305159112Y-283516900D01*
X305159112Y-283516900D02*
X305087684Y-283374042D01*
X305087684Y-283374042D02*
X305087684Y-283231185D01*
X305087684Y-283231185D02*
X305159112Y-283088328D01*
X305159112Y-283088328D02*
X305301970Y-283016900D01*
X305301970Y-283016900D02*
X305659112Y-283016900D01*
X305659112Y-283016900D02*
X305801970Y-282945471D01*
X307159113Y-283588328D02*
X307159113Y-282088328D01*
X307159113Y-283516900D02*
X307016255Y-283588328D01*
X307016255Y-283588328D02*
X306730541Y-283588328D01*
X306730541Y-283588328D02*
X306587684Y-283516900D01*
X306587684Y-283516900D02*
X306516255Y-283445471D01*
X306516255Y-283445471D02*
X306444827Y-283302614D01*
X306444827Y-283302614D02*
X306444827Y-282874042D01*
X306444827Y-282874042D02*
X306516255Y-282731185D01*
X306516255Y-282731185D02*
X306587684Y-282659757D01*
X306587684Y-282659757D02*
X306730541Y-282588328D01*
X306730541Y-282588328D02*
X307016255Y-282588328D01*
X307016255Y-282588328D02*
X307159113Y-282659757D01*
X309016255Y-282802614D02*
X309516255Y-282802614D01*
X309730541Y-283588328D02*
X309016255Y-283588328D01*
X309016255Y-283588328D02*
X309016255Y-282088328D01*
X309016255Y-282088328D02*
X309730541Y-282088328D01*
X310373398Y-283445471D02*
X310444827Y-283516900D01*
X310444827Y-283516900D02*
X310373398Y-283588328D01*
X310373398Y-283588328D02*
X310301970Y-283516900D01*
X310301970Y-283516900D02*
X310373398Y-283445471D01*
X310373398Y-283445471D02*
X310373398Y-283588328D01*
X311087684Y-283588328D02*
X311087684Y-282088328D01*
X311087684Y-282088328D02*
X311444827Y-282088328D01*
X311444827Y-282088328D02*
X311659113Y-282159757D01*
X311659113Y-282159757D02*
X311801970Y-282302614D01*
X311801970Y-282302614D02*
X311873399Y-282445471D01*
X311873399Y-282445471D02*
X311944827Y-282731185D01*
X311944827Y-282731185D02*
X311944827Y-282945471D01*
X311944827Y-282945471D02*
X311873399Y-283231185D01*
X311873399Y-283231185D02*
X311801970Y-283374042D01*
X311801970Y-283374042D02*
X311659113Y-283516900D01*
X311659113Y-283516900D02*
X311444827Y-283588328D01*
X311444827Y-283588328D02*
X311087684Y-283588328D01*
X312587684Y-283445471D02*
X312659113Y-283516900D01*
X312659113Y-283516900D02*
X312587684Y-283588328D01*
X312587684Y-283588328D02*
X312516256Y-283516900D01*
X312516256Y-283516900D02*
X312587684Y-283445471D01*
X312587684Y-283445471D02*
X312587684Y-283588328D01*
X313230542Y-283159757D02*
X313944828Y-283159757D01*
X313087685Y-283588328D02*
X313587685Y-282088328D01*
X313587685Y-282088328D02*
X314087685Y-283588328D01*
X314587684Y-283445471D02*
X314659113Y-283516900D01*
X314659113Y-283516900D02*
X314587684Y-283588328D01*
X314587684Y-283588328D02*
X314516256Y-283516900D01*
X314516256Y-283516900D02*
X314587684Y-283445471D01*
X314587684Y-283445471D02*
X314587684Y-283588328D01*
X316516256Y-283588328D02*
X316801970Y-283588328D01*
X316801970Y-283588328D02*
X316944827Y-283516900D01*
X316944827Y-283516900D02*
X317016256Y-283445471D01*
X317016256Y-283445471D02*
X317159113Y-283231185D01*
X317159113Y-283231185D02*
X317230542Y-282945471D01*
X317230542Y-282945471D02*
X317230542Y-282374042D01*
X317230542Y-282374042D02*
X317159113Y-282231185D01*
X317159113Y-282231185D02*
X317087685Y-282159757D01*
X317087685Y-282159757D02*
X316944827Y-282088328D01*
X316944827Y-282088328D02*
X316659113Y-282088328D01*
X316659113Y-282088328D02*
X316516256Y-282159757D01*
X316516256Y-282159757D02*
X316444827Y-282231185D01*
X316444827Y-282231185D02*
X316373399Y-282374042D01*
X316373399Y-282374042D02*
X316373399Y-282731185D01*
X316373399Y-282731185D02*
X316444827Y-282874042D01*
X316444827Y-282874042D02*
X316516256Y-282945471D01*
X316516256Y-282945471D02*
X316659113Y-283016900D01*
X316659113Y-283016900D02*
X316944827Y-283016900D01*
X316944827Y-283016900D02*
X317087685Y-282945471D01*
X317087685Y-282945471D02*
X317159113Y-282874042D01*
X317159113Y-282874042D02*
X317230542Y-282731185D01*
X317873398Y-283445471D02*
X317944827Y-283516900D01*
X317944827Y-283516900D02*
X317873398Y-283588328D01*
X317873398Y-283588328D02*
X317801970Y-283516900D01*
X317801970Y-283516900D02*
X317873398Y-283445471D01*
X317873398Y-283445471D02*
X317873398Y-283588328D01*
X318873399Y-282088328D02*
X319016256Y-282088328D01*
X319016256Y-282088328D02*
X319159113Y-282159757D01*
X319159113Y-282159757D02*
X319230542Y-282231185D01*
X319230542Y-282231185D02*
X319301970Y-282374042D01*
X319301970Y-282374042D02*
X319373399Y-282659757D01*
X319373399Y-282659757D02*
X319373399Y-283016900D01*
X319373399Y-283016900D02*
X319301970Y-283302614D01*
X319301970Y-283302614D02*
X319230542Y-283445471D01*
X319230542Y-283445471D02*
X319159113Y-283516900D01*
X319159113Y-283516900D02*
X319016256Y-283588328D01*
X319016256Y-283588328D02*
X318873399Y-283588328D01*
X318873399Y-283588328D02*
X318730542Y-283516900D01*
X318730542Y-283516900D02*
X318659113Y-283445471D01*
X318659113Y-283445471D02*
X318587684Y-283302614D01*
X318587684Y-283302614D02*
X318516256Y-283016900D01*
X318516256Y-283016900D02*
X318516256Y-282659757D01*
X318516256Y-282659757D02*
X318587684Y-282374042D01*
X318587684Y-282374042D02*
X318659113Y-282231185D01*
X318659113Y-282231185D02*
X318730542Y-282159757D01*
X318730542Y-282159757D02*
X318873399Y-282088328D01*
X320016255Y-283445471D02*
X320087684Y-283516900D01*
X320087684Y-283516900D02*
X320016255Y-283588328D01*
X320016255Y-283588328D02*
X319944827Y-283516900D01*
X319944827Y-283516900D02*
X320016255Y-283445471D01*
X320016255Y-283445471D02*
X320016255Y-283588328D01*
X320587684Y-282088328D02*
X321516256Y-282088328D01*
X321516256Y-282088328D02*
X321016256Y-282659757D01*
X321016256Y-282659757D02*
X321230541Y-282659757D01*
X321230541Y-282659757D02*
X321373399Y-282731185D01*
X321373399Y-282731185D02*
X321444827Y-282802614D01*
X321444827Y-282802614D02*
X321516256Y-282945471D01*
X321516256Y-282945471D02*
X321516256Y-283302614D01*
X321516256Y-283302614D02*
X321444827Y-283445471D01*
X321444827Y-283445471D02*
X321373399Y-283516900D01*
X321373399Y-283516900D02*
X321230541Y-283588328D01*
X321230541Y-283588328D02*
X320801970Y-283588328D01*
X320801970Y-283588328D02*
X320659113Y-283516900D01*
X320659113Y-283516900D02*
X320587684Y-283445471D01*
D10*
D11*
X299989000Y-278502200D02*
X407989000Y-278502200D01*
D10*
D12*
X387400653Y-280780528D02*
X386900653Y-280066242D01*
X386543510Y-280780528D02*
X386543510Y-279280528D01*
X386543510Y-279280528D02*
X387114939Y-279280528D01*
X387114939Y-279280528D02*
X387257796Y-279351957D01*
X387257796Y-279351957D02*
X387329225Y-279423385D01*
X387329225Y-279423385D02*
X387400653Y-279566242D01*
X387400653Y-279566242D02*
X387400653Y-279780528D01*
X387400653Y-279780528D02*
X387329225Y-279923385D01*
X387329225Y-279923385D02*
X387257796Y-279994814D01*
X387257796Y-279994814D02*
X387114939Y-280066242D01*
X387114939Y-280066242D02*
X386543510Y-280066242D01*
X388614939Y-280709100D02*
X388472082Y-280780528D01*
X388472082Y-280780528D02*
X388186368Y-280780528D01*
X388186368Y-280780528D02*
X388043510Y-280709100D01*
X388043510Y-280709100D02*
X387972082Y-280566242D01*
X387972082Y-280566242D02*
X387972082Y-279994814D01*
X387972082Y-279994814D02*
X388043510Y-279851957D01*
X388043510Y-279851957D02*
X388186368Y-279780528D01*
X388186368Y-279780528D02*
X388472082Y-279780528D01*
X388472082Y-279780528D02*
X388614939Y-279851957D01*
X388614939Y-279851957D02*
X388686368Y-279994814D01*
X388686368Y-279994814D02*
X388686368Y-280137671D01*
X388686368Y-280137671D02*
X387972082Y-280280528D01*
X389186367Y-279780528D02*
X389543510Y-280780528D01*
X389543510Y-280780528D02*
X389900653Y-279780528D01*
X390472081Y-280637671D02*
X390543510Y-280709100D01*
X390543510Y-280709100D02*
X390472081Y-280780528D01*
X390472081Y-280780528D02*
X390400653Y-280709100D01*
X390400653Y-280709100D02*
X390472081Y-280637671D01*
X390472081Y-280637671D02*
X390472081Y-280780528D01*
X390472081Y-279851957D02*
X390543510Y-279923385D01*
X390543510Y-279923385D02*
X390472081Y-279994814D01*
X390472081Y-279994814D02*
X390400653Y-279923385D01*
X390400653Y-279923385D02*
X390472081Y-279851957D01*
X390472081Y-279851957D02*
X390472081Y-279994814D01*
D10*
D11*
X301373398Y-280716900D02*
X301587684Y-280788328D01*
X301587684Y-280788328D02*
X301944826Y-280788328D01*
X301944826Y-280788328D02*
X302087684Y-280716900D01*
X302087684Y-280716900D02*
X302159112Y-280645471D01*
X302159112Y-280645471D02*
X302230541Y-280502614D01*
X302230541Y-280502614D02*
X302230541Y-280359757D01*
X302230541Y-280359757D02*
X302159112Y-280216900D01*
X302159112Y-280216900D02*
X302087684Y-280145471D01*
X302087684Y-280145471D02*
X301944826Y-280074042D01*
X301944826Y-280074042D02*
X301659112Y-280002614D01*
X301659112Y-280002614D02*
X301516255Y-279931185D01*
X301516255Y-279931185D02*
X301444826Y-279859757D01*
X301444826Y-279859757D02*
X301373398Y-279716900D01*
X301373398Y-279716900D02*
X301373398Y-279574042D01*
X301373398Y-279574042D02*
X301444826Y-279431185D01*
X301444826Y-279431185D02*
X301516255Y-279359757D01*
X301516255Y-279359757D02*
X301659112Y-279288328D01*
X301659112Y-279288328D02*
X302016255Y-279288328D01*
X302016255Y-279288328D02*
X302230541Y-279359757D01*
X302873397Y-280788328D02*
X302873397Y-279788328D01*
X302873397Y-279288328D02*
X302801969Y-279359757D01*
X302801969Y-279359757D02*
X302873397Y-279431185D01*
X302873397Y-279431185D02*
X302944826Y-279359757D01*
X302944826Y-279359757D02*
X302873397Y-279288328D01*
X302873397Y-279288328D02*
X302873397Y-279431185D01*
X303444826Y-279788328D02*
X304230541Y-279788328D01*
X304230541Y-279788328D02*
X303444826Y-280788328D01*
X303444826Y-280788328D02*
X304230541Y-280788328D01*
X305373398Y-280716900D02*
X305230541Y-280788328D01*
X305230541Y-280788328D02*
X304944827Y-280788328D01*
X304944827Y-280788328D02*
X304801969Y-280716900D01*
X304801969Y-280716900D02*
X304730541Y-280574042D01*
X304730541Y-280574042D02*
X304730541Y-280002614D01*
X304730541Y-280002614D02*
X304801969Y-279859757D01*
X304801969Y-279859757D02*
X304944827Y-279788328D01*
X304944827Y-279788328D02*
X305230541Y-279788328D01*
X305230541Y-279788328D02*
X305373398Y-279859757D01*
X305373398Y-279859757D02*
X305444827Y-280002614D01*
X305444827Y-280002614D02*
X305444827Y-280145471D01*
X305444827Y-280145471D02*
X304730541Y-280288328D01*
X306087683Y-280645471D02*
X306159112Y-280716900D01*
X306159112Y-280716900D02*
X306087683Y-280788328D01*
X306087683Y-280788328D02*
X306016255Y-280716900D01*
X306016255Y-280716900D02*
X306087683Y-280645471D01*
X306087683Y-280645471D02*
X306087683Y-280788328D01*
X306087683Y-279859757D02*
X306159112Y-279931185D01*
X306159112Y-279931185D02*
X306087683Y-280002614D01*
X306087683Y-280002614D02*
X306016255Y-279931185D01*
X306016255Y-279931185D02*
X306087683Y-279859757D01*
X306087683Y-279859757D02*
X306087683Y-280002614D01*
X307873398Y-280359757D02*
X308587684Y-280359757D01*
X307730541Y-280788328D02*
X308230541Y-279288328D01*
X308230541Y-279288328D02*
X308730541Y-280788328D01*
X309087683Y-279288328D02*
X310016255Y-279288328D01*
X310016255Y-279288328D02*
X309516255Y-279859757D01*
X309516255Y-279859757D02*
X309730540Y-279859757D01*
X309730540Y-279859757D02*
X309873398Y-279931185D01*
X309873398Y-279931185D02*
X309944826Y-280002614D01*
X309944826Y-280002614D02*
X310016255Y-280145471D01*
X310016255Y-280145471D02*
X310016255Y-280502614D01*
X310016255Y-280502614D02*
X309944826Y-280645471D01*
X309944826Y-280645471D02*
X309873398Y-280716900D01*
X309873398Y-280716900D02*
X309730540Y-280788328D01*
X309730540Y-280788328D02*
X309301969Y-280788328D01*
X309301969Y-280788328D02*
X309159112Y-280716900D01*
X309159112Y-280716900D02*
X309087683Y-280645471D01*
D10*
D11*
X386444826Y-283588328D02*
X386444826Y-282088328D01*
X387801970Y-283588328D02*
X387801970Y-282088328D01*
X387801970Y-283516900D02*
X387659112Y-283588328D01*
X387659112Y-283588328D02*
X387373398Y-283588328D01*
X387373398Y-283588328D02*
X387230541Y-283516900D01*
X387230541Y-283516900D02*
X387159112Y-283445471D01*
X387159112Y-283445471D02*
X387087684Y-283302614D01*
X387087684Y-283302614D02*
X387087684Y-282874042D01*
X387087684Y-282874042D02*
X387159112Y-282731185D01*
X387159112Y-282731185D02*
X387230541Y-282659757D01*
X387230541Y-282659757D02*
X387373398Y-282588328D01*
X387373398Y-282588328D02*
X387659112Y-282588328D01*
X387659112Y-282588328D02*
X387801970Y-282659757D01*
X388516255Y-283445471D02*
X388587684Y-283516900D01*
X388587684Y-283516900D02*
X388516255Y-283588328D01*
X388516255Y-283588328D02*
X388444827Y-283516900D01*
X388444827Y-283516900D02*
X388516255Y-283445471D01*
X388516255Y-283445471D02*
X388516255Y-283588328D01*
X388516255Y-282659757D02*
X388587684Y-282731185D01*
X388587684Y-282731185D02*
X388516255Y-282802614D01*
X388516255Y-282802614D02*
X388444827Y-282731185D01*
X388444827Y-282731185D02*
X388516255Y-282659757D01*
X388516255Y-282659757D02*
X388516255Y-282802614D01*
X390301970Y-282231185D02*
X390373398Y-282159757D01*
X390373398Y-282159757D02*
X390516256Y-282088328D01*
X390516256Y-282088328D02*
X390873398Y-282088328D01*
X390873398Y-282088328D02*
X391016256Y-282159757D01*
X391016256Y-282159757D02*
X391087684Y-282231185D01*
X391087684Y-282231185D02*
X391159113Y-282374042D01*
X391159113Y-282374042D02*
X391159113Y-282516900D01*
X391159113Y-282516900D02*
X391087684Y-282731185D01*
X391087684Y-282731185D02*
X390230541Y-283588328D01*
X390230541Y-283588328D02*
X391159113Y-283588328D01*
X392873398Y-282016900D02*
X391587684Y-283945471D01*
X393444827Y-283588328D02*
X393730541Y-283588328D01*
X393730541Y-283588328D02*
X393873398Y-283516900D01*
X393873398Y-283516900D02*
X393944827Y-283445471D01*
X393944827Y-283445471D02*
X394087684Y-283231185D01*
X394087684Y-283231185D02*
X394159113Y-282945471D01*
X394159113Y-282945471D02*
X394159113Y-282374042D01*
X394159113Y-282374042D02*
X394087684Y-282231185D01*
X394087684Y-282231185D02*
X394016256Y-282159757D01*
X394016256Y-282159757D02*
X393873398Y-282088328D01*
X393873398Y-282088328D02*
X393587684Y-282088328D01*
X393587684Y-282088328D02*
X393444827Y-282159757D01*
X393444827Y-282159757D02*
X393373398Y-282231185D01*
X393373398Y-282231185D02*
X393301970Y-282374042D01*
X393301970Y-282374042D02*
X393301970Y-282731185D01*
X393301970Y-282731185D02*
X393373398Y-282874042D01*
X393373398Y-282874042D02*
X393444827Y-282945471D01*
X393444827Y-282945471D02*
X393587684Y-283016900D01*
X393587684Y-283016900D02*
X393873398Y-283016900D01*
X393873398Y-283016900D02*
X394016256Y-282945471D01*
X394016256Y-282945471D02*
X394087684Y-282874042D01*
X394087684Y-282874042D02*
X394159113Y-282731185D01*
D10*
D11*
X299989000Y-274502200D02*
X407989000Y-274502200D01*
D10*
D13*
X301680728Y-275206638D02*
X302823585Y-275206638D01*
X302002157Y-277206638D02*
X302252157Y-275206638D01*
X303240252Y-277206638D02*
X303406919Y-275873304D01*
X303490252Y-275206638D02*
X303383109Y-275301876D01*
X303383109Y-275301876D02*
X303466443Y-275397114D01*
X303466443Y-275397114D02*
X303573586Y-275301876D01*
X303573586Y-275301876D02*
X303490252Y-275206638D01*
X303490252Y-275206638D02*
X303466443Y-275397114D01*
X304073586Y-275873304D02*
X304835490Y-275873304D01*
X304442633Y-275206638D02*
X304228348Y-276920923D01*
X304228348Y-276920923D02*
X304299776Y-277111400D01*
X304299776Y-277111400D02*
X304478348Y-277206638D01*
X304478348Y-277206638D02*
X304668824Y-277206638D01*
X305621205Y-277206638D02*
X305442633Y-277111400D01*
X305442633Y-277111400D02*
X305371205Y-276920923D01*
X305371205Y-276920923D02*
X305585490Y-275206638D01*
X307156919Y-277111400D02*
X306954538Y-277206638D01*
X306954538Y-277206638D02*
X306573585Y-277206638D01*
X306573585Y-277206638D02*
X306395014Y-277111400D01*
X306395014Y-277111400D02*
X306323585Y-276920923D01*
X306323585Y-276920923D02*
X306418824Y-276159019D01*
X306418824Y-276159019D02*
X306537871Y-275968542D01*
X306537871Y-275968542D02*
X306740252Y-275873304D01*
X306740252Y-275873304D02*
X307121204Y-275873304D01*
X307121204Y-275873304D02*
X307299776Y-275968542D01*
X307299776Y-275968542D02*
X307371204Y-276159019D01*
X307371204Y-276159019D02*
X307347395Y-276349495D01*
X307347395Y-276349495D02*
X306371204Y-276539971D01*
X308121205Y-277016161D02*
X308204538Y-277111400D01*
X308204538Y-277111400D02*
X308097395Y-277206638D01*
X308097395Y-277206638D02*
X308014062Y-277111400D01*
X308014062Y-277111400D02*
X308121205Y-277016161D01*
X308121205Y-277016161D02*
X308097395Y-277206638D01*
X308252157Y-275968542D02*
X308335490Y-276063780D01*
X308335490Y-276063780D02*
X308228348Y-276159019D01*
X308228348Y-276159019D02*
X308145014Y-276063780D01*
X308145014Y-276063780D02*
X308252157Y-275968542D01*
X308252157Y-275968542D02*
X308228348Y-276159019D01*
D10*
D11*
X301944826Y-272602614D02*
X301444826Y-272602614D01*
X301444826Y-273388328D02*
X301444826Y-271888328D01*
X301444826Y-271888328D02*
X302159112Y-271888328D01*
X302730540Y-273388328D02*
X302730540Y-272388328D01*
X302730540Y-271888328D02*
X302659112Y-271959757D01*
X302659112Y-271959757D02*
X302730540Y-272031185D01*
X302730540Y-272031185D02*
X302801969Y-271959757D01*
X302801969Y-271959757D02*
X302730540Y-271888328D01*
X302730540Y-271888328D02*
X302730540Y-272031185D01*
X303659112Y-273388328D02*
X303516255Y-273316900D01*
X303516255Y-273316900D02*
X303444826Y-273174042D01*
X303444826Y-273174042D02*
X303444826Y-271888328D01*
X304801969Y-273316900D02*
X304659112Y-273388328D01*
X304659112Y-273388328D02*
X304373398Y-273388328D01*
X304373398Y-273388328D02*
X304230540Y-273316900D01*
X304230540Y-273316900D02*
X304159112Y-273174042D01*
X304159112Y-273174042D02*
X304159112Y-272602614D01*
X304159112Y-272602614D02*
X304230540Y-272459757D01*
X304230540Y-272459757D02*
X304373398Y-272388328D01*
X304373398Y-272388328D02*
X304659112Y-272388328D01*
X304659112Y-272388328D02*
X304801969Y-272459757D01*
X304801969Y-272459757D02*
X304873398Y-272602614D01*
X304873398Y-272602614D02*
X304873398Y-272745471D01*
X304873398Y-272745471D02*
X304159112Y-272888328D01*
X305516254Y-273245471D02*
X305587683Y-273316900D01*
X305587683Y-273316900D02*
X305516254Y-273388328D01*
X305516254Y-273388328D02*
X305444826Y-273316900D01*
X305444826Y-273316900D02*
X305516254Y-273245471D01*
X305516254Y-273245471D02*
X305516254Y-273388328D01*
X305516254Y-272459757D02*
X305587683Y-272531185D01*
X305587683Y-272531185D02*
X305516254Y-272602614D01*
X305516254Y-272602614D02*
X305444826Y-272531185D01*
X305444826Y-272531185D02*
X305516254Y-272459757D01*
X305516254Y-272459757D02*
X305516254Y-272602614D01*
X307373397Y-273388328D02*
X307373397Y-271888328D01*
X307373397Y-271888328D02*
X307873397Y-272959757D01*
X307873397Y-272959757D02*
X308373397Y-271888328D01*
X308373397Y-271888328D02*
X308373397Y-273388328D01*
X309659112Y-273316900D02*
X309516255Y-273388328D01*
X309516255Y-273388328D02*
X309230541Y-273388328D01*
X309230541Y-273388328D02*
X309087683Y-273316900D01*
X309087683Y-273316900D02*
X309016255Y-273174042D01*
X309016255Y-273174042D02*
X309016255Y-272602614D01*
X309016255Y-272602614D02*
X309087683Y-272459757D01*
X309087683Y-272459757D02*
X309230541Y-272388328D01*
X309230541Y-272388328D02*
X309516255Y-272388328D01*
X309516255Y-272388328D02*
X309659112Y-272459757D01*
X309659112Y-272459757D02*
X309730541Y-272602614D01*
X309730541Y-272602614D02*
X309730541Y-272745471D01*
X309730541Y-272745471D02*
X309016255Y-272888328D01*
X311016255Y-273316900D02*
X310873397Y-273388328D01*
X310873397Y-273388328D02*
X310587683Y-273388328D01*
X310587683Y-273388328D02*
X310444826Y-273316900D01*
X310444826Y-273316900D02*
X310373397Y-273245471D01*
X310373397Y-273245471D02*
X310301969Y-273102614D01*
X310301969Y-273102614D02*
X310301969Y-272674042D01*
X310301969Y-272674042D02*
X310373397Y-272531185D01*
X310373397Y-272531185D02*
X310444826Y-272459757D01*
X310444826Y-272459757D02*
X310587683Y-272388328D01*
X310587683Y-272388328D02*
X310873397Y-272388328D01*
X310873397Y-272388328D02*
X311016255Y-272459757D01*
X311659111Y-273388328D02*
X311659111Y-271888328D01*
X312301969Y-273388328D02*
X312301969Y-272602614D01*
X312301969Y-272602614D02*
X312230540Y-272459757D01*
X312230540Y-272459757D02*
X312087683Y-272388328D01*
X312087683Y-272388328D02*
X311873397Y-272388328D01*
X311873397Y-272388328D02*
X311730540Y-272459757D01*
X311730540Y-272459757D02*
X311659111Y-272531185D01*
X313659112Y-273388328D02*
X313659112Y-272602614D01*
X313659112Y-272602614D02*
X313587683Y-272459757D01*
X313587683Y-272459757D02*
X313444826Y-272388328D01*
X313444826Y-272388328D02*
X313159112Y-272388328D01*
X313159112Y-272388328D02*
X313016254Y-272459757D01*
X313659112Y-273316900D02*
X313516254Y-273388328D01*
X313516254Y-273388328D02*
X313159112Y-273388328D01*
X313159112Y-273388328D02*
X313016254Y-273316900D01*
X313016254Y-273316900D02*
X312944826Y-273174042D01*
X312944826Y-273174042D02*
X312944826Y-273031185D01*
X312944826Y-273031185D02*
X313016254Y-272888328D01*
X313016254Y-272888328D02*
X313159112Y-272816900D01*
X313159112Y-272816900D02*
X313516254Y-272816900D01*
X313516254Y-272816900D02*
X313659112Y-272745471D01*
X314373397Y-272388328D02*
X314373397Y-273388328D01*
X314373397Y-272531185D02*
X314444826Y-272459757D01*
X314444826Y-272459757D02*
X314587683Y-272388328D01*
X314587683Y-272388328D02*
X314801969Y-272388328D01*
X314801969Y-272388328D02*
X314944826Y-272459757D01*
X314944826Y-272459757D02*
X315016255Y-272602614D01*
X315016255Y-272602614D02*
X315016255Y-273388328D01*
X315730540Y-273388328D02*
X315730540Y-272388328D01*
X315730540Y-271888328D02*
X315659112Y-271959757D01*
X315659112Y-271959757D02*
X315730540Y-272031185D01*
X315730540Y-272031185D02*
X315801969Y-271959757D01*
X315801969Y-271959757D02*
X315730540Y-271888328D01*
X315730540Y-271888328D02*
X315730540Y-272031185D01*
X317087684Y-273316900D02*
X316944826Y-273388328D01*
X316944826Y-273388328D02*
X316659112Y-273388328D01*
X316659112Y-273388328D02*
X316516255Y-273316900D01*
X316516255Y-273316900D02*
X316444826Y-273245471D01*
X316444826Y-273245471D02*
X316373398Y-273102614D01*
X316373398Y-273102614D02*
X316373398Y-272674042D01*
X316373398Y-272674042D02*
X316444826Y-272531185D01*
X316444826Y-272531185D02*
X316516255Y-272459757D01*
X316516255Y-272459757D02*
X316659112Y-272388328D01*
X316659112Y-272388328D02*
X316944826Y-272388328D01*
X316944826Y-272388328D02*
X317087684Y-272459757D01*
X318373398Y-273388328D02*
X318373398Y-272602614D01*
X318373398Y-272602614D02*
X318301969Y-272459757D01*
X318301969Y-272459757D02*
X318159112Y-272388328D01*
X318159112Y-272388328D02*
X317873398Y-272388328D01*
X317873398Y-272388328D02*
X317730540Y-272459757D01*
X318373398Y-273316900D02*
X318230540Y-273388328D01*
X318230540Y-273388328D02*
X317873398Y-273388328D01*
X317873398Y-273388328D02*
X317730540Y-273316900D01*
X317730540Y-273316900D02*
X317659112Y-273174042D01*
X317659112Y-273174042D02*
X317659112Y-273031185D01*
X317659112Y-273031185D02*
X317730540Y-272888328D01*
X317730540Y-272888328D02*
X317873398Y-272816900D01*
X317873398Y-272816900D02*
X318230540Y-272816900D01*
X318230540Y-272816900D02*
X318373398Y-272745471D01*
X319301969Y-273388328D02*
X319159112Y-273316900D01*
X319159112Y-273316900D02*
X319087683Y-273174042D01*
X319087683Y-273174042D02*
X319087683Y-271888328D01*
X319873397Y-272816900D02*
X321016255Y-272816900D01*
X321730540Y-273388328D02*
X321730540Y-271888328D01*
X321730540Y-271888328D02*
X322301969Y-271888328D01*
X322301969Y-271888328D02*
X322444826Y-271959757D01*
X322444826Y-271959757D02*
X322516255Y-272031185D01*
X322516255Y-272031185D02*
X322587683Y-272174042D01*
X322587683Y-272174042D02*
X322587683Y-272388328D01*
X322587683Y-272388328D02*
X322516255Y-272531185D01*
X322516255Y-272531185D02*
X322444826Y-272602614D01*
X322444826Y-272602614D02*
X322301969Y-272674042D01*
X322301969Y-272674042D02*
X321730540Y-272674042D01*
X323230540Y-273388328D02*
X323230540Y-272388328D01*
X323230540Y-271888328D02*
X323159112Y-271959757D01*
X323159112Y-271959757D02*
X323230540Y-272031185D01*
X323230540Y-272031185D02*
X323301969Y-271959757D01*
X323301969Y-271959757D02*
X323230540Y-271888328D01*
X323230540Y-271888328D02*
X323230540Y-272031185D01*
X324587684Y-273316900D02*
X324444826Y-273388328D01*
X324444826Y-273388328D02*
X324159112Y-273388328D01*
X324159112Y-273388328D02*
X324016255Y-273316900D01*
X324016255Y-273316900D02*
X323944826Y-273245471D01*
X323944826Y-273245471D02*
X323873398Y-273102614D01*
X323873398Y-273102614D02*
X323873398Y-272674042D01*
X323873398Y-272674042D02*
X323944826Y-272531185D01*
X323944826Y-272531185D02*
X324016255Y-272459757D01*
X324016255Y-272459757D02*
X324159112Y-272388328D01*
X324159112Y-272388328D02*
X324444826Y-272388328D01*
X324444826Y-272388328D02*
X324587684Y-272459757D01*
X325444826Y-273388328D02*
X325301969Y-273316900D01*
X325301969Y-273316900D02*
X325230540Y-273245471D01*
X325230540Y-273245471D02*
X325159112Y-273102614D01*
X325159112Y-273102614D02*
X325159112Y-272674042D01*
X325159112Y-272674042D02*
X325230540Y-272531185D01*
X325230540Y-272531185D02*
X325301969Y-272459757D01*
X325301969Y-272459757D02*
X325444826Y-272388328D01*
X325444826Y-272388328D02*
X325659112Y-272388328D01*
X325659112Y-272388328D02*
X325801969Y-272459757D01*
X325801969Y-272459757D02*
X325873398Y-272531185D01*
X325873398Y-272531185D02*
X325944826Y-272674042D01*
X325944826Y-272674042D02*
X325944826Y-273102614D01*
X325944826Y-273102614D02*
X325873398Y-273245471D01*
X325873398Y-273245471D02*
X325801969Y-273316900D01*
X325801969Y-273316900D02*
X325659112Y-273388328D01*
X325659112Y-273388328D02*
X325444826Y-273388328D01*
X327087683Y-272602614D02*
X327301969Y-272674042D01*
X327301969Y-272674042D02*
X327373398Y-272745471D01*
X327373398Y-272745471D02*
X327444826Y-272888328D01*
X327444826Y-272888328D02*
X327444826Y-273102614D01*
X327444826Y-273102614D02*
X327373398Y-273245471D01*
X327373398Y-273245471D02*
X327301969Y-273316900D01*
X327301969Y-273316900D02*
X327159112Y-273388328D01*
X327159112Y-273388328D02*
X326587683Y-273388328D01*
X326587683Y-273388328D02*
X326587683Y-271888328D01*
X326587683Y-271888328D02*
X327087683Y-271888328D01*
X327087683Y-271888328D02*
X327230541Y-271959757D01*
X327230541Y-271959757D02*
X327301969Y-272031185D01*
X327301969Y-272031185D02*
X327373398Y-272174042D01*
X327373398Y-272174042D02*
X327373398Y-272316900D01*
X327373398Y-272316900D02*
X327301969Y-272459757D01*
X327301969Y-272459757D02*
X327230541Y-272531185D01*
X327230541Y-272531185D02*
X327087683Y-272602614D01*
X327087683Y-272602614D02*
X326587683Y-272602614D01*
X328301969Y-273388328D02*
X328159112Y-273316900D01*
X328159112Y-273316900D02*
X328087683Y-273245471D01*
X328087683Y-273245471D02*
X328016255Y-273102614D01*
X328016255Y-273102614D02*
X328016255Y-272674042D01*
X328016255Y-272674042D02*
X328087683Y-272531185D01*
X328087683Y-272531185D02*
X328159112Y-272459757D01*
X328159112Y-272459757D02*
X328301969Y-272388328D01*
X328301969Y-272388328D02*
X328516255Y-272388328D01*
X328516255Y-272388328D02*
X328659112Y-272459757D01*
X328659112Y-272459757D02*
X328730541Y-272531185D01*
X328730541Y-272531185D02*
X328801969Y-272674042D01*
X328801969Y-272674042D02*
X328801969Y-273102614D01*
X328801969Y-273102614D02*
X328730541Y-273245471D01*
X328730541Y-273245471D02*
X328659112Y-273316900D01*
X328659112Y-273316900D02*
X328516255Y-273388328D01*
X328516255Y-273388328D02*
X328301969Y-273388328D01*
X330087684Y-273388328D02*
X330087684Y-272602614D01*
X330087684Y-272602614D02*
X330016255Y-272459757D01*
X330016255Y-272459757D02*
X329873398Y-272388328D01*
X329873398Y-272388328D02*
X329587684Y-272388328D01*
X329587684Y-272388328D02*
X329444826Y-272459757D01*
X330087684Y-273316900D02*
X329944826Y-273388328D01*
X329944826Y-273388328D02*
X329587684Y-273388328D01*
X329587684Y-273388328D02*
X329444826Y-273316900D01*
X329444826Y-273316900D02*
X329373398Y-273174042D01*
X329373398Y-273174042D02*
X329373398Y-273031185D01*
X329373398Y-273031185D02*
X329444826Y-272888328D01*
X329444826Y-272888328D02*
X329587684Y-272816900D01*
X329587684Y-272816900D02*
X329944826Y-272816900D01*
X329944826Y-272816900D02*
X330087684Y-272745471D01*
X330801969Y-273388328D02*
X330801969Y-272388328D01*
X330801969Y-272674042D02*
X330873398Y-272531185D01*
X330873398Y-272531185D02*
X330944827Y-272459757D01*
X330944827Y-272459757D02*
X331087684Y-272388328D01*
X331087684Y-272388328D02*
X331230541Y-272388328D01*
X332373398Y-273388328D02*
X332373398Y-271888328D01*
X332373398Y-273316900D02*
X332230540Y-273388328D01*
X332230540Y-273388328D02*
X331944826Y-273388328D01*
X331944826Y-273388328D02*
X331801969Y-273316900D01*
X331801969Y-273316900D02*
X331730540Y-273245471D01*
X331730540Y-273245471D02*
X331659112Y-273102614D01*
X331659112Y-273102614D02*
X331659112Y-272674042D01*
X331659112Y-272674042D02*
X331730540Y-272531185D01*
X331730540Y-272531185D02*
X331801969Y-272459757D01*
X331801969Y-272459757D02*
X331944826Y-272388328D01*
X331944826Y-272388328D02*
X332230540Y-272388328D01*
X332230540Y-272388328D02*
X332373398Y-272459757D01*
X333087683Y-272816900D02*
X334230541Y-272816900D01*
X334801969Y-271888328D02*
X335159112Y-273388328D01*
X335159112Y-273388328D02*
X335444826Y-272316900D01*
X335444826Y-272316900D02*
X335730541Y-273388328D01*
X335730541Y-273388328D02*
X336087684Y-271888328D01*
X336659112Y-273245471D02*
X336730541Y-273316900D01*
X336730541Y-273316900D02*
X336659112Y-273388328D01*
X336659112Y-273388328D02*
X336587684Y-273316900D01*
X336587684Y-273316900D02*
X336659112Y-273245471D01*
X336659112Y-273245471D02*
X336659112Y-273388328D01*
X337373398Y-273388328D02*
X337373398Y-271888328D01*
X337516256Y-272816900D02*
X337944827Y-273388328D01*
X337944827Y-272388328D02*
X337373398Y-272959757D01*
X338587684Y-273388328D02*
X338587684Y-272388328D01*
X338587684Y-271888328D02*
X338516256Y-271959757D01*
X338516256Y-271959757D02*
X338587684Y-272031185D01*
X338587684Y-272031185D02*
X338659113Y-271959757D01*
X338659113Y-271959757D02*
X338587684Y-271888328D01*
X338587684Y-271888328D02*
X338587684Y-272031185D01*
X339944828Y-273316900D02*
X339801970Y-273388328D01*
X339801970Y-273388328D02*
X339516256Y-273388328D01*
X339516256Y-273388328D02*
X339373399Y-273316900D01*
X339373399Y-273316900D02*
X339301970Y-273245471D01*
X339301970Y-273245471D02*
X339230542Y-273102614D01*
X339230542Y-273102614D02*
X339230542Y-272674042D01*
X339230542Y-272674042D02*
X339301970Y-272531185D01*
X339301970Y-272531185D02*
X339373399Y-272459757D01*
X339373399Y-272459757D02*
X339516256Y-272388328D01*
X339516256Y-272388328D02*
X339801970Y-272388328D01*
X339801970Y-272388328D02*
X339944828Y-272459757D01*
X341230542Y-273388328D02*
X341230542Y-272602614D01*
X341230542Y-272602614D02*
X341159113Y-272459757D01*
X341159113Y-272459757D02*
X341016256Y-272388328D01*
X341016256Y-272388328D02*
X340730542Y-272388328D01*
X340730542Y-272388328D02*
X340587684Y-272459757D01*
X341230542Y-273316900D02*
X341087684Y-273388328D01*
X341087684Y-273388328D02*
X340730542Y-273388328D01*
X340730542Y-273388328D02*
X340587684Y-273316900D01*
X340587684Y-273316900D02*
X340516256Y-273174042D01*
X340516256Y-273174042D02*
X340516256Y-273031185D01*
X340516256Y-273031185D02*
X340587684Y-272888328D01*
X340587684Y-272888328D02*
X340730542Y-272816900D01*
X340730542Y-272816900D02*
X341087684Y-272816900D01*
X341087684Y-272816900D02*
X341230542Y-272745471D01*
X342587685Y-273388328D02*
X342587685Y-271888328D01*
X342587685Y-273316900D02*
X342444827Y-273388328D01*
X342444827Y-273388328D02*
X342159113Y-273388328D01*
X342159113Y-273388328D02*
X342016256Y-273316900D01*
X342016256Y-273316900D02*
X341944827Y-273245471D01*
X341944827Y-273245471D02*
X341873399Y-273102614D01*
X341873399Y-273102614D02*
X341873399Y-272674042D01*
X341873399Y-272674042D02*
X341944827Y-272531185D01*
X341944827Y-272531185D02*
X342016256Y-272459757D01*
X342016256Y-272459757D02*
X342159113Y-272388328D01*
X342159113Y-272388328D02*
X342444827Y-272388328D01*
X342444827Y-272388328D02*
X342587685Y-272459757D01*
X342944828Y-273531185D02*
X344087685Y-273531185D01*
X344444827Y-272388328D02*
X344444827Y-273888328D01*
X344444827Y-272459757D02*
X344587685Y-272388328D01*
X344587685Y-272388328D02*
X344873399Y-272388328D01*
X344873399Y-272388328D02*
X345016256Y-272459757D01*
X345016256Y-272459757D02*
X345087685Y-272531185D01*
X345087685Y-272531185D02*
X345159113Y-272674042D01*
X345159113Y-272674042D02*
X345159113Y-273102614D01*
X345159113Y-273102614D02*
X345087685Y-273245471D01*
X345087685Y-273245471D02*
X345016256Y-273316900D01*
X345016256Y-273316900D02*
X344873399Y-273388328D01*
X344873399Y-273388328D02*
X344587685Y-273388328D01*
X344587685Y-273388328D02*
X344444827Y-273316900D01*
X346444828Y-273316900D02*
X346301970Y-273388328D01*
X346301970Y-273388328D02*
X346016256Y-273388328D01*
X346016256Y-273388328D02*
X345873399Y-273316900D01*
X345873399Y-273316900D02*
X345801970Y-273245471D01*
X345801970Y-273245471D02*
X345730542Y-273102614D01*
X345730542Y-273102614D02*
X345730542Y-272674042D01*
X345730542Y-272674042D02*
X345801970Y-272531185D01*
X345801970Y-272531185D02*
X345873399Y-272459757D01*
X345873399Y-272459757D02*
X346016256Y-272388328D01*
X346016256Y-272388328D02*
X346301970Y-272388328D01*
X346301970Y-272388328D02*
X346444828Y-272459757D01*
X347087684Y-273388328D02*
X347087684Y-271888328D01*
X347087684Y-272459757D02*
X347230542Y-272388328D01*
X347230542Y-272388328D02*
X347516256Y-272388328D01*
X347516256Y-272388328D02*
X347659113Y-272459757D01*
X347659113Y-272459757D02*
X347730542Y-272531185D01*
X347730542Y-272531185D02*
X347801970Y-272674042D01*
X347801970Y-272674042D02*
X347801970Y-273102614D01*
X347801970Y-273102614D02*
X347730542Y-273245471D01*
X347730542Y-273245471D02*
X347659113Y-273316900D01*
X347659113Y-273316900D02*
X347516256Y-273388328D01*
X347516256Y-273388328D02*
X347230542Y-273388328D01*
X347230542Y-273388328D02*
X347087684Y-273316900D01*
D10*
D11*
X299989000Y-268502200D02*
X407989000Y-268502200D01*
D10*
D11*
X301373398Y-270616900D02*
X301587684Y-270688328D01*
X301587684Y-270688328D02*
X301944826Y-270688328D01*
X301944826Y-270688328D02*
X302087684Y-270616900D01*
X302087684Y-270616900D02*
X302159112Y-270545471D01*
X302159112Y-270545471D02*
X302230541Y-270402614D01*
X302230541Y-270402614D02*
X302230541Y-270259757D01*
X302230541Y-270259757D02*
X302159112Y-270116900D01*
X302159112Y-270116900D02*
X302087684Y-270045471D01*
X302087684Y-270045471D02*
X301944826Y-269974042D01*
X301944826Y-269974042D02*
X301659112Y-269902614D01*
X301659112Y-269902614D02*
X301516255Y-269831185D01*
X301516255Y-269831185D02*
X301444826Y-269759757D01*
X301444826Y-269759757D02*
X301373398Y-269616900D01*
X301373398Y-269616900D02*
X301373398Y-269474042D01*
X301373398Y-269474042D02*
X301444826Y-269331185D01*
X301444826Y-269331185D02*
X301516255Y-269259757D01*
X301516255Y-269259757D02*
X301659112Y-269188328D01*
X301659112Y-269188328D02*
X302016255Y-269188328D01*
X302016255Y-269188328D02*
X302230541Y-269259757D01*
X302873397Y-270688328D02*
X302873397Y-269188328D01*
X303516255Y-270688328D02*
X303516255Y-269902614D01*
X303516255Y-269902614D02*
X303444826Y-269759757D01*
X303444826Y-269759757D02*
X303301969Y-269688328D01*
X303301969Y-269688328D02*
X303087683Y-269688328D01*
X303087683Y-269688328D02*
X302944826Y-269759757D01*
X302944826Y-269759757D02*
X302873397Y-269831185D01*
X304801969Y-270616900D02*
X304659112Y-270688328D01*
X304659112Y-270688328D02*
X304373398Y-270688328D01*
X304373398Y-270688328D02*
X304230540Y-270616900D01*
X304230540Y-270616900D02*
X304159112Y-270474042D01*
X304159112Y-270474042D02*
X304159112Y-269902614D01*
X304159112Y-269902614D02*
X304230540Y-269759757D01*
X304230540Y-269759757D02*
X304373398Y-269688328D01*
X304373398Y-269688328D02*
X304659112Y-269688328D01*
X304659112Y-269688328D02*
X304801969Y-269759757D01*
X304801969Y-269759757D02*
X304873398Y-269902614D01*
X304873398Y-269902614D02*
X304873398Y-270045471D01*
X304873398Y-270045471D02*
X304159112Y-270188328D01*
X306087683Y-270616900D02*
X305944826Y-270688328D01*
X305944826Y-270688328D02*
X305659112Y-270688328D01*
X305659112Y-270688328D02*
X305516254Y-270616900D01*
X305516254Y-270616900D02*
X305444826Y-270474042D01*
X305444826Y-270474042D02*
X305444826Y-269902614D01*
X305444826Y-269902614D02*
X305516254Y-269759757D01*
X305516254Y-269759757D02*
X305659112Y-269688328D01*
X305659112Y-269688328D02*
X305944826Y-269688328D01*
X305944826Y-269688328D02*
X306087683Y-269759757D01*
X306087683Y-269759757D02*
X306159112Y-269902614D01*
X306159112Y-269902614D02*
X306159112Y-270045471D01*
X306159112Y-270045471D02*
X305444826Y-270188328D01*
X306587683Y-269688328D02*
X307159111Y-269688328D01*
X306801968Y-269188328D02*
X306801968Y-270474042D01*
X306801968Y-270474042D02*
X306873397Y-270616900D01*
X306873397Y-270616900D02*
X307016254Y-270688328D01*
X307016254Y-270688328D02*
X307159111Y-270688328D01*
X307659111Y-270545471D02*
X307730540Y-270616900D01*
X307730540Y-270616900D02*
X307659111Y-270688328D01*
X307659111Y-270688328D02*
X307587683Y-270616900D01*
X307587683Y-270616900D02*
X307659111Y-270545471D01*
X307659111Y-270545471D02*
X307659111Y-270688328D01*
X307659111Y-269759757D02*
X307730540Y-269831185D01*
X307730540Y-269831185D02*
X307659111Y-269902614D01*
X307659111Y-269902614D02*
X307587683Y-269831185D01*
X307587683Y-269831185D02*
X307659111Y-269759757D01*
X307659111Y-269759757D02*
X307659111Y-269902614D01*
D10*
D11*
X319989000Y-278502200D02*
X319989000Y-281502200D01*
D10*
D11*
X383989000Y-278502200D02*
X383989000Y-285002200D01*
D14*
%TO.P,SW48,1,1*%
%TO.N,Net-(D48-A)*%
X99330625Y-92901250D03*
%TO.P,SW48,2,2*%
%TO.N,Col5*%
X92980625Y-95441250D03*
%TD*%
%TO.P,SW49,1,1*%
%TO.N,Net-(D49-A)*%
X118380625Y-92901250D03*
%TO.P,SW49,2,2*%
%TO.N,Col6*%
X112030625Y-95441250D03*
%TD*%
%TO.P,SW23,1,1*%
%TO.N,Net-(D23-A)*%
X161243125Y-54801250D03*
%TO.P,SW23,2,2*%
%TO.N,Col8*%
X154893125Y-57341250D03*
%TD*%
D15*
%TO.P,SW69,A,A*%
%TO.N,Net-(A1-GPIO16)*%
X227465625Y-114518750D03*
D16*
%TO.P,SW69,B,B*%
%TO.N,Net-(A1-GPIO17)*%
X227465625Y-119518750D03*
%TO.P,SW69,C,C*%
%TO.N,Net-(BT1--)*%
X227465625Y-117018750D03*
D17*
%TO.P,SW69,MP*%
%TO.N,N/C*%
X234965625Y-111418750D03*
X234965625Y-122618750D03*
D16*
%TO.P,SW69,S1,S1*%
%TO.N,Net-(BT1--)*%
X241965625Y-119518750D03*
%TO.P,SW69,S2,S2*%
%TO.N,Net-(A1-GPIO0)*%
X241965625Y-114518750D03*
%TD*%
D14*
%TO.P,SW19,1,1*%
%TO.N,Net-(D19-A)*%
X85043125Y-54801250D03*
%TO.P,SW19,2,2*%
%TO.N,Col4*%
X78693125Y-57341250D03*
%TD*%
%TO.P,SW20,1,1*%
%TO.N,Net-(D20-A)*%
X104093125Y-54801250D03*
%TO.P,SW20,2,2*%
%TO.N,Col5*%
X97743125Y-57341250D03*
%TD*%
%TO.P,SW67,1,1*%
%TO.N,Net-(D67-A)*%
X285068125Y-111951250D03*
%TO.P,SW67,2,2*%
%TO.N,Col14*%
X278718125Y-114491250D03*
%TD*%
%TO.P,SW8,1,1*%
%TO.N,Net-(D8-A)*%
X151718125Y-35751250D03*
%TO.P,SW8,2,2*%
%TO.N,Col8*%
X145368125Y-38291250D03*
%TD*%
%TO.P,SW63,1,1*%
%TO.N,Net-(D63-A)*%
X139811875Y-111951250D03*
%TO.P,SW63,2,2*%
%TO.N,Col7*%
X133461875Y-114491250D03*
%TD*%
%TO.P,SW1,1,1*%
%TO.N,Net-(D1-A)*%
X18368125Y-35751250D03*
%TO.P,SW1,2,2*%
%TO.N,Col1*%
X12018125Y-38291250D03*
%TD*%
%TO.P,SW66,1,1*%
%TO.N,Net-(D66-A)*%
X266018125Y-111951250D03*
%TO.P,SW66,2,2*%
%TO.N,Col13*%
X259668125Y-114491250D03*
%TD*%
%TO.P,SW45,1,1*%
%TO.N,Net-(D45-A)*%
X30274375Y-92901250D03*
%TO.P,SW45,2,2*%
%TO.N,Col1*%
X23924375Y-95441250D03*
%TD*%
%TO.P,SW36,1,1*%
%TO.N,Net-(D36-A)*%
X127905625Y-73851250D03*
%TO.P,SW36,2,2*%
%TO.N,Col7*%
X121555625Y-76391250D03*
%TD*%
%TO.P,SW12,1,1*%
%TO.N,Net-(D12-A)*%
X227918125Y-35751250D03*
%TO.P,SW12,2,2*%
%TO.N,Col12*%
X221568125Y-38291250D03*
%TD*%
%TO.P,SW30,1,1*%
%TO.N,Net-(D30-A)*%
X304118125Y-54801250D03*
%TO.P,SW30,2,2*%
%TO.N,Col15*%
X297768125Y-57341250D03*
%TD*%
%TO.P,SW38,1,1*%
%TO.N,Net-(D38-A)*%
X166005625Y-73851250D03*
%TO.P,SW38,2,2*%
%TO.N,Col9*%
X159655625Y-76391250D03*
%TD*%
%TO.P,SW34,1,1*%
%TO.N,Net-(D34-A)*%
X89805625Y-73851250D03*
%TO.P,SW34,2,2*%
%TO.N,Col5*%
X83455625Y-76391250D03*
%TD*%
%TO.P,SW22,1,1*%
%TO.N,Net-(D22-A)*%
X142193125Y-54801250D03*
%TO.P,SW22,2,2*%
%TO.N,Col7*%
X135843125Y-57341250D03*
%TD*%
%TO.P,SW37,1,1*%
%TO.N,Net-(D37-A)*%
X146955625Y-73851250D03*
%TO.P,SW37,2,2*%
%TO.N,Col8*%
X140605625Y-76391250D03*
%TD*%
%TO.P,SW15,1,1*%
%TO.N,Net-(D15-A)*%
X304118125Y-35751250D03*
%TO.P,SW15,2,2*%
%TO.N,Col15*%
X297768125Y-38291250D03*
%TD*%
%TO.P,SW5,1,1*%
%TO.N,Net-(D5-A)*%
X94568125Y-35751250D03*
%TO.P,SW5,2,2*%
%TO.N,Col5*%
X88218125Y-38291250D03*
%TD*%
%TO.P,SW47,1,1*%
%TO.N,Net-(D47-A)*%
X80280625Y-92901250D03*
%TO.P,SW47,2,2*%
%TO.N,Col4*%
X73930625Y-95441250D03*
%TD*%
%TO.P,SW14,1,1*%
%TO.N,Net-(D14-A)*%
X275536875Y-35751250D03*
%TO.P,SW14,2,2*%
%TO.N,Col14*%
X269186875Y-38291250D03*
%TD*%
%TO.P,SW3,1,1*%
%TO.N,Net-(D3-A)*%
X56468125Y-35751250D03*
%TO.P,SW3,2,2*%
%TO.N,Col3*%
X50118125Y-38291250D03*
%TD*%
%TO.P,SW13,1,1*%
%TO.N,Net-(D13-A)*%
X246968125Y-35751250D03*
%TO.P,SW13,2,2*%
%TO.N,Col13*%
X240618125Y-38291250D03*
%TD*%
%TO.P,SW58,1,1*%
%TO.N,Net-(D58-A)*%
X304118125Y-92901250D03*
%TO.P,SW58,2,2*%
%TO.N,Col15*%
X297768125Y-95441250D03*
%TD*%
%TO.P,SW25,1,1*%
%TO.N,Net-(D25-A)*%
X199343125Y-54801250D03*
%TO.P,SW25,2,2*%
%TO.N,Col10*%
X192993125Y-57341250D03*
%TD*%
%TO.P,SW50,1,1*%
%TO.N,Net-(D50-A)*%
X137430625Y-92901250D03*
%TO.P,SW50,2,2*%
%TO.N,Col7*%
X131080625Y-95441250D03*
%TD*%
%TO.P,SW59,1,1*%
%TO.N,Net-(D59-A)*%
X20749375Y-111951250D03*
%TO.P,SW59,2,2*%
%TO.N,Col1*%
X14399375Y-114491250D03*
%TD*%
%TO.P,SW29,1,1*%
%TO.N,Net-(D29-A)*%
X280305625Y-54801250D03*
%TO.P,SW29,2,2*%
%TO.N,Col14*%
X273955625Y-57341250D03*
%TD*%
%TO.P,SW44,1,1*%
%TO.N,Net-(D44-A)*%
X304118125Y-73851250D03*
%TO.P,SW44,2,2*%
%TO.N,Col15*%
X297768125Y-76391250D03*
%TD*%
%TO.P,SW6,1,1*%
%TO.N,Net-(D6-A)*%
X113618125Y-35751250D03*
%TO.P,SW6,2,2*%
%TO.N,Col6*%
X107268125Y-38291250D03*
%TD*%
%TO.P,SW46,1,1*%
%TO.N,Net-(D46-A)*%
X61230625Y-92901250D03*
%TO.P,SW46,2,2*%
%TO.N,Col3*%
X54880625Y-95441250D03*
%TD*%
%TO.P,SW9,1,1*%
%TO.N,Net-(D9-A)*%
X170768125Y-35751250D03*
%TO.P,SW9,2,2*%
%TO.N,Col9*%
X164418125Y-38291250D03*
%TD*%
%TO.P,SW51,1,1*%
%TO.N,Net-(D51-A)*%
X156480625Y-92901250D03*
%TO.P,SW51,2,2*%
%TO.N,Col8*%
X150130625Y-95441250D03*
%TD*%
%TO.P,SW31,1,1*%
%TO.N,Net-(D31-A)*%
X25511875Y-73851250D03*
%TO.P,SW31,2,2*%
%TO.N,Col1*%
X19161875Y-76391250D03*
%TD*%
%TO.P,SW68,1,1*%
%TO.N,Net-(D68-A)*%
X304118125Y-111951250D03*
%TO.P,SW68,2,2*%
%TO.N,Col15*%
X297768125Y-114491250D03*
%TD*%
%TO.P,SW24,1,1*%
%TO.N,Net-(D24-A)*%
X180293125Y-54801250D03*
%TO.P,SW24,2,2*%
%TO.N,Col9*%
X173943125Y-57341250D03*
%TD*%
%TO.P,SW57,1,1*%
%TO.N,Net-(D57-A)*%
X285068125Y-92901250D03*
%TO.P,SW57,2,2*%
%TO.N,Col14*%
X278718125Y-95441250D03*
%TD*%
%TO.P,SW53,1,1*%
%TO.N,Net-(D53-A)*%
X194580625Y-92901250D03*
%TO.P,SW53,2,2*%
%TO.N,Col10*%
X188230625Y-95441250D03*
%TD*%
%TO.P,SW43,1,1*%
%TO.N,Net-(D43-A)*%
X273161875Y-73851250D03*
%TO.P,SW43,2,2*%
%TO.N,Col14*%
X266811875Y-76391250D03*
%TD*%
D18*
%TO.P,A1,1,GPIO0*%
%TO.N,Net-(A1-GPIO0)*%
X29874375Y-25191250D03*
D19*
%TO.P,A1,2,GPIO1*%
%TO.N,Col1*%
X32414375Y-25191250D03*
D20*
%TO.P,A1,3,GND*%
%TO.N,Net-(BT1--)*%
X34954375Y-25191250D03*
D19*
%TO.P,A1,4,GPIO2*%
%TO.N,Col2*%
X37494375Y-25191250D03*
%TO.P,A1,5,GPIO3*%
%TO.N,Col3*%
X40034375Y-25191250D03*
%TO.P,A1,6,GPIO4*%
%TO.N,Col4*%
X42574375Y-25191250D03*
%TO.P,A1,7,GPIO5*%
%TO.N,Col5*%
X45114375Y-25191250D03*
D20*
%TO.P,A1,8,GND*%
%TO.N,Net-(BT1--)*%
X47654375Y-25191250D03*
D19*
%TO.P,A1,9,GPIO6*%
%TO.N,Col6*%
X50194375Y-25191250D03*
%TO.P,A1,10,GPIO7*%
%TO.N,Col7*%
X52734375Y-25191250D03*
%TO.P,A1,11,GPIO8*%
%TO.N,Col8*%
X55274375Y-25191250D03*
%TO.P,A1,12,GPIO9*%
%TO.N,Col9*%
X57814375Y-25191250D03*
D20*
%TO.P,A1,13,GND*%
%TO.N,Net-(BT1--)*%
X60354375Y-25191250D03*
D19*
%TO.P,A1,14,GPIO10*%
%TO.N,Col10*%
X62894375Y-25191250D03*
%TO.P,A1,15,GPIO11*%
%TO.N,Col11*%
X65434375Y-25191250D03*
%TO.P,A1,16,GPIO12*%
%TO.N,Col12*%
X67974375Y-25191250D03*
%TO.P,A1,17,GPIO13*%
%TO.N,Col13*%
X70514375Y-25191250D03*
D20*
%TO.P,A1,18,GND*%
%TO.N,Net-(BT1--)*%
X73054375Y-25191250D03*
D19*
%TO.P,A1,19,GPIO14*%
%TO.N,Col14*%
X75594375Y-25191250D03*
%TO.P,A1,20,GPIO15*%
%TO.N,Col15*%
X78134375Y-25191250D03*
%TO.P,A1,21,GPIO16*%
%TO.N,Net-(A1-GPIO16)*%
X78134375Y-7411250D03*
%TO.P,A1,22,GPIO17*%
%TO.N,Net-(A1-GPIO17)*%
X75594375Y-7411250D03*
D21*
%TO.P,A1,23,GND*%
%TO.N,Net-(BT1--)*%
X73054375Y-7411250D03*
D19*
%TO.P,A1,24,GPIO18*%
%TO.N,Row5*%
X70514375Y-7411250D03*
%TO.P,A1,25,GPIO19*%
%TO.N,Row4*%
X67974375Y-7411250D03*
%TO.P,A1,26,GPIO20*%
%TO.N,Row3*%
X65434375Y-7411250D03*
%TO.P,A1,27,GPIO21*%
%TO.N,Row2*%
X62894375Y-7411250D03*
D21*
%TO.P,A1,28,GND*%
%TO.N,Net-(BT1--)*%
X60354375Y-7411250D03*
D19*
%TO.P,A1,29,GPIO22*%
%TO.N,Row1*%
X57814375Y-7411250D03*
%TO.P,A1,30,RUN*%
%TO.N,unconnected-(A1-RUN-Pad30)*%
X55274375Y-7411250D03*
%TO.P,A1,31,GPIO26_ADC0*%
%TO.N,unconnected-(A1-GPIO26_ADC0-Pad31)*%
X52734375Y-7411250D03*
%TO.P,A1,32,GPIO27_ADC1*%
%TO.N,unconnected-(A1-GPIO27_ADC1-Pad32)*%
X50194375Y-7411250D03*
D21*
%TO.P,A1,33,AGND*%
%TO.N,unconnected-(A1-AGND-Pad33)*%
X47654375Y-7411250D03*
D19*
%TO.P,A1,34,GPIO28_ADC2*%
%TO.N,unconnected-(A1-GPIO28_ADC2-Pad34)*%
X45114375Y-7411250D03*
%TO.P,A1,35,ADC_VREF*%
%TO.N,unconnected-(A1-ADC_VREF-Pad35)*%
X42574375Y-7411250D03*
%TO.P,A1,36,3V3*%
%TO.N,unconnected-(A1-3V3-Pad36)*%
X40034375Y-7411250D03*
%TO.P,A1,37,3V3_EN*%
%TO.N,unconnected-(A1-3V3_EN-Pad37)*%
X37494375Y-7411250D03*
D21*
%TO.P,A1,38,GND*%
%TO.N,Net-(BT1--)*%
X34954375Y-7411250D03*
D19*
%TO.P,A1,39,VSYS*%
%TO.N,Net-(A1-VSYS)*%
X32414375Y-7411250D03*
%TO.P,A1,40,VBUS*%
%TO.N,unconnected-(A1-VBUS-Pad40)*%
X29874375Y-7411250D03*
%TD*%
D14*
%TO.P,SW21,1,1*%
%TO.N,Net-(D21-A)*%
X123143125Y-54801250D03*
%TO.P,SW21,2,2*%
%TO.N,Col6*%
X116793125Y-57341250D03*
%TD*%
%TO.P,SW27,1,1*%
%TO.N,Net-(D27-A)*%
X237443125Y-54801250D03*
%TO.P,SW27,2,2*%
%TO.N,Col12*%
X231093125Y-57341250D03*
%TD*%
%TO.P,SW39,1,1*%
%TO.N,Net-(D39-A)*%
X185055625Y-73851250D03*
%TO.P,SW39,2,2*%
%TO.N,Col10*%
X178705625Y-76391250D03*
%TD*%
%TO.P,SW60,1,1*%
%TO.N,Net-(D60-A)*%
X44561875Y-111951250D03*
%TO.P,SW60,2,2*%
%TO.N,Col2*%
X38211875Y-114491250D03*
%TD*%
%TO.P,SW17,1,1*%
%TO.N,Net-(D17-A)*%
X46943125Y-54801250D03*
%TO.P,SW17,2,2*%
%TO.N,Col2*%
X40593125Y-57341250D03*
%TD*%
%TO.P,SW11,1,1*%
%TO.N,Net-(D11-A)*%
X208868125Y-35751250D03*
%TO.P,SW11,2,2*%
%TO.N,Col11*%
X202518125Y-38291250D03*
%TD*%
%TO.P,SW55,1,1*%
%TO.N,Net-(D55-A)*%
X232680625Y-92901250D03*
%TO.P,SW55,2,2*%
%TO.N,Col12*%
X226330625Y-95441250D03*
%TD*%
%TO.P,SW52,1,1*%
%TO.N,Net-(D52-A)*%
X175530625Y-92901250D03*
%TO.P,SW52,2,2*%
%TO.N,Col9*%
X169180625Y-95441250D03*
%TD*%
%TO.P,SW16,1,1*%
%TO.N,Net-(D16-A)*%
X23130625Y-54801250D03*
%TO.P,SW16,2,2*%
%TO.N,Col1*%
X16780625Y-57341250D03*
%TD*%
%TO.P,SW42,1,1*%
%TO.N,Net-(D42-A)*%
X242205625Y-73851250D03*
%TO.P,SW42,2,2*%
%TO.N,Col13*%
X235855625Y-76391250D03*
%TD*%
%TO.P,SW10,1,1*%
%TO.N,Net-(D10-A)*%
X189818125Y-35751250D03*
%TO.P,SW10,2,2*%
%TO.N,Col10*%
X183468125Y-38291250D03*
%TD*%
%TO.P,SW64,1,1*%
%TO.N,Net-(D64-A)*%
X177911875Y-111951250D03*
%TO.P,SW64,2,2*%
%TO.N,Col9*%
X171561875Y-114491250D03*
%TD*%
%TO.P,SW62,1,1*%
%TO.N,Net-(D62-A)*%
X101711875Y-111951250D03*
%TO.P,SW62,2,2*%
%TO.N,Col5*%
X95361875Y-114491250D03*
%TD*%
%TO.P,SW33,1,1*%
%TO.N,Net-(D33-A)*%
X70755625Y-73851250D03*
%TO.P,SW33,2,2*%
%TO.N,Col4*%
X64405625Y-76391250D03*
%TD*%
%TO.P,SW41,1,1*%
%TO.N,Net-(D41-A)*%
X223155625Y-73851250D03*
%TO.P,SW41,2,2*%
%TO.N,Col12*%
X216805625Y-76391250D03*
%TD*%
%TO.P,SW18,1,1*%
%TO.N,Net-(D18-A)*%
X65993125Y-54801250D03*
%TO.P,SW18,2,2*%
%TO.N,Col3*%
X59643125Y-57341250D03*
%TD*%
%TO.P,SW2,1,1*%
%TO.N,Net-(D2-A)*%
X37418125Y-35751250D03*
%TO.P,SW2,2,2*%
%TO.N,Col2*%
X31068125Y-38291250D03*
%TD*%
%TO.P,SW40,1,1*%
%TO.N,Net-(D40-A)*%
X204105625Y-73851250D03*
%TO.P,SW40,2,2*%
%TO.N,Col11*%
X197755625Y-76391250D03*
%TD*%
%TO.P,SW56,1,1*%
%TO.N,Net-(D56-A)*%
X258874375Y-92901250D03*
%TO.P,SW56,2,2*%
%TO.N,Col13*%
X252524375Y-95441250D03*
%TD*%
%TO.P,SW7,1,1*%
%TO.N,Net-(D7-A)*%
X132668125Y-35751250D03*
%TO.P,SW7,2,2*%
%TO.N,Col7*%
X126318125Y-38291250D03*
%TD*%
%TO.P,SW4,1,1*%
%TO.N,Net-(D4-A)*%
X75518125Y-35751250D03*
%TO.P,SW4,2,2*%
%TO.N,Col4*%
X69168125Y-38291250D03*
%TD*%
%TO.P,SW26,1,1*%
%TO.N,Net-(D26-A)*%
X218393125Y-54801250D03*
%TO.P,SW26,2,2*%
%TO.N,Col11*%
X212043125Y-57341250D03*
%TD*%
%TO.P,SW35,1,1*%
%TO.N,Net-(D35-A)*%
X108855625Y-73851250D03*
%TO.P,SW35,2,2*%
%TO.N,Col6*%
X102505625Y-76391250D03*
%TD*%
%TO.P,SW65,1,1*%
%TO.N,Net-(D65-A)*%
X208868125Y-111951250D03*
%TO.P,SW65,2,2*%
%TO.N,Col11*%
X202518125Y-114491250D03*
%TD*%
%TO.P,SW32,1,1*%
%TO.N,Net-(D32-A)*%
X51705625Y-73851250D03*
%TO.P,SW32,2,2*%
%TO.N,Col3*%
X45355625Y-76391250D03*
%TD*%
%TO.P,SW28,1,1*%
%TO.N,Net-(D28-A)*%
X256493125Y-54801250D03*
%TO.P,SW28,2,2*%
%TO.N,Col13*%
X250143125Y-57341250D03*
%TD*%
%TO.P,SW54,1,1*%
%TO.N,Net-(D54-A)*%
X213630625Y-92901250D03*
%TO.P,SW54,2,2*%
%TO.N,Col11*%
X207280625Y-95441250D03*
%TD*%
%TO.P,SW61,1,1*%
%TO.N,Net-(D61-A)*%
X68374375Y-111951250D03*
%TO.P,SW61,2,2*%
%TO.N,Col3*%
X62024375Y-114491250D03*
%TD*%
D22*
%TO.P,D55,1,K*%
%TO.N,Row4*%
X220615625Y-102743750D03*
D19*
%TO.P,D55,2,A*%
%TO.N,Net-(D55-A)*%
X220615625Y-95123750D03*
%TD*%
D22*
%TO.P,D4,1,K*%
%TO.N,Row1*%
X63453125Y-44641250D03*
D19*
%TO.P,D4,2,A*%
%TO.N,Net-(D4-A)*%
X63453125Y-37021250D03*
%TD*%
D22*
%TO.P,D30,1,K*%
%TO.N,Row2*%
X292053125Y-64643750D03*
D19*
%TO.P,D30,2,A*%
%TO.N,Net-(D30-A)*%
X292053125Y-57023750D03*
%TD*%
D22*
%TO.P,D39,1,K*%
%TO.N,Row3*%
X172990625Y-83693750D03*
D19*
%TO.P,D39,2,A*%
%TO.N,Net-(D39-A)*%
X172990625Y-76073750D03*
%TD*%
D22*
%TO.P,D5,1,K*%
%TO.N,Row1*%
X82503125Y-44641250D03*
D19*
%TO.P,D5,2,A*%
%TO.N,Net-(D5-A)*%
X82503125Y-37021250D03*
%TD*%
D22*
%TO.P,D47,1,K*%
%TO.N,Row4*%
X68215625Y-102743750D03*
D19*
%TO.P,D47,2,A*%
%TO.N,Net-(D47-A)*%
X68215625Y-95123750D03*
%TD*%
D22*
%TO.P,D40,1,K*%
%TO.N,Row3*%
X192040625Y-83693750D03*
D19*
%TO.P,D40,2,A*%
%TO.N,Net-(D40-A)*%
X192040625Y-76073750D03*
%TD*%
D22*
%TO.P,D7,1,K*%
%TO.N,Row1*%
X120603125Y-44641250D03*
D19*
%TO.P,D7,2,A*%
%TO.N,Net-(D7-A)*%
X120603125Y-37021250D03*
%TD*%
D22*
%TO.P,D43,1,K*%
%TO.N,Row3*%
X249190625Y-83693750D03*
D19*
%TO.P,D43,2,A*%
%TO.N,Net-(D43-A)*%
X249190625Y-76073750D03*
%TD*%
D22*
%TO.P,D48,1,K*%
%TO.N,Row4*%
X87265625Y-102743750D03*
D19*
%TO.P,D48,2,A*%
%TO.N,Net-(D48-A)*%
X87265625Y-95123750D03*
%TD*%
D22*
%TO.P,D51,1,K*%
%TO.N,Row4*%
X144415625Y-102743750D03*
D19*
%TO.P,D51,2,A*%
%TO.N,Net-(D51-A)*%
X144415625Y-95123750D03*
%TD*%
D22*
%TO.P,D20,1,K*%
%TO.N,Row2*%
X92028125Y-63691250D03*
D19*
%TO.P,D20,2,A*%
%TO.N,Net-(D20-A)*%
X92028125Y-56071250D03*
%TD*%
D22*
%TO.P,D11,1,K*%
%TO.N,Row1*%
X196803125Y-44641250D03*
D19*
%TO.P,D11,2,A*%
%TO.N,Net-(D11-A)*%
X196803125Y-37021250D03*
%TD*%
D22*
%TO.P,D50,1,K*%
%TO.N,Row4*%
X125365625Y-102743750D03*
D19*
%TO.P,D50,2,A*%
%TO.N,Net-(D50-A)*%
X125365625Y-95123750D03*
%TD*%
D22*
%TO.P,D2,1,K*%
%TO.N,Row1*%
X25353125Y-44641250D03*
D19*
%TO.P,D2,2,A*%
%TO.N,Net-(D2-A)*%
X25353125Y-37021250D03*
%TD*%
D22*
%TO.P,D28,1,K*%
%TO.N,Row2*%
X244428125Y-64643750D03*
D19*
%TO.P,D28,2,A*%
%TO.N,Net-(D28-A)*%
X244428125Y-57023750D03*
%TD*%
D22*
%TO.P,D41,1,K*%
%TO.N,Row3*%
X211090625Y-83693750D03*
D19*
%TO.P,D41,2,A*%
%TO.N,Net-(D41-A)*%
X211090625Y-76073750D03*
%TD*%
D22*
%TO.P,D63,1,K*%
%TO.N,Row5*%
X120603125Y-121793750D03*
D19*
%TO.P,D63,2,A*%
%TO.N,Net-(D63-A)*%
X120603125Y-114173750D03*
%TD*%
D22*
%TO.P,D45,1,K*%
%TO.N,Row4*%
X6303125Y-102743750D03*
D19*
%TO.P,D45,2,A*%
%TO.N,Net-(D45-A)*%
X6303125Y-95123750D03*
%TD*%
D22*
%TO.P,D19,1,K*%
%TO.N,Row2*%
X72978125Y-63691250D03*
D19*
%TO.P,D19,2,A*%
%TO.N,Net-(D19-A)*%
X72978125Y-56071250D03*
%TD*%
D22*
%TO.P,D62,1,K*%
%TO.N,Row5*%
X77740625Y-121793750D03*
D19*
%TO.P,D62,2,A*%
%TO.N,Net-(D62-A)*%
X77740625Y-114173750D03*
%TD*%
D22*
%TO.P,D37,1,K*%
%TO.N,Row3*%
X134890625Y-83693750D03*
D19*
%TO.P,D37,2,A*%
%TO.N,Net-(D37-A)*%
X134890625Y-76073750D03*
%TD*%
D22*
%TO.P,D68,1,K*%
%TO.N,Row5*%
X292053125Y-121793750D03*
D19*
%TO.P,D68,2,A*%
%TO.N,Net-(D68-A)*%
X292053125Y-114173750D03*
%TD*%
D22*
%TO.P,D25,1,K*%
%TO.N,Row2*%
X187278125Y-63691250D03*
D19*
%TO.P,D25,2,A*%
%TO.N,Net-(D25-A)*%
X187278125Y-56071250D03*
%TD*%
D22*
%TO.P,D29,1,K*%
%TO.N,Row2*%
X263478125Y-64643750D03*
D19*
%TO.P,D29,2,A*%
%TO.N,Net-(D29-A)*%
X263478125Y-57023750D03*
%TD*%
D22*
%TO.P,D33,1,K*%
%TO.N,Row3*%
X58690625Y-83693750D03*
D19*
%TO.P,D33,2,A*%
%TO.N,Net-(D33-A)*%
X58690625Y-76073750D03*
%TD*%
D22*
%TO.P,D38,1,K*%
%TO.N,Row3*%
X153940625Y-83693750D03*
D19*
%TO.P,D38,2,A*%
%TO.N,Net-(D38-A)*%
X153940625Y-76073750D03*
%TD*%
D22*
%TO.P,D31,1,K*%
%TO.N,Row3*%
X6303125Y-83693750D03*
D19*
%TO.P,D31,2,A*%
%TO.N,Net-(D31-A)*%
X6303125Y-76073750D03*
%TD*%
D22*
%TO.P,D15,1,K*%
%TO.N,Row1*%
X292053125Y-44641250D03*
D19*
%TO.P,D15,2,A*%
%TO.N,Net-(D15-A)*%
X292053125Y-37021250D03*
%TD*%
D22*
%TO.P,D21,1,K*%
%TO.N,Row2*%
X111078125Y-63691250D03*
D19*
%TO.P,D21,2,A*%
%TO.N,Net-(D21-A)*%
X111078125Y-56071250D03*
%TD*%
D22*
%TO.P,D66,1,K*%
%TO.N,Row5*%
X253953125Y-121793750D03*
D19*
%TO.P,D66,2,A*%
%TO.N,Net-(D66-A)*%
X253953125Y-114173750D03*
%TD*%
D22*
%TO.P,D35,1,K*%
%TO.N,Row3*%
X96790625Y-83693750D03*
D19*
%TO.P,D35,2,A*%
%TO.N,Net-(D35-A)*%
X96790625Y-76073750D03*
%TD*%
D22*
%TO.P,D3,1,K*%
%TO.N,Row1*%
X44403125Y-44641250D03*
D19*
%TO.P,D3,2,A*%
%TO.N,Net-(D3-A)*%
X44403125Y-37021250D03*
%TD*%
D22*
%TO.P,D16,1,K*%
%TO.N,Row2*%
X6303125Y-63691250D03*
D19*
%TO.P,D16,2,A*%
%TO.N,Net-(D16-A)*%
X6303125Y-56071250D03*
%TD*%
D22*
%TO.P,D57,1,K*%
%TO.N,Row4*%
X273003125Y-102743750D03*
D19*
%TO.P,D57,2,A*%
%TO.N,Net-(D57-A)*%
X273003125Y-95123750D03*
%TD*%
D22*
%TO.P,D27,1,K*%
%TO.N,Row2*%
X225378125Y-63691250D03*
D19*
%TO.P,D27,2,A*%
%TO.N,Net-(D27-A)*%
X225378125Y-56071250D03*
%TD*%
D22*
%TO.P,D18,1,K*%
%TO.N,Row2*%
X53928125Y-63691250D03*
D19*
%TO.P,D18,2,A*%
%TO.N,Net-(D18-A)*%
X53928125Y-56071250D03*
%TD*%
D22*
%TO.P,D61,1,K*%
%TO.N,Row5*%
X53928125Y-121793750D03*
D19*
%TO.P,D61,2,A*%
%TO.N,Net-(D61-A)*%
X53928125Y-114173750D03*
%TD*%
D22*
%TO.P,D24,1,K*%
%TO.N,Row2*%
X168228125Y-63691250D03*
D19*
%TO.P,D24,2,A*%
%TO.N,Net-(D24-A)*%
X168228125Y-56071250D03*
%TD*%
D22*
%TO.P,D17,1,K*%
%TO.N,Row2*%
X34878125Y-63691250D03*
D19*
%TO.P,D17,2,A*%
%TO.N,Net-(D17-A)*%
X34878125Y-56071250D03*
%TD*%
D22*
%TO.P,D49,1,K*%
%TO.N,Row4*%
X106315625Y-102743750D03*
D19*
%TO.P,D49,2,A*%
%TO.N,Net-(D49-A)*%
X106315625Y-95123750D03*
%TD*%
D22*
%TO.P,D1,1,K*%
%TO.N,Row1*%
X6303125Y-44641250D03*
D19*
%TO.P,D1,2,A*%
%TO.N,Net-(D1-A)*%
X6303125Y-37021250D03*
%TD*%
D22*
%TO.P,D67,1,K*%
%TO.N,Row5*%
X273003125Y-121793750D03*
D19*
%TO.P,D67,2,A*%
%TO.N,Net-(D67-A)*%
X273003125Y-114173750D03*
%TD*%
D22*
%TO.P,D34,1,K*%
%TO.N,Row3*%
X77740625Y-83693750D03*
D19*
%TO.P,D34,2,A*%
%TO.N,Net-(D34-A)*%
X77740625Y-76073750D03*
%TD*%
D22*
%TO.P,D52,1,K*%
%TO.N,Row4*%
X163465625Y-102743750D03*
D19*
%TO.P,D52,2,A*%
%TO.N,Net-(D52-A)*%
X163465625Y-95123750D03*
%TD*%
D22*
%TO.P,D8,1,K*%
%TO.N,Row1*%
X139653125Y-44641250D03*
D19*
%TO.P,D8,2,A*%
%TO.N,Net-(D8-A)*%
X139653125Y-37021250D03*
%TD*%
D22*
%TO.P,D26,1,K*%
%TO.N,Row2*%
X206328125Y-63691250D03*
D19*
%TO.P,D26,2,A*%
%TO.N,Net-(D26-A)*%
X206328125Y-56071250D03*
%TD*%
D22*
%TO.P,D22,1,K*%
%TO.N,Row2*%
X130128125Y-63691250D03*
D19*
%TO.P,D22,2,A*%
%TO.N,Net-(D22-A)*%
X130128125Y-56071250D03*
%TD*%
D22*
%TO.P,D44,1,K*%
%TO.N,Row3*%
X292053125Y-83693750D03*
D19*
%TO.P,D44,2,A*%
%TO.N,Net-(D44-A)*%
X292053125Y-76073750D03*
%TD*%
D22*
%TO.P,D10,1,K*%
%TO.N,Row1*%
X177753125Y-44641250D03*
D19*
%TO.P,D10,2,A*%
%TO.N,Net-(D10-A)*%
X177753125Y-37021250D03*
%TD*%
D22*
%TO.P,D64,1,K*%
%TO.N,Row5*%
X153940625Y-121793750D03*
D19*
%TO.P,D64,2,A*%
%TO.N,Net-(D64-A)*%
X153940625Y-114173750D03*
%TD*%
D22*
%TO.P,D6,1,K*%
%TO.N,Row1*%
X101553125Y-44641250D03*
D19*
%TO.P,D6,2,A*%
%TO.N,Net-(D6-A)*%
X101553125Y-37021250D03*
%TD*%
D22*
%TO.P,D14,1,K*%
%TO.N,Row1*%
X256334375Y-44641250D03*
D19*
%TO.P,D14,2,A*%
%TO.N,Net-(D14-A)*%
X256334375Y-37021250D03*
%TD*%
D22*
%TO.P,D23,1,K*%
%TO.N,Row2*%
X149178125Y-63691250D03*
D19*
%TO.P,D23,2,A*%
%TO.N,Net-(D23-A)*%
X149178125Y-56071250D03*
%TD*%
D22*
%TO.P,D36,1,K*%
%TO.N,Row3*%
X115840625Y-83693750D03*
D19*
%TO.P,D36,2,A*%
%TO.N,Net-(D36-A)*%
X115840625Y-76073750D03*
%TD*%
D22*
%TO.P,D46,1,K*%
%TO.N,Row4*%
X49165625Y-102743750D03*
D19*
%TO.P,D46,2,A*%
%TO.N,Net-(D46-A)*%
X49165625Y-95123750D03*
%TD*%
D22*
%TO.P,D42,1,K*%
%TO.N,Row3*%
X230140625Y-83693750D03*
D19*
%TO.P,D42,2,A*%
%TO.N,Net-(D42-A)*%
X230140625Y-76073750D03*
%TD*%
D22*
%TO.P,D13,1,K*%
%TO.N,Row1*%
X234903125Y-44641250D03*
D19*
%TO.P,D13,2,A*%
%TO.N,Net-(D13-A)*%
X234903125Y-37021250D03*
%TD*%
D22*
%TO.P,D58,1,K*%
%TO.N,Row4*%
X292053125Y-102743750D03*
D19*
%TO.P,D58,2,A*%
%TO.N,Net-(D58-A)*%
X292053125Y-95123750D03*
%TD*%
D22*
%TO.P,D59,1,K*%
%TO.N,Row5*%
X6303125Y-121793750D03*
D19*
%TO.P,D59,2,A*%
%TO.N,Net-(D59-A)*%
X6303125Y-114173750D03*
%TD*%
D22*
%TO.P,D65,1,K*%
%TO.N,Row5*%
X196803125Y-121793750D03*
D19*
%TO.P,D65,2,A*%
%TO.N,Net-(D65-A)*%
X196803125Y-114173750D03*
%TD*%
D22*
%TO.P,D56,1,K*%
%TO.N,Row4*%
X239665625Y-102743750D03*
D19*
%TO.P,D56,2,A*%
%TO.N,Net-(D56-A)*%
X239665625Y-95123750D03*
%TD*%
D22*
%TO.P,D60,1,K*%
%TO.N,Row5*%
X30115625Y-121793750D03*
D19*
%TO.P,D60,2,A*%
%TO.N,Net-(D60-A)*%
X30115625Y-114173750D03*
%TD*%
D22*
%TO.P,D32,1,K*%
%TO.N,Row3*%
X39640625Y-83693750D03*
D19*
%TO.P,D32,2,A*%
%TO.N,Net-(D32-A)*%
X39640625Y-76073750D03*
%TD*%
D22*
%TO.P,D9,1,K*%
%TO.N,Row1*%
X158703125Y-44641250D03*
D19*
%TO.P,D9,2,A*%
%TO.N,Net-(D9-A)*%
X158703125Y-37021250D03*
%TD*%
D22*
%TO.P,D12,1,K*%
%TO.N,Row1*%
X215853125Y-44641250D03*
D19*
%TO.P,D12,2,A*%
%TO.N,Net-(D12-A)*%
X215853125Y-37021250D03*
%TD*%
D22*
%TO.P,D54,1,K*%
%TO.N,Row4*%
X201565625Y-102743750D03*
D19*
%TO.P,D54,2,A*%
%TO.N,Net-(D54-A)*%
X201565625Y-95123750D03*
%TD*%
D22*
%TO.P,D53,1,K*%
%TO.N,Row4*%
X182515625Y-102743750D03*
D19*
%TO.P,D53,2,A*%
%TO.N,Net-(D53-A)*%
X182515625Y-95123750D03*
%TD*%
D23*
%TO.N,Net-(BT1--)*%
X308226900Y-32991850D03*
X248000000Y-120603125D03*
%TO.N,Net-(A1-VSYS)*%
X94409375Y-3921875D03*
%TO.N,Net-(A1-GPIO0)*%
X222996875Y-115840625D03*
X27734375Y-32496875D03*
%TD*%
D24*
%TO.N,Net-(BT1--)*%
X309311500Y-33936442D02*
X308296904Y-32921846D01*
X308296904Y-123750029D02*
X309311500Y-122735433D01*
X308296904Y-32921846D02*
X308226900Y-32991850D01*
X307282308Y-124764625D02*
X308296904Y-123750029D01*
X248000000Y-120603125D02*
X252161500Y-124764625D01*
X309311500Y-122735433D02*
X309311500Y-120603125D01*
X252161500Y-124764625D02*
X255143750Y-124764625D01*
X309311500Y-120603125D02*
X309311500Y-33936442D01*
X241965625Y-119518750D02*
X239465625Y-117018750D01*
X255143750Y-124764625D02*
X307282308Y-124764625D01*
X239465625Y-117018750D02*
X227465625Y-117018750D01*
%TO.N,Col10*%
X68426750Y-30644250D02*
X175821125Y-30644250D01*
X188230625Y-95441250D02*
X180064625Y-87275250D01*
X175821125Y-30644250D02*
X183468125Y-38291250D01*
X192993125Y-57341250D02*
X184827125Y-49175250D01*
X178705625Y-76391250D02*
X194093124Y-61003751D01*
X184827125Y-49175250D02*
X184827125Y-39650250D01*
X194093124Y-58441249D02*
X192993125Y-57341250D01*
X194093124Y-61003751D02*
X194093124Y-58441249D01*
X62973750Y-25191250D02*
X68426750Y-30644250D01*
X184827125Y-39650250D02*
X183468125Y-38291250D01*
X180064625Y-87275250D02*
X180064625Y-77750250D01*
X180064625Y-77750250D02*
X178705625Y-76391250D01*
%TO.N,Col12*%
X231093125Y-57341250D02*
X231291562Y-57539687D01*
X232193124Y-61003751D02*
X232193124Y-58441249D01*
X232193124Y-58441249D02*
X231093125Y-57341250D01*
X218164625Y-77750250D02*
X216805625Y-76391250D01*
X216805625Y-76391250D02*
X232193124Y-61003751D01*
X222927125Y-39650250D02*
X221568125Y-38291250D01*
X212719125Y-29442250D02*
X221568125Y-38291250D01*
X68053750Y-25191250D02*
X72304750Y-29442250D01*
X226330625Y-95441250D02*
X218164625Y-87275250D01*
X231291562Y-57539687D02*
X231291562Y-57539688D01*
X218164625Y-87275250D02*
X218164625Y-77750250D01*
X72304750Y-29442250D02*
X212719125Y-29442250D01*
X216805625Y-76391250D02*
X217599375Y-77185000D01*
X222927125Y-49175250D02*
X222927125Y-39650250D01*
X231093125Y-57341250D02*
X222927125Y-49175250D01*
%TO.N,Col15*%
X297768125Y-76391250D02*
X298868124Y-75291251D01*
X297768125Y-95441250D02*
X298165000Y-95044375D01*
X298868124Y-39391249D02*
X297768125Y-38291250D01*
X80661750Y-27639250D02*
X287116125Y-27639250D01*
X297768125Y-114491250D02*
X298868124Y-113391251D01*
X298868124Y-56241251D02*
X298868124Y-39391249D01*
X78213750Y-25191250D02*
X80661750Y-27639250D01*
X298165000Y-95044375D02*
X298165000Y-76788125D01*
X287116125Y-27639250D02*
X297768125Y-38291250D01*
X298165000Y-76788125D02*
X297768125Y-76391250D01*
X298868124Y-96541249D02*
X297768125Y-95441250D01*
X297768125Y-57341250D02*
X298868124Y-56241251D01*
X298868124Y-75291251D02*
X298868124Y-58441249D01*
X298868124Y-58441249D02*
X297768125Y-57341250D01*
X298868124Y-113391251D02*
X298868124Y-96541249D01*
%TO.N,Col1*%
X19161875Y-76391250D02*
X16811625Y-74041000D01*
X12018125Y-38291250D02*
X12018125Y-35116250D01*
X16811625Y-74041000D02*
X16811625Y-57372250D01*
X24162500Y-104728125D02*
X24162500Y-95679375D01*
X12256250Y-38529375D02*
X12018125Y-38291250D01*
X27569375Y-30115625D02*
X32493750Y-25191250D01*
X16780625Y-57341250D02*
X12256250Y-52816875D01*
X12018125Y-35116250D02*
X17018750Y-30115625D01*
X16811625Y-57372250D02*
X16780625Y-57341250D01*
X19192875Y-76422250D02*
X19161875Y-76391250D01*
X17018750Y-30115625D02*
X27569375Y-30115625D01*
X14399375Y-114491250D02*
X24162500Y-104728125D01*
X12256250Y-52816875D02*
X12256250Y-38529375D01*
X24162500Y-95679375D02*
X23924375Y-95441250D01*
X23924375Y-95441250D02*
X19192875Y-90709750D01*
X19192875Y-90709750D02*
X19192875Y-76422250D01*
%TO.N,Col9*%
X169180625Y-97637487D02*
X169180625Y-95441250D01*
X175043124Y-61003751D02*
X175043124Y-58441249D01*
X171561875Y-114491250D02*
X171561875Y-100018737D01*
X171561875Y-100018737D02*
X169180625Y-97637487D01*
X161014625Y-77750250D02*
X159655625Y-76391250D01*
X169180625Y-95441250D02*
X161014625Y-87275250D01*
X173943125Y-57341250D02*
X165777125Y-49175250D01*
X63947750Y-31245250D02*
X157372125Y-31245250D01*
X165777125Y-39650250D02*
X164418125Y-38291250D01*
X57893750Y-25191250D02*
X63947750Y-31245250D01*
X161014625Y-87275250D02*
X161014625Y-77750250D01*
X165777125Y-49175250D02*
X165777125Y-39650250D01*
X159655625Y-76391250D02*
X175043124Y-61003751D01*
X175043124Y-58441249D02*
X173943125Y-57341250D01*
X157372125Y-31245250D02*
X164418125Y-38291250D01*
%TO.N,Col5*%
X88218125Y-38291250D02*
X89318124Y-39391249D01*
X98843124Y-58441249D02*
X98843124Y-61003751D01*
X83576125Y-33649250D02*
X88218125Y-38291250D01*
X83455625Y-76391250D02*
X84555624Y-77491249D01*
X53651750Y-33649250D02*
X83576125Y-33649250D01*
X45193750Y-25191250D02*
X53651750Y-33649250D01*
X84555624Y-87016249D02*
X92980625Y-95441250D01*
X97743125Y-57341250D02*
X98843124Y-58441249D01*
X92980625Y-95441250D02*
X94080624Y-96541249D01*
X89318124Y-48916249D02*
X97743125Y-57341250D01*
X84555624Y-77491249D02*
X84555624Y-87016249D01*
X89318124Y-39391249D02*
X89318124Y-48916249D01*
X94080624Y-113209999D02*
X95361875Y-114491250D01*
X98843124Y-61003751D02*
X83455625Y-76391250D01*
X94080624Y-96541249D02*
X94080624Y-113209999D01*
%TO.N,Col7*%
X60069750Y-32447250D02*
X120474125Y-32447250D01*
X122914625Y-77750250D02*
X121555625Y-76391250D01*
X122914625Y-87275250D02*
X122914625Y-77750250D01*
X131080625Y-97637487D02*
X131080625Y-95441250D01*
X135843125Y-57341250D02*
X127677125Y-49175250D01*
X135874125Y-62072750D02*
X135874125Y-57372250D01*
X52813750Y-25191250D02*
X60069750Y-32447250D01*
X133461875Y-114491250D02*
X133461875Y-100018737D01*
X135874125Y-57372250D02*
X135843125Y-57341250D01*
X133461875Y-100018737D02*
X131080625Y-97637487D01*
X131080625Y-95441250D02*
X122914625Y-87275250D01*
X120474125Y-32447250D02*
X126318125Y-38291250D01*
X127677125Y-39650250D02*
X126318125Y-38291250D01*
X127677125Y-49175250D02*
X127677125Y-39650250D01*
X121555625Y-76391250D02*
X135874125Y-62072750D01*
%TO.N,Col11*%
X197755625Y-76391250D02*
X213143124Y-61003751D01*
X70365750Y-30043250D02*
X194270125Y-30043250D01*
X208380624Y-108628751D02*
X208380624Y-96541249D01*
X202549125Y-47847250D02*
X202549125Y-38322250D01*
X202518125Y-114491250D02*
X208380624Y-108628751D01*
X213143124Y-61003751D02*
X213143124Y-58441249D01*
X194270125Y-30043250D02*
X202518125Y-38291250D01*
X207280625Y-95441250D02*
X199114625Y-87275250D01*
X208380624Y-96541249D02*
X207280625Y-95441250D01*
X199114625Y-77750250D02*
X197755625Y-76391250D01*
X199114625Y-87275250D02*
X199114625Y-77750250D01*
X213143124Y-58441249D02*
X212043125Y-57341250D01*
X65513750Y-25191250D02*
X70365750Y-30043250D01*
X212043125Y-57341250D02*
X202549125Y-47847250D01*
X202549125Y-38322250D02*
X202518125Y-38291250D01*
%TO.N,Col13*%
X74243750Y-28841250D02*
X231168125Y-28841250D01*
X253883375Y-108706500D02*
X253883375Y-96800250D01*
X250143125Y-57341250D02*
X241977125Y-49175250D01*
X252524375Y-95441250D02*
X237214625Y-80131500D01*
X237214625Y-77750250D02*
X235855625Y-76391250D01*
X259668125Y-114491250D02*
X253883375Y-108706500D01*
X231168125Y-28841250D02*
X240618125Y-38291250D01*
X251243124Y-58441249D02*
X250143125Y-57341250D01*
X253883375Y-96800250D02*
X252524375Y-95441250D01*
X251243124Y-61003751D02*
X251243124Y-58441249D01*
X241977125Y-39650250D02*
X240618125Y-38291250D01*
X241977125Y-49175250D02*
X241977125Y-39650250D01*
X235855625Y-76391250D02*
X251243124Y-61003751D01*
X70593750Y-25191250D02*
X74243750Y-28841250D01*
X237214625Y-80131500D02*
X237214625Y-77750250D01*
%TO.N,Col14*%
X270545875Y-39650250D02*
X269186875Y-38291250D01*
X266811875Y-76391250D02*
X275055624Y-68147501D01*
X279818124Y-113391251D02*
X279818124Y-96541249D01*
X78722750Y-28240250D02*
X259135875Y-28240250D01*
X278718125Y-114491250D02*
X279818124Y-113391251D01*
X270545875Y-53931500D02*
X270545875Y-39650250D01*
X273955625Y-57341250D02*
X270545875Y-53931500D01*
X266811875Y-76391250D02*
X268170875Y-77750250D01*
X259135875Y-28240250D02*
X269186875Y-38291250D01*
X275055624Y-68147501D02*
X275055624Y-58441249D01*
X268170875Y-84894000D02*
X268170875Y-77750250D01*
X279818124Y-96541249D02*
X278718125Y-95441250D01*
X275055624Y-58441249D02*
X273955625Y-57341250D01*
X278718125Y-95441250D02*
X268170875Y-84894000D01*
X75673750Y-25191250D02*
X78722750Y-28240250D01*
%TO.N,Col4*%
X65505624Y-87016249D02*
X73930625Y-95441250D01*
X70268124Y-48916249D02*
X78693125Y-57341250D01*
X78693125Y-57341250D02*
X79793124Y-58441249D01*
X79793124Y-61003751D02*
X64405625Y-76391250D01*
X65127125Y-34250250D02*
X69168125Y-38291250D01*
X69168125Y-38291250D02*
X70268124Y-39391249D01*
X65505624Y-77491249D02*
X65505624Y-87016249D01*
X79793124Y-58441249D02*
X79793124Y-61003751D01*
X51712750Y-34250250D02*
X65127125Y-34250250D01*
X70268124Y-39391249D02*
X70268124Y-48916249D01*
X42653750Y-25191250D02*
X51712750Y-34250250D01*
X64405625Y-76391250D02*
X65505624Y-77491249D01*
%TO.N,Col3*%
X40113750Y-28286875D02*
X50118125Y-38291250D01*
X59643125Y-57341250D02*
X51477125Y-49175250D01*
X40113750Y-25191250D02*
X40113750Y-28286875D01*
X54880625Y-95441250D02*
X45435000Y-85995625D01*
X60743124Y-58441249D02*
X59643125Y-57341250D01*
X51477125Y-39650250D02*
X50118125Y-38291250D01*
X45355625Y-76391250D02*
X60743124Y-61003751D01*
X45435000Y-85995625D02*
X45435000Y-76470625D01*
X51477125Y-49175250D02*
X51477125Y-39650250D01*
X54960000Y-95520625D02*
X54880625Y-95441250D01*
X62024375Y-114491250D02*
X54960000Y-107426875D01*
X60743124Y-61003751D02*
X60743124Y-58441249D01*
X54960000Y-107426875D02*
X54960000Y-95520625D01*
X50118125Y-38291250D02*
X50118125Y-38211875D01*
X45435000Y-76470625D02*
X45355625Y-76391250D01*
%TO.N,Col2*%
X40023233Y-57341250D02*
X37183375Y-60181108D01*
X37183375Y-60181108D02*
X37183375Y-113462750D01*
X31099125Y-38322250D02*
X31099125Y-47847250D01*
X31099125Y-47847250D02*
X40593125Y-57341250D01*
X40593125Y-57341250D02*
X40023233Y-57341250D01*
X31068125Y-38291250D02*
X31099125Y-38322250D01*
X37573750Y-25191250D02*
X37573750Y-31785625D01*
X37573750Y-31785625D02*
X31068125Y-38291250D01*
X37183375Y-113462750D02*
X38211875Y-114491250D01*
%TO.N,Col6*%
X103605624Y-77491249D02*
X103605624Y-87016249D01*
X50273750Y-25191250D02*
X58130750Y-33048250D01*
X102025125Y-33048250D02*
X107268125Y-38291250D01*
X116793125Y-57341250D02*
X117893124Y-58441249D01*
X108368124Y-39391249D02*
X108368124Y-48916249D01*
X107268125Y-38291250D02*
X108368124Y-39391249D01*
X103605624Y-87016249D02*
X112030625Y-95441250D01*
X58130750Y-33048250D02*
X102025125Y-33048250D01*
X117893124Y-61003751D02*
X102505625Y-76391250D01*
X102505625Y-76391250D02*
X103605624Y-77491249D01*
X108368124Y-48916249D02*
X116793125Y-57341250D01*
X117893124Y-58441249D02*
X117893124Y-61003751D01*
%TO.N,Net-(A1-VSYS)*%
X94409375Y-3921875D02*
X93218750Y-2731250D01*
X93218750Y-2731250D02*
X36141875Y-2731250D01*
X36141875Y-2731250D02*
X32493750Y-6379375D01*
X32493750Y-6379375D02*
X32493750Y-7411250D01*
%TO.N,Col8*%
X146727125Y-49175250D02*
X146727125Y-39650250D01*
X141964625Y-87275250D02*
X141964625Y-77750250D01*
X155993124Y-61003751D02*
X155993124Y-58441249D01*
X140605625Y-76391250D02*
X155993124Y-61003751D01*
X55353750Y-25191250D02*
X62008750Y-31846250D01*
X154893125Y-57341250D02*
X146727125Y-49175250D01*
X146727125Y-39650250D02*
X145368125Y-38291250D01*
X150130625Y-95441250D02*
X141964625Y-87275250D01*
X138923125Y-31846250D02*
X145368125Y-38291250D01*
X62008750Y-31846250D02*
X138923125Y-31846250D01*
X155993124Y-58441249D02*
X154893125Y-57341250D01*
X141964625Y-77750250D02*
X140605625Y-76391250D01*
%TO.N,Net-(A1-GPIO0)*%
X39640625Y-120603125D02*
X38673858Y-120603125D01*
X196803125Y-120592750D02*
X39651000Y-120592750D01*
X27734375Y-63453125D02*
X27734375Y-32496875D01*
X38673858Y-120603125D02*
X34115375Y-116044642D01*
X39651000Y-120592750D02*
X39640625Y-120603125D01*
X34115375Y-69834125D02*
X28925000Y-64643750D01*
X222996875Y-115840625D02*
X218244750Y-120592750D01*
X218244750Y-120592750D02*
X196803125Y-120592750D01*
X34115375Y-116044642D02*
X34115375Y-69834125D01*
X28925000Y-64643750D02*
X27734375Y-63453125D01*
%TO.N,Net-(A1-GPIO16)*%
X309912500Y-122984375D02*
X307531250Y-125365625D01*
X101553125Y-27038250D02*
X303263250Y-27038250D01*
X309912500Y-33687500D02*
X309912500Y-122984375D01*
X307531250Y-125365625D02*
X250831186Y-125365625D01*
X303263250Y-27038250D02*
X309912500Y-33687500D01*
X239984311Y-114518750D02*
X227465625Y-114518750D01*
X250831186Y-125365625D02*
X239984311Y-114518750D01*
X81926125Y-7411250D02*
X78213750Y-7411250D01*
X101553125Y-27038250D02*
X81926125Y-7411250D01*
%TO.N,Net-(A1-GPIO17)*%
X310513500Y-33438558D02*
X310513500Y-123233317D01*
X81575067Y-6210250D02*
X76874750Y-6210250D01*
X101802067Y-26437250D02*
X81575067Y-6210250D01*
X76874750Y-6210250D02*
X75673750Y-7411250D01*
X101802067Y-26437250D02*
X303512192Y-26437250D01*
X310513500Y-123233317D02*
X307780192Y-125966625D01*
X233913500Y-125966625D02*
X227465625Y-119518750D01*
X303512192Y-26437250D02*
X310513500Y-33438558D01*
X307780192Y-125966625D02*
X233913500Y-125966625D01*
%TD*%
M02*
