M48
; DRILL file {KiCad 9.0.3} date 2025-07-21T11:25:06+0530
; FORMAT={-:-/ absolute / metric / decimal}
; #@! TF.CreationDate,2025-07-21T11:25:06+05:30
; #@! TF.GenerationSoftware,Kicad,Pcbnew,9.0.3
; #@! TF.FileFunction,MixedPlating,1,2
FMAT,2
METRIC
; #@! TA.AperFunction,Plated,PTH,ViaDrill
T1C0.300
; #@! TA.AperFunction,Plated,PTH,ComponentDrill
T2C0.800
; #@! TA.AperFunction,Plated,PTH,ComponentDrill
T3C1.000
; #@! TA.AperFunction,Plated,PTH,ComponentDrill
T4C1.500
; #@! TA.AperFunction,NonPlated,NPTH,ComponentDrill
T5C1.700
; #@! TA.AperFunction,NonPlated,NPTH,ComponentDrill
T6C2.390
; #@! TA.AperFunction,NonPlated,NPTH,ComponentDrill
T7C3.050
; #@! TA.AperFunction,NonPlated,NPTH,ComponentDrill
T8C3.450
; #@! TA.AperFunction,NonPlated,NPTH,ComponentDrill
T9C4.000
%
G90
G05
T1
X27.734Y-32.497
X94.409Y-3.922
X222.997Y-115.841
X248.0Y-120.603
X308.227Y-32.992
T2
X6.303Y-37.021
X6.303Y-44.641
X6.303Y-56.071
X6.303Y-63.691
X6.303Y-76.074
X6.303Y-83.694
X6.303Y-95.124
X6.303Y-102.744
X6.303Y-114.174
X6.303Y-121.794
X25.353Y-37.021
X25.353Y-44.641
X30.116Y-114.174
X30.116Y-121.794
X34.878Y-56.071
X34.878Y-63.691
X39.641Y-76.074
X39.641Y-83.694
X44.403Y-37.021
X44.403Y-44.641
X49.166Y-95.124
X49.166Y-102.744
X53.928Y-56.071
X53.928Y-63.691
X53.928Y-114.174
X53.928Y-121.794
X58.691Y-76.074
X58.691Y-83.694
X63.453Y-37.021
X63.453Y-44.641
X68.216Y-95.124
X68.216Y-102.744
X72.978Y-56.071
X72.978Y-63.691
X77.741Y-76.074
X77.741Y-83.694
X77.741Y-114.174
X77.741Y-121.794
X82.503Y-37.021
X82.503Y-44.641
X87.266Y-95.124
X87.266Y-102.744
X92.028Y-56.071
X92.028Y-63.691
X96.791Y-76.074
X96.791Y-83.694
X101.553Y-37.021
X101.553Y-44.641
X106.316Y-95.124
X106.316Y-102.744
X111.078Y-56.071
X111.078Y-63.691
X115.841Y-76.074
X115.841Y-83.694
X120.603Y-37.021
X120.603Y-44.641
X120.603Y-114.174
X120.603Y-121.794
X125.366Y-95.124
X125.366Y-102.744
X130.128Y-56.071
X130.128Y-63.691
X134.891Y-76.074
X134.891Y-83.694
X139.653Y-37.021
X139.653Y-44.641
X144.416Y-95.124
X144.416Y-102.744
X149.178Y-56.071
X149.178Y-63.691
X153.941Y-76.074
X153.941Y-83.694
X153.941Y-114.174
X153.941Y-121.794
X158.703Y-37.021
X158.703Y-44.641
X163.466Y-95.124
X163.466Y-102.744
X168.228Y-56.071
X168.228Y-63.691
X172.991Y-76.074
X172.991Y-83.694
X177.753Y-37.021
X177.753Y-44.641
X182.516Y-95.124
X182.516Y-102.744
X187.278Y-56.071
X187.278Y-63.691
X192.041Y-76.074
X192.041Y-83.694
X196.803Y-37.021
X196.803Y-44.641
X196.803Y-114.174
X196.803Y-121.794
X201.566Y-95.124
X201.566Y-102.744
X206.328Y-56.071
X206.328Y-63.691
X211.091Y-76.074
X211.091Y-83.694
X215.853Y-37.021
X215.853Y-44.641
X220.616Y-95.124
X220.616Y-102.744
X225.378Y-56.071
X225.378Y-63.691
X230.141Y-76.074
X230.141Y-83.694
X234.903Y-37.021
X234.903Y-44.641
X239.666Y-95.124
X239.666Y-102.744
X244.428Y-57.024
X244.428Y-64.644
X249.191Y-76.074
X249.191Y-83.694
X253.953Y-114.174
X253.953Y-121.794
X256.334Y-37.021
X256.334Y-44.641
X263.478Y-57.024
X263.478Y-64.644
X273.003Y-95.124
X273.003Y-102.744
X273.003Y-114.174
X273.003Y-121.794
X292.053Y-37.021
X292.053Y-44.641
X292.053Y-57.024
X292.053Y-64.644
X292.053Y-76.074
X292.053Y-83.694
X292.053Y-95.124
X292.053Y-102.744
X292.053Y-114.174
X292.053Y-121.794
T3
X29.874Y-7.411
X29.874Y-25.191
X32.414Y-7.411
X32.414Y-25.191
X34.954Y-7.411
X34.954Y-25.191
X37.494Y-7.411
X37.494Y-25.191
X40.034Y-7.411
X40.034Y-25.191
X42.574Y-7.411
X42.574Y-25.191
X45.114Y-7.411
X45.114Y-25.191
X47.654Y-7.411
X47.654Y-25.191
X50.194Y-7.411
X50.194Y-25.191
X52.734Y-7.411
X52.734Y-25.191
X55.274Y-7.411
X55.274Y-25.191
X57.814Y-7.411
X57.814Y-25.191
X60.354Y-7.411
X60.354Y-25.191
X62.894Y-7.411
X62.894Y-25.191
X65.434Y-7.411
X65.434Y-25.191
X67.974Y-7.411
X67.974Y-25.191
X70.514Y-7.411
X70.514Y-25.191
X73.054Y-7.411
X73.054Y-25.191
X75.594Y-7.411
X75.594Y-25.191
X78.134Y-7.411
X78.134Y-25.191
X227.466Y-114.519
X227.466Y-117.019
X227.466Y-119.519
X241.966Y-114.519
X241.966Y-119.519
T4
X12.018Y-38.291
X14.399Y-114.491
X16.781Y-57.341
X18.368Y-35.751
X19.162Y-76.391
X20.749Y-111.951
X23.131Y-54.801
X23.924Y-95.441
X25.512Y-73.851
X30.274Y-92.901
X31.068Y-38.291
X37.418Y-35.751
X38.212Y-114.491
X40.593Y-57.341
X44.562Y-111.951
X45.356Y-76.391
X46.943Y-54.801
X50.118Y-38.291
X51.706Y-73.851
X54.881Y-95.441
X56.468Y-35.751
X59.643Y-57.341
X61.231Y-92.901
X62.024Y-114.491
X64.406Y-76.391
X65.993Y-54.801
X68.374Y-111.951
X69.168Y-38.291
X70.756Y-73.851
X73.931Y-95.441
X75.518Y-35.751
X78.693Y-57.341
X80.281Y-92.901
X83.456Y-76.391
X85.043Y-54.801
X88.218Y-38.291
X89.806Y-73.851
X92.981Y-95.441
X94.568Y-35.751
X95.362Y-114.491
X97.743Y-57.341
X99.331Y-92.901
X101.712Y-111.951
X102.506Y-76.391
X104.093Y-54.801
X107.268Y-38.291
X108.856Y-73.851
X112.031Y-95.441
X113.618Y-35.751
X116.793Y-57.341
X118.381Y-92.901
X121.556Y-76.391
X123.143Y-54.801
X126.318Y-38.291
X127.906Y-73.851
X131.081Y-95.441
X132.668Y-35.751
X133.462Y-114.491
X135.843Y-57.341
X137.431Y-92.901
X139.812Y-111.951
X140.606Y-76.391
X142.193Y-54.801
X145.368Y-38.291
X146.956Y-73.851
X150.131Y-95.441
X151.718Y-35.751
X154.893Y-57.341
X156.481Y-92.901
X159.656Y-76.391
X161.243Y-54.801
X164.418Y-38.291
X166.006Y-73.851
X169.181Y-95.441
X170.768Y-35.751
X171.562Y-114.491
X173.943Y-57.341
X175.531Y-92.901
X177.912Y-111.951
X178.706Y-76.391
X180.293Y-54.801
X183.468Y-38.291
X185.056Y-73.851
X188.231Y-95.441
X189.818Y-35.751
X192.993Y-57.341
X194.581Y-92.901
X197.756Y-76.391
X199.343Y-54.801
X202.518Y-38.291
X202.518Y-114.491
X204.106Y-73.851
X207.281Y-95.441
X208.868Y-35.751
X208.868Y-111.951
X212.043Y-57.341
X213.631Y-92.901
X216.806Y-76.391
X218.393Y-54.801
X221.568Y-38.291
X223.156Y-73.851
X226.331Y-95.441
X227.918Y-35.751
X231.093Y-57.341
X232.681Y-92.901
X235.856Y-76.391
X237.443Y-54.801
X240.618Y-38.291
X242.206Y-73.851
X246.968Y-35.751
X250.143Y-57.341
X252.524Y-95.441
X256.493Y-54.801
X258.874Y-92.901
X259.668Y-114.491
X266.018Y-111.951
X266.812Y-76.391
X269.187Y-38.291
X273.162Y-73.851
X273.956Y-57.341
X275.537Y-35.751
X278.718Y-95.441
X278.718Y-114.491
X280.306Y-54.801
X285.068Y-92.901
X285.068Y-111.951
X297.768Y-38.291
X297.768Y-57.341
X297.768Y-76.391
X297.768Y-95.441
X297.768Y-114.491
X304.118Y-35.751
X304.118Y-54.801
X304.118Y-73.851
X304.118Y-92.901
X304.118Y-111.951
T5
X10.748Y-40.831
X13.129Y-117.031
X15.511Y-59.881
X17.892Y-78.931
X20.908Y-40.831
X22.654Y-97.981
X23.289Y-117.031
X25.671Y-59.881
X28.052Y-78.931
X29.798Y-40.831
X32.814Y-97.981
X36.942Y-117.031
X39.323Y-59.881
X39.958Y-40.831
X44.086Y-78.931
X47.102Y-117.031
X48.848Y-40.831
X49.483Y-59.881
X53.611Y-97.981
X54.246Y-78.931
X58.373Y-59.881
X59.008Y-40.831
X60.754Y-117.031
X63.136Y-78.931
X63.771Y-97.981
X67.898Y-40.831
X68.533Y-59.881
X70.914Y-117.031
X72.661Y-97.981
X73.296Y-78.931
X77.423Y-59.881
X78.058Y-40.831
X82.186Y-78.931
X82.821Y-97.981
X86.948Y-40.831
X87.583Y-59.881
X91.711Y-97.981
X92.346Y-78.931
X94.092Y-117.031
X96.473Y-59.881
X97.108Y-40.831
X101.236Y-78.931
X101.871Y-97.981
X104.252Y-117.031
X105.998Y-40.831
X106.633Y-59.881
X110.761Y-97.981
X111.396Y-78.931
X115.523Y-59.881
X116.158Y-40.831
X120.286Y-78.931
X120.921Y-97.981
X125.048Y-40.831
X125.683Y-59.881
X129.811Y-97.981
X130.446Y-78.931
X132.192Y-117.031
X134.573Y-59.881
X135.208Y-40.831
X139.336Y-78.931
X139.971Y-97.981
X142.352Y-117.031
X144.098Y-40.831
X144.733Y-59.881
X148.861Y-97.981
X149.496Y-78.931
X153.623Y-59.881
X154.258Y-40.831
X158.386Y-78.931
X159.021Y-97.981
X163.148Y-40.831
X163.783Y-59.881
X167.911Y-97.981
X168.546Y-78.931
X170.292Y-117.031
X172.673Y-59.881
X173.308Y-40.831
X177.436Y-78.931
X178.071Y-97.981
X180.452Y-117.031
X182.198Y-40.831
X182.833Y-59.881
X186.961Y-97.981
X187.596Y-78.931
X191.723Y-59.881
X192.358Y-40.831
X196.486Y-78.931
X197.121Y-97.981
X201.248Y-40.831
X201.248Y-117.031
X201.883Y-59.881
X206.011Y-97.981
X206.646Y-78.931
X210.773Y-59.881
X211.408Y-40.831
X211.408Y-117.031
X215.536Y-78.931
X216.171Y-97.981
X220.298Y-40.831
X220.933Y-59.881
X225.061Y-97.981
X225.696Y-78.931
X229.823Y-59.881
X230.458Y-40.831
X234.586Y-78.931
X235.221Y-97.981
X239.348Y-40.831
X239.983Y-59.881
X244.746Y-78.931
X248.873Y-59.881
X249.508Y-40.831
X251.254Y-97.981
X258.398Y-117.031
X259.033Y-59.881
X261.414Y-97.981
X265.542Y-78.931
X267.917Y-40.831
X268.558Y-117.031
X272.686Y-59.881
X275.702Y-78.931
X277.448Y-97.981
X277.448Y-117.031
X278.077Y-40.831
X282.846Y-59.881
X287.608Y-97.981
X287.608Y-117.031
X296.498Y-40.831
X296.498Y-59.881
X296.498Y-78.931
X296.498Y-97.981
X296.498Y-117.031
X306.658Y-40.831
X306.658Y-59.881
X306.658Y-78.931
X306.658Y-97.981
X306.658Y-117.031
T6
X108.286Y-6.637
T7
X15.834Y-90.981
X39.634Y-90.981
X87.272Y-110.031
X111.072Y-110.031
X163.472Y-110.031
X187.272Y-110.031
X258.722Y-71.931
X261.097Y-33.831
X282.522Y-71.931
X284.897Y-33.831
T8
X116.796Y-22.637
X172.036Y-6.637
T9
X15.828Y-40.831
X15.834Y-106.221
X18.209Y-117.031
X20.591Y-59.881
X22.972Y-78.931
X27.734Y-97.981
X34.878Y-40.831
X39.634Y-106.221
X42.022Y-117.031
X44.403Y-59.881
X49.166Y-78.931
X53.928Y-40.831
X58.691Y-97.981
X63.453Y-59.881
X65.834Y-117.031
X68.216Y-78.931
X72.978Y-40.831
X77.741Y-97.981
X82.503Y-59.881
X87.266Y-78.931
X87.272Y-125.271
X92.028Y-40.831
X96.791Y-97.981
X99.172Y-117.031
X101.553Y-59.881
X106.316Y-78.931
X111.072Y-125.271
X111.078Y-40.831
X115.841Y-97.981
X120.603Y-59.881
X125.366Y-78.931
X130.128Y-40.831
X134.891Y-97.981
X137.272Y-117.031
X139.653Y-59.881
X144.416Y-78.931
X149.178Y-40.831
X153.941Y-97.981
X158.703Y-59.881
X163.466Y-78.931
X163.472Y-125.271
X168.228Y-40.831
X172.991Y-97.981
X175.372Y-117.031
X177.753Y-59.881
X182.516Y-78.931
X187.272Y-125.271
X187.278Y-40.831
X192.041Y-97.981
X196.803Y-59.881
X201.566Y-78.931
X206.328Y-40.831
X206.328Y-117.031
X211.091Y-97.981
X215.853Y-59.881
X220.616Y-78.931
X225.378Y-40.831
X230.141Y-97.981
X234.903Y-59.881
X239.666Y-78.931
X244.428Y-40.831
X253.953Y-59.881
X256.334Y-97.981
X258.722Y-87.171
X261.097Y-49.071
X263.478Y-117.031
X270.622Y-78.931
X272.997Y-40.831
X277.766Y-59.881
X282.522Y-87.171
X282.528Y-97.981
X282.528Y-117.031
X284.897Y-49.071
X301.578Y-40.831
X301.578Y-59.881
X301.578Y-78.931
X301.578Y-97.981
X301.578Y-117.031
T4
G00X234.316Y-111.419
M15
G01X235.616Y-111.419
M16
G05
G00X234.316Y-122.619
M15
G01X235.616Y-122.619
M16
G05
M30
