%TF.GenerationSoftware,KiCad,Pcbnew,9.0.4*%
%TF.CreationDate,2025-09-15T12:08:47+05:30*%
%TF.ProjectId,Mechanical-PicoBoard-W,4d656368-616e-4696-9361-6c2d5069636f,rev?*%
%TF.SameCoordinates,Original*%
%TF.FileFunction,Copper,L1,Top*%
%TF.FilePolarity,Positive*%
%FSLAX46Y46*%
G04 Gerber Fmt 4.6, Leading zero omitted, Abs format (unit mm)*
G04 Created by KiCad (PCBNEW 9.0.4) date 2025-09-15 12:08:47*
%MOMM*%
%LPD*%
G01*
G04 APERTURE LIST*
G04 Aperture macros list*
%AMRoundRect*
0 Rectangle with rounded corners*
0 $1 Rounding radius*
0 $2 $3 $4 $5 $6 $7 $8 $9 X,Y pos of 4 corners*
0 Add a 4 corners polygon primitive as box body*
4,1,4,$2,$3,$4,$5,$6,$7,$8,$9,$2,$3,0*
0 Add four circle primitives for the rounded corners*
1,1,$1+$1,$2,$3*
1,1,$1+$1,$4,$5*
1,1,$1+$1,$6,$7*
1,1,$1+$1,$8,$9*
0 Add four rect primitives between the rounded corners*
20,1,$1+$1,$2,$3,$4,$5,0*
20,1,$1+$1,$4,$5,$6,$7,0*
20,1,$1+$1,$6,$7,$8,$9,0*
20,1,$1+$1,$8,$9,$2,$3,0*%
%AMFreePoly0*
4,1,37,0.603843,0.796157,0.639018,0.796157,0.711114,0.766294,0.766294,0.711114,0.796157,0.639018,0.796157,0.603843,0.800000,0.600000,0.800000,-0.600000,0.796157,-0.603843,0.796157,-0.639018,0.766294,-0.711114,0.711114,-0.766294,0.639018,-0.796157,0.603843,-0.796157,0.600000,-0.800000,0.000000,-0.800000,0.000000,-0.796148,-0.078414,-0.796148,-0.232228,-0.765552,-0.377117,-0.705537,
-0.507515,-0.618408,-0.618408,-0.507515,-0.705537,-0.377117,-0.765552,-0.232228,-0.796148,-0.078414,-0.796148,0.078414,-0.765552,0.232228,-0.705537,0.377117,-0.618408,0.507515,-0.507515,0.618408,-0.377117,0.705537,-0.232228,0.765552,-0.078414,0.796148,0.000000,0.796148,0.000000,0.800000,0.600000,0.800000,0.603843,0.796157,0.603843,0.796157,$1*%
%AMFreePoly1*
4,1,37,0.000000,0.796148,0.078414,0.796148,0.232228,0.765552,0.377117,0.705537,0.507515,0.618408,0.618408,0.507515,0.705537,0.377117,0.765552,0.232228,0.796148,0.078414,0.796148,-0.078414,0.765552,-0.232228,0.705537,-0.377117,0.618408,-0.507515,0.507515,-0.618408,0.377117,-0.705537,0.232228,-0.765552,0.078414,-0.796148,0.000000,-0.796148,0.000000,-0.800000,-0.600000,-0.800000,
-0.603843,-0.796157,-0.639018,-0.796157,-0.711114,-0.766294,-0.766294,-0.711114,-0.796157,-0.639018,-0.796157,-0.603843,-0.800000,-0.600000,-0.800000,0.600000,-0.796157,0.603843,-0.796157,0.639018,-0.766294,0.711114,-0.711114,0.766294,-0.639018,0.796157,-0.603843,0.796157,-0.600000,0.800000,0.000000,0.800000,0.000000,0.796148,0.000000,0.796148,$1*%
G04 Aperture macros list end*
%TA.AperFunction,ComponentPad*%
%ADD10C,2.200000*%
%TD*%
%TA.AperFunction,ComponentPad*%
%ADD11R,2.000000X2.000000*%
%TD*%
%TA.AperFunction,ComponentPad*%
%ADD12C,2.000000*%
%TD*%
%TA.AperFunction,ComponentPad*%
%ADD13R,3.200000X2.000000*%
%TD*%
%TA.AperFunction,ComponentPad*%
%ADD14RoundRect,0.200000X0.600000X-0.600000X0.600000X0.600000X-0.600000X0.600000X-0.600000X-0.600000X0*%
%TD*%
%TA.AperFunction,ComponentPad*%
%ADD15C,1.600000*%
%TD*%
%TA.AperFunction,ComponentPad*%
%ADD16FreePoly0,90.000000*%
%TD*%
%TA.AperFunction,ComponentPad*%
%ADD17FreePoly1,90.000000*%
%TD*%
%TA.AperFunction,SMDPad,CuDef*%
%ADD18RoundRect,0.250003X-3.499997X-2.999997X3.499997X-2.999997X3.499997X2.999997X-3.499997X2.999997X0*%
%TD*%
%TA.AperFunction,ComponentPad*%
%ADD19RoundRect,0.250000X0.550000X-0.550000X0.550000X0.550000X-0.550000X0.550000X-0.550000X-0.550000X0*%
%TD*%
%TA.AperFunction,ViaPad*%
%ADD20C,0.600000*%
%TD*%
%TA.AperFunction,Conductor*%
%ADD21C,0.400000*%
%TD*%
G04 APERTURE END LIST*
D10*
%TO.P,SW48,1,1*%
%TO.N,Net-(D48-A)*%
X113430000Y-107000625D03*
%TO.P,SW48,2,2*%
%TO.N,Col5*%
X107080000Y-109540625D03*
%TD*%
%TO.P,SW49,1,1*%
%TO.N,Net-(D49-A)*%
X132480000Y-107000625D03*
%TO.P,SW49,2,2*%
%TO.N,Col6*%
X126130000Y-109540625D03*
%TD*%
%TO.P,SW23,1,1*%
%TO.N,Net-(D23-A)*%
X175342500Y-68900625D03*
%TO.P,SW23,2,2*%
%TO.N,Col8*%
X168992500Y-71440625D03*
%TD*%
D11*
%TO.P,SW69,A,A*%
%TO.N,Net-(A1-GPIO16)*%
X241565000Y-128618125D03*
D12*
%TO.P,SW69,B,B*%
%TO.N,Net-(A1-GPIO17)*%
X241565000Y-133618125D03*
%TO.P,SW69,C,C*%
%TO.N,Net-(BT1--)*%
X241565000Y-131118125D03*
D13*
%TO.P,SW69,MP*%
%TO.N,N/C*%
X249065000Y-125518125D03*
X249065000Y-136718125D03*
D12*
%TO.P,SW69,S1,S1*%
%TO.N,Net-(BT1--)*%
X256065000Y-133618125D03*
%TO.P,SW69,S2,S2*%
%TO.N,Net-(A1-GPIO0)*%
X256065000Y-128618125D03*
%TD*%
D10*
%TO.P,SW19,1,1*%
%TO.N,Net-(D19-A)*%
X99142500Y-68900625D03*
%TO.P,SW19,2,2*%
%TO.N,Col4*%
X92792500Y-71440625D03*
%TD*%
%TO.P,SW20,1,1*%
%TO.N,Net-(D20-A)*%
X118192500Y-68900625D03*
%TO.P,SW20,2,2*%
%TO.N,Col5*%
X111842500Y-71440625D03*
%TD*%
%TO.P,SW67,1,1*%
%TO.N,Net-(D67-A)*%
X299167500Y-126050625D03*
%TO.P,SW67,2,2*%
%TO.N,Col14*%
X292817500Y-128590625D03*
%TD*%
%TO.P,SW8,1,1*%
%TO.N,Net-(D8-A)*%
X165817500Y-49850625D03*
%TO.P,SW8,2,2*%
%TO.N,Col8*%
X159467500Y-52390625D03*
%TD*%
%TO.P,SW63,1,1*%
%TO.N,Net-(D63-A)*%
X153911250Y-126050625D03*
%TO.P,SW63,2,2*%
%TO.N,Col7*%
X147561250Y-128590625D03*
%TD*%
%TO.P,SW1,1,1*%
%TO.N,Net-(D1-A)*%
X32467500Y-49850625D03*
%TO.P,SW1,2,2*%
%TO.N,Col1*%
X26117500Y-52390625D03*
%TD*%
%TO.P,SW66,1,1*%
%TO.N,Net-(D66-A)*%
X280117500Y-126050625D03*
%TO.P,SW66,2,2*%
%TO.N,Col13*%
X273767500Y-128590625D03*
%TD*%
%TO.P,SW45,1,1*%
%TO.N,Net-(D45-A)*%
X44373750Y-107000625D03*
%TO.P,SW45,2,2*%
%TO.N,Col1*%
X38023750Y-109540625D03*
%TD*%
%TO.P,SW36,1,1*%
%TO.N,Net-(D36-A)*%
X142005000Y-87950625D03*
%TO.P,SW36,2,2*%
%TO.N,Col7*%
X135655000Y-90490625D03*
%TD*%
%TO.P,SW12,1,1*%
%TO.N,Net-(D12-A)*%
X242017500Y-49850625D03*
%TO.P,SW12,2,2*%
%TO.N,Col12*%
X235667500Y-52390625D03*
%TD*%
%TO.P,SW30,1,1*%
%TO.N,Net-(D30-A)*%
X318217500Y-68900625D03*
%TO.P,SW30,2,2*%
%TO.N,Col15*%
X311867500Y-71440625D03*
%TD*%
%TO.P,SW38,1,1*%
%TO.N,Net-(D38-A)*%
X180105000Y-87950625D03*
%TO.P,SW38,2,2*%
%TO.N,Col9*%
X173755000Y-90490625D03*
%TD*%
%TO.P,SW34,1,1*%
%TO.N,Net-(D34-A)*%
X103905000Y-87950625D03*
%TO.P,SW34,2,2*%
%TO.N,Col5*%
X97555000Y-90490625D03*
%TD*%
%TO.P,SW22,1,1*%
%TO.N,Net-(D22-A)*%
X156292500Y-68900625D03*
%TO.P,SW22,2,2*%
%TO.N,Col7*%
X149942500Y-71440625D03*
%TD*%
%TO.P,SW37,1,1*%
%TO.N,Net-(D37-A)*%
X161055000Y-87950625D03*
%TO.P,SW37,2,2*%
%TO.N,Col8*%
X154705000Y-90490625D03*
%TD*%
%TO.P,SW15,1,1*%
%TO.N,Net-(D15-A)*%
X318217500Y-49850625D03*
%TO.P,SW15,2,2*%
%TO.N,Col15*%
X311867500Y-52390625D03*
%TD*%
%TO.P,SW5,1,1*%
%TO.N,Net-(D5-A)*%
X108667500Y-49850625D03*
%TO.P,SW5,2,2*%
%TO.N,Col5*%
X102317500Y-52390625D03*
%TD*%
%TO.P,SW47,1,1*%
%TO.N,Net-(D47-A)*%
X94380000Y-107000625D03*
%TO.P,SW47,2,2*%
%TO.N,Col4*%
X88030000Y-109540625D03*
%TD*%
%TO.P,SW14,1,1*%
%TO.N,Net-(D14-A)*%
X289636250Y-49850625D03*
%TO.P,SW14,2,2*%
%TO.N,Col14*%
X283286250Y-52390625D03*
%TD*%
%TO.P,SW3,1,1*%
%TO.N,Net-(D3-A)*%
X70567500Y-49850625D03*
%TO.P,SW3,2,2*%
%TO.N,Col3*%
X64217500Y-52390625D03*
%TD*%
%TO.P,SW13,1,1*%
%TO.N,Net-(D13-A)*%
X261067500Y-49850625D03*
%TO.P,SW13,2,2*%
%TO.N,Col13*%
X254717500Y-52390625D03*
%TD*%
%TO.P,SW58,1,1*%
%TO.N,Net-(D58-A)*%
X318217500Y-107000625D03*
%TO.P,SW58,2,2*%
%TO.N,Col15*%
X311867500Y-109540625D03*
%TD*%
%TO.P,SW25,1,1*%
%TO.N,Net-(D25-A)*%
X213442500Y-68900625D03*
%TO.P,SW25,2,2*%
%TO.N,Col10*%
X207092500Y-71440625D03*
%TD*%
%TO.P,SW50,1,1*%
%TO.N,Net-(D50-A)*%
X151530000Y-107000625D03*
%TO.P,SW50,2,2*%
%TO.N,Col7*%
X145180000Y-109540625D03*
%TD*%
%TO.P,SW59,1,1*%
%TO.N,Net-(D59-A)*%
X34848750Y-126050625D03*
%TO.P,SW59,2,2*%
%TO.N,Col1*%
X28498750Y-128590625D03*
%TD*%
%TO.P,SW29,1,1*%
%TO.N,Net-(D29-A)*%
X294405000Y-68900625D03*
%TO.P,SW29,2,2*%
%TO.N,Col14*%
X288055000Y-71440625D03*
%TD*%
%TO.P,SW44,1,1*%
%TO.N,Net-(D44-A)*%
X318217500Y-87950625D03*
%TO.P,SW44,2,2*%
%TO.N,Col15*%
X311867500Y-90490625D03*
%TD*%
%TO.P,SW6,1,1*%
%TO.N,Net-(D6-A)*%
X127717500Y-49850625D03*
%TO.P,SW6,2,2*%
%TO.N,Col6*%
X121367500Y-52390625D03*
%TD*%
%TO.P,SW46,1,1*%
%TO.N,Net-(D46-A)*%
X75330000Y-107000625D03*
%TO.P,SW46,2,2*%
%TO.N,Col3*%
X68980000Y-109540625D03*
%TD*%
%TO.P,SW9,1,1*%
%TO.N,Net-(D9-A)*%
X184867500Y-49850625D03*
%TO.P,SW9,2,2*%
%TO.N,Col9*%
X178517500Y-52390625D03*
%TD*%
%TO.P,SW51,1,1*%
%TO.N,Net-(D51-A)*%
X170580000Y-107000625D03*
%TO.P,SW51,2,2*%
%TO.N,Col8*%
X164230000Y-109540625D03*
%TD*%
%TO.P,SW31,1,1*%
%TO.N,Net-(D31-A)*%
X39611250Y-87950625D03*
%TO.P,SW31,2,2*%
%TO.N,Col1*%
X33261250Y-90490625D03*
%TD*%
%TO.P,SW68,1,1*%
%TO.N,Net-(D68-A)*%
X318217500Y-126050625D03*
%TO.P,SW68,2,2*%
%TO.N,Col15*%
X311867500Y-128590625D03*
%TD*%
%TO.P,SW24,1,1*%
%TO.N,Net-(D24-A)*%
X194392500Y-68900625D03*
%TO.P,SW24,2,2*%
%TO.N,Col9*%
X188042500Y-71440625D03*
%TD*%
%TO.P,SW57,1,1*%
%TO.N,Net-(D57-A)*%
X299167500Y-107000625D03*
%TO.P,SW57,2,2*%
%TO.N,Col14*%
X292817500Y-109540625D03*
%TD*%
%TO.P,SW53,1,1*%
%TO.N,Net-(D53-A)*%
X208680000Y-107000625D03*
%TO.P,SW53,2,2*%
%TO.N,Col10*%
X202330000Y-109540625D03*
%TD*%
%TO.P,SW43,1,1*%
%TO.N,Net-(D43-A)*%
X287261250Y-87950625D03*
%TO.P,SW43,2,2*%
%TO.N,Col14*%
X280911250Y-90490625D03*
%TD*%
D14*
%TO.P,A1,1,GPIO0*%
%TO.N,Net-(A1-GPIO0)*%
X43973750Y-39290625D03*
D15*
%TO.P,A1,2,GPIO1*%
%TO.N,Col1*%
X46513750Y-39290625D03*
D16*
%TO.P,A1,3,GND*%
%TO.N,Net-(BT1--)*%
X49053750Y-39290625D03*
D15*
%TO.P,A1,4,GPIO2*%
%TO.N,Col2*%
X51593750Y-39290625D03*
%TO.P,A1,5,GPIO3*%
%TO.N,Col3*%
X54133750Y-39290625D03*
%TO.P,A1,6,GPIO4*%
%TO.N,Col4*%
X56673750Y-39290625D03*
%TO.P,A1,7,GPIO5*%
%TO.N,Col5*%
X59213750Y-39290625D03*
D16*
%TO.P,A1,8,GND*%
%TO.N,Net-(BT1--)*%
X61753750Y-39290625D03*
D15*
%TO.P,A1,9,GPIO6*%
%TO.N,Col6*%
X64293750Y-39290625D03*
%TO.P,A1,10,GPIO7*%
%TO.N,Col7*%
X66833750Y-39290625D03*
%TO.P,A1,11,GPIO8*%
%TO.N,Col8*%
X69373750Y-39290625D03*
%TO.P,A1,12,GPIO9*%
%TO.N,Col9*%
X71913750Y-39290625D03*
D16*
%TO.P,A1,13,GND*%
%TO.N,Net-(BT1--)*%
X74453750Y-39290625D03*
D15*
%TO.P,A1,14,GPIO10*%
%TO.N,Col10*%
X76993750Y-39290625D03*
%TO.P,A1,15,GPIO11*%
%TO.N,Col11*%
X79533750Y-39290625D03*
%TO.P,A1,16,GPIO12*%
%TO.N,Col12*%
X82073750Y-39290625D03*
%TO.P,A1,17,GPIO13*%
%TO.N,Col13*%
X84613750Y-39290625D03*
D16*
%TO.P,A1,18,GND*%
%TO.N,Net-(BT1--)*%
X87153750Y-39290625D03*
D15*
%TO.P,A1,19,GPIO14*%
%TO.N,Col14*%
X89693750Y-39290625D03*
%TO.P,A1,20,GPIO15*%
%TO.N,Col15*%
X92233750Y-39290625D03*
%TO.P,A1,21,GPIO16*%
%TO.N,Net-(A1-GPIO16)*%
X92233750Y-21510625D03*
%TO.P,A1,22,GPIO17*%
%TO.N,Net-(A1-GPIO17)*%
X89693750Y-21510625D03*
D17*
%TO.P,A1,23,GND*%
%TO.N,Net-(BT1--)*%
X87153750Y-21510625D03*
D15*
%TO.P,A1,24,GPIO18*%
%TO.N,Row5*%
X84613750Y-21510625D03*
%TO.P,A1,25,GPIO19*%
%TO.N,Row4*%
X82073750Y-21510625D03*
%TO.P,A1,26,GPIO20*%
%TO.N,Row3*%
X79533750Y-21510625D03*
%TO.P,A1,27,GPIO21*%
%TO.N,Row2*%
X76993750Y-21510625D03*
D17*
%TO.P,A1,28,GND*%
%TO.N,Net-(BT1--)*%
X74453750Y-21510625D03*
D15*
%TO.P,A1,29,GPIO22*%
%TO.N,Row1*%
X71913750Y-21510625D03*
%TO.P,A1,30,RUN*%
%TO.N,unconnected-(A1-RUN-Pad30)*%
X69373750Y-21510625D03*
%TO.P,A1,31,GPIO26_ADC0*%
%TO.N,unconnected-(A1-GPIO26_ADC0-Pad31)*%
X66833750Y-21510625D03*
%TO.P,A1,32,GPIO27_ADC1*%
%TO.N,unconnected-(A1-GPIO27_ADC1-Pad32)*%
X64293750Y-21510625D03*
D17*
%TO.P,A1,33,AGND*%
%TO.N,unconnected-(A1-AGND-Pad33)*%
X61753750Y-21510625D03*
D15*
%TO.P,A1,34,GPIO28_ADC2*%
%TO.N,unconnected-(A1-GPIO28_ADC2-Pad34)*%
X59213750Y-21510625D03*
%TO.P,A1,35,ADC_VREF*%
%TO.N,unconnected-(A1-ADC_VREF-Pad35)*%
X56673750Y-21510625D03*
%TO.P,A1,36,3V3*%
%TO.N,unconnected-(A1-3V3-Pad36)*%
X54133750Y-21510625D03*
%TO.P,A1,37,3V3_EN*%
%TO.N,unconnected-(A1-3V3_EN-Pad37)*%
X51593750Y-21510625D03*
D17*
%TO.P,A1,38,GND*%
%TO.N,Net-(BT1--)*%
X49053750Y-21510625D03*
D15*
%TO.P,A1,39,VSYS*%
%TO.N,Net-(A1-VSYS)*%
X46513750Y-21510625D03*
%TO.P,A1,40,VBUS*%
%TO.N,unconnected-(A1-VBUS-Pad40)*%
X43973750Y-21510625D03*
%TD*%
D10*
%TO.P,SW21,1,1*%
%TO.N,Net-(D21-A)*%
X137242500Y-68900625D03*
%TO.P,SW21,2,2*%
%TO.N,Col6*%
X130892500Y-71440625D03*
%TD*%
%TO.P,SW27,1,1*%
%TO.N,Net-(D27-A)*%
X251542500Y-68900625D03*
%TO.P,SW27,2,2*%
%TO.N,Col12*%
X245192500Y-71440625D03*
%TD*%
%TO.P,SW39,1,1*%
%TO.N,Net-(D39-A)*%
X199155000Y-87950625D03*
%TO.P,SW39,2,2*%
%TO.N,Col10*%
X192805000Y-90490625D03*
%TD*%
%TO.P,SW60,1,1*%
%TO.N,Net-(D60-A)*%
X58661250Y-126050625D03*
%TO.P,SW60,2,2*%
%TO.N,Col2*%
X52311250Y-128590625D03*
%TD*%
%TO.P,SW17,1,1*%
%TO.N,Net-(D17-A)*%
X61042500Y-68900625D03*
%TO.P,SW17,2,2*%
%TO.N,Col2*%
X54692500Y-71440625D03*
%TD*%
%TO.P,SW11,1,1*%
%TO.N,Net-(D11-A)*%
X222967500Y-49850625D03*
%TO.P,SW11,2,2*%
%TO.N,Col11*%
X216617500Y-52390625D03*
%TD*%
D18*
%TO.P,BT1,1,+*%
%TO.N,Net-(A1-VSYS)*%
X118825000Y-28736875D03*
%TO.P,BT1,2,-*%
%TO.N,Net-(BT1--)*%
X198205000Y-28736875D03*
%TD*%
D10*
%TO.P,SW55,1,1*%
%TO.N,Net-(D55-A)*%
X246780000Y-107000625D03*
%TO.P,SW55,2,2*%
%TO.N,Col12*%
X240430000Y-109540625D03*
%TD*%
%TO.P,SW52,1,1*%
%TO.N,Net-(D52-A)*%
X189630000Y-107000625D03*
%TO.P,SW52,2,2*%
%TO.N,Col9*%
X183280000Y-109540625D03*
%TD*%
%TO.P,SW16,1,1*%
%TO.N,Net-(D16-A)*%
X37230000Y-68900625D03*
%TO.P,SW16,2,2*%
%TO.N,Col1*%
X30880000Y-71440625D03*
%TD*%
%TO.P,SW42,1,1*%
%TO.N,Net-(D42-A)*%
X256305000Y-87950625D03*
%TO.P,SW42,2,2*%
%TO.N,Col13*%
X249955000Y-90490625D03*
%TD*%
%TO.P,SW10,1,1*%
%TO.N,Net-(D10-A)*%
X203917500Y-49850625D03*
%TO.P,SW10,2,2*%
%TO.N,Col10*%
X197567500Y-52390625D03*
%TD*%
%TO.P,SW64,1,1*%
%TO.N,Net-(D64-A)*%
X192011250Y-126050625D03*
%TO.P,SW64,2,2*%
%TO.N,Col9*%
X185661250Y-128590625D03*
%TD*%
%TO.P,SW62,1,1*%
%TO.N,Net-(D62-A)*%
X115811250Y-126050625D03*
%TO.P,SW62,2,2*%
%TO.N,Col5*%
X109461250Y-128590625D03*
%TD*%
%TO.P,SW33,1,1*%
%TO.N,Net-(D33-A)*%
X84855000Y-87950625D03*
%TO.P,SW33,2,2*%
%TO.N,Col4*%
X78505000Y-90490625D03*
%TD*%
%TO.P,SW41,1,1*%
%TO.N,Net-(D41-A)*%
X237255000Y-87950625D03*
%TO.P,SW41,2,2*%
%TO.N,Col12*%
X230905000Y-90490625D03*
%TD*%
%TO.P,SW18,1,1*%
%TO.N,Net-(D18-A)*%
X80092500Y-68900625D03*
%TO.P,SW18,2,2*%
%TO.N,Col3*%
X73742500Y-71440625D03*
%TD*%
%TO.P,SW2,1,1*%
%TO.N,Net-(D2-A)*%
X51517500Y-49850625D03*
%TO.P,SW2,2,2*%
%TO.N,Col2*%
X45167500Y-52390625D03*
%TD*%
%TO.P,SW40,1,1*%
%TO.N,Net-(D40-A)*%
X218205000Y-87950625D03*
%TO.P,SW40,2,2*%
%TO.N,Col11*%
X211855000Y-90490625D03*
%TD*%
%TO.P,SW56,1,1*%
%TO.N,Net-(D56-A)*%
X272973750Y-107000625D03*
%TO.P,SW56,2,2*%
%TO.N,Col13*%
X266623750Y-109540625D03*
%TD*%
%TO.P,SW7,1,1*%
%TO.N,Net-(D7-A)*%
X146767500Y-49850625D03*
%TO.P,SW7,2,2*%
%TO.N,Col7*%
X140417500Y-52390625D03*
%TD*%
%TO.P,SW4,1,1*%
%TO.N,Net-(D4-A)*%
X89617500Y-49850625D03*
%TO.P,SW4,2,2*%
%TO.N,Col4*%
X83267500Y-52390625D03*
%TD*%
%TO.P,SW26,1,1*%
%TO.N,Net-(D26-A)*%
X232492500Y-68900625D03*
%TO.P,SW26,2,2*%
%TO.N,Col11*%
X226142500Y-71440625D03*
%TD*%
%TO.P,SW35,1,1*%
%TO.N,Net-(D35-A)*%
X122955000Y-87950625D03*
%TO.P,SW35,2,2*%
%TO.N,Col6*%
X116605000Y-90490625D03*
%TD*%
%TO.P,SW65,1,1*%
%TO.N,Net-(D65-A)*%
X222967500Y-126050625D03*
%TO.P,SW65,2,2*%
%TO.N,Col11*%
X216617500Y-128590625D03*
%TD*%
%TO.P,SW32,1,1*%
%TO.N,Net-(D32-A)*%
X65805000Y-87950625D03*
%TO.P,SW32,2,2*%
%TO.N,Col3*%
X59455000Y-90490625D03*
%TD*%
%TO.P,SW28,1,1*%
%TO.N,Net-(D28-A)*%
X270592500Y-68900625D03*
%TO.P,SW28,2,2*%
%TO.N,Col13*%
X264242500Y-71440625D03*
%TD*%
%TO.P,SW54,1,1*%
%TO.N,Net-(D54-A)*%
X227730000Y-107000625D03*
%TO.P,SW54,2,2*%
%TO.N,Col11*%
X221380000Y-109540625D03*
%TD*%
%TO.P,SW61,1,1*%
%TO.N,Net-(D61-A)*%
X82473750Y-126050625D03*
%TO.P,SW61,2,2*%
%TO.N,Col3*%
X76123750Y-128590625D03*
%TD*%
D19*
%TO.P,D55,1,K*%
%TO.N,Row4*%
X234715000Y-116843125D03*
D15*
%TO.P,D55,2,A*%
%TO.N,Net-(D55-A)*%
X234715000Y-109223125D03*
%TD*%
D19*
%TO.P,D4,1,K*%
%TO.N,Row1*%
X77552500Y-58740625D03*
D15*
%TO.P,D4,2,A*%
%TO.N,Net-(D4-A)*%
X77552500Y-51120625D03*
%TD*%
D19*
%TO.P,D30,1,K*%
%TO.N,Row2*%
X306152500Y-78743125D03*
D15*
%TO.P,D30,2,A*%
%TO.N,Net-(D30-A)*%
X306152500Y-71123125D03*
%TD*%
D19*
%TO.P,D39,1,K*%
%TO.N,Row3*%
X187090000Y-97793125D03*
D15*
%TO.P,D39,2,A*%
%TO.N,Net-(D39-A)*%
X187090000Y-90173125D03*
%TD*%
D19*
%TO.P,D5,1,K*%
%TO.N,Row1*%
X96602500Y-58740625D03*
D15*
%TO.P,D5,2,A*%
%TO.N,Net-(D5-A)*%
X96602500Y-51120625D03*
%TD*%
D19*
%TO.P,D47,1,K*%
%TO.N,Row4*%
X82315000Y-116843125D03*
D15*
%TO.P,D47,2,A*%
%TO.N,Net-(D47-A)*%
X82315000Y-109223125D03*
%TD*%
D19*
%TO.P,D40,1,K*%
%TO.N,Row3*%
X206140000Y-97793125D03*
D15*
%TO.P,D40,2,A*%
%TO.N,Net-(D40-A)*%
X206140000Y-90173125D03*
%TD*%
D19*
%TO.P,D7,1,K*%
%TO.N,Row1*%
X134702500Y-58740625D03*
D15*
%TO.P,D7,2,A*%
%TO.N,Net-(D7-A)*%
X134702500Y-51120625D03*
%TD*%
D19*
%TO.P,D43,1,K*%
%TO.N,Row3*%
X263290000Y-97793125D03*
D15*
%TO.P,D43,2,A*%
%TO.N,Net-(D43-A)*%
X263290000Y-90173125D03*
%TD*%
D19*
%TO.P,D48,1,K*%
%TO.N,Row4*%
X101365000Y-116843125D03*
D15*
%TO.P,D48,2,A*%
%TO.N,Net-(D48-A)*%
X101365000Y-109223125D03*
%TD*%
D19*
%TO.P,D51,1,K*%
%TO.N,Row4*%
X158515000Y-116843125D03*
D15*
%TO.P,D51,2,A*%
%TO.N,Net-(D51-A)*%
X158515000Y-109223125D03*
%TD*%
D19*
%TO.P,D20,1,K*%
%TO.N,Row2*%
X106127500Y-77790625D03*
D15*
%TO.P,D20,2,A*%
%TO.N,Net-(D20-A)*%
X106127500Y-70170625D03*
%TD*%
D19*
%TO.P,D11,1,K*%
%TO.N,Row1*%
X210902500Y-58740625D03*
D15*
%TO.P,D11,2,A*%
%TO.N,Net-(D11-A)*%
X210902500Y-51120625D03*
%TD*%
D19*
%TO.P,D50,1,K*%
%TO.N,Row4*%
X139465000Y-116843125D03*
D15*
%TO.P,D50,2,A*%
%TO.N,Net-(D50-A)*%
X139465000Y-109223125D03*
%TD*%
D19*
%TO.P,D2,1,K*%
%TO.N,Row1*%
X39452500Y-58740625D03*
D15*
%TO.P,D2,2,A*%
%TO.N,Net-(D2-A)*%
X39452500Y-51120625D03*
%TD*%
D19*
%TO.P,D28,1,K*%
%TO.N,Row2*%
X258527500Y-78743125D03*
D15*
%TO.P,D28,2,A*%
%TO.N,Net-(D28-A)*%
X258527500Y-71123125D03*
%TD*%
D19*
%TO.P,D41,1,K*%
%TO.N,Row3*%
X225190000Y-97793125D03*
D15*
%TO.P,D41,2,A*%
%TO.N,Net-(D41-A)*%
X225190000Y-90173125D03*
%TD*%
D19*
%TO.P,D63,1,K*%
%TO.N,Row5*%
X134702500Y-135893125D03*
D15*
%TO.P,D63,2,A*%
%TO.N,Net-(D63-A)*%
X134702500Y-128273125D03*
%TD*%
D19*
%TO.P,D45,1,K*%
%TO.N,Row4*%
X20402500Y-116843125D03*
D15*
%TO.P,D45,2,A*%
%TO.N,Net-(D45-A)*%
X20402500Y-109223125D03*
%TD*%
D19*
%TO.P,D19,1,K*%
%TO.N,Row2*%
X87077500Y-77790625D03*
D15*
%TO.P,D19,2,A*%
%TO.N,Net-(D19-A)*%
X87077500Y-70170625D03*
%TD*%
D19*
%TO.P,D62,1,K*%
%TO.N,Row5*%
X91840000Y-135893125D03*
D15*
%TO.P,D62,2,A*%
%TO.N,Net-(D62-A)*%
X91840000Y-128273125D03*
%TD*%
D19*
%TO.P,D37,1,K*%
%TO.N,Row3*%
X148990000Y-97793125D03*
D15*
%TO.P,D37,2,A*%
%TO.N,Net-(D37-A)*%
X148990000Y-90173125D03*
%TD*%
D19*
%TO.P,D68,1,K*%
%TO.N,Row5*%
X306152500Y-135893125D03*
D15*
%TO.P,D68,2,A*%
%TO.N,Net-(D68-A)*%
X306152500Y-128273125D03*
%TD*%
D19*
%TO.P,D25,1,K*%
%TO.N,Row2*%
X201377500Y-77790625D03*
D15*
%TO.P,D25,2,A*%
%TO.N,Net-(D25-A)*%
X201377500Y-70170625D03*
%TD*%
D19*
%TO.P,D29,1,K*%
%TO.N,Row2*%
X277577500Y-78743125D03*
D15*
%TO.P,D29,2,A*%
%TO.N,Net-(D29-A)*%
X277577500Y-71123125D03*
%TD*%
D19*
%TO.P,D33,1,K*%
%TO.N,Row3*%
X72790000Y-97793125D03*
D15*
%TO.P,D33,2,A*%
%TO.N,Net-(D33-A)*%
X72790000Y-90173125D03*
%TD*%
D19*
%TO.P,D38,1,K*%
%TO.N,Row3*%
X168040000Y-97793125D03*
D15*
%TO.P,D38,2,A*%
%TO.N,Net-(D38-A)*%
X168040000Y-90173125D03*
%TD*%
D19*
%TO.P,D31,1,K*%
%TO.N,Row3*%
X20402500Y-97793125D03*
D15*
%TO.P,D31,2,A*%
%TO.N,Net-(D31-A)*%
X20402500Y-90173125D03*
%TD*%
D19*
%TO.P,D15,1,K*%
%TO.N,Row1*%
X306152500Y-58740625D03*
D15*
%TO.P,D15,2,A*%
%TO.N,Net-(D15-A)*%
X306152500Y-51120625D03*
%TD*%
D19*
%TO.P,D21,1,K*%
%TO.N,Row2*%
X125177500Y-77790625D03*
D15*
%TO.P,D21,2,A*%
%TO.N,Net-(D21-A)*%
X125177500Y-70170625D03*
%TD*%
D19*
%TO.P,D66,1,K*%
%TO.N,Row5*%
X268052500Y-135893125D03*
D15*
%TO.P,D66,2,A*%
%TO.N,Net-(D66-A)*%
X268052500Y-128273125D03*
%TD*%
D19*
%TO.P,D35,1,K*%
%TO.N,Row3*%
X110890000Y-97793125D03*
D15*
%TO.P,D35,2,A*%
%TO.N,Net-(D35-A)*%
X110890000Y-90173125D03*
%TD*%
D19*
%TO.P,D3,1,K*%
%TO.N,Row1*%
X58502500Y-58740625D03*
D15*
%TO.P,D3,2,A*%
%TO.N,Net-(D3-A)*%
X58502500Y-51120625D03*
%TD*%
D19*
%TO.P,D16,1,K*%
%TO.N,Row2*%
X20402500Y-77790625D03*
D15*
%TO.P,D16,2,A*%
%TO.N,Net-(D16-A)*%
X20402500Y-70170625D03*
%TD*%
D19*
%TO.P,D57,1,K*%
%TO.N,Row4*%
X287102500Y-116843125D03*
D15*
%TO.P,D57,2,A*%
%TO.N,Net-(D57-A)*%
X287102500Y-109223125D03*
%TD*%
D19*
%TO.P,D27,1,K*%
%TO.N,Row2*%
X239477500Y-77790625D03*
D15*
%TO.P,D27,2,A*%
%TO.N,Net-(D27-A)*%
X239477500Y-70170625D03*
%TD*%
D19*
%TO.P,D18,1,K*%
%TO.N,Row2*%
X68027500Y-77790625D03*
D15*
%TO.P,D18,2,A*%
%TO.N,Net-(D18-A)*%
X68027500Y-70170625D03*
%TD*%
D19*
%TO.P,D61,1,K*%
%TO.N,Row5*%
X68027500Y-135893125D03*
D15*
%TO.P,D61,2,A*%
%TO.N,Net-(D61-A)*%
X68027500Y-128273125D03*
%TD*%
D19*
%TO.P,D24,1,K*%
%TO.N,Row2*%
X182327500Y-77790625D03*
D15*
%TO.P,D24,2,A*%
%TO.N,Net-(D24-A)*%
X182327500Y-70170625D03*
%TD*%
D19*
%TO.P,D17,1,K*%
%TO.N,Row2*%
X48977500Y-77790625D03*
D15*
%TO.P,D17,2,A*%
%TO.N,Net-(D17-A)*%
X48977500Y-70170625D03*
%TD*%
D19*
%TO.P,D49,1,K*%
%TO.N,Row4*%
X120415000Y-116843125D03*
D15*
%TO.P,D49,2,A*%
%TO.N,Net-(D49-A)*%
X120415000Y-109223125D03*
%TD*%
D19*
%TO.P,D1,1,K*%
%TO.N,Row1*%
X20402500Y-58740625D03*
D15*
%TO.P,D1,2,A*%
%TO.N,Net-(D1-A)*%
X20402500Y-51120625D03*
%TD*%
D19*
%TO.P,D67,1,K*%
%TO.N,Row5*%
X287102500Y-135893125D03*
D15*
%TO.P,D67,2,A*%
%TO.N,Net-(D67-A)*%
X287102500Y-128273125D03*
%TD*%
D19*
%TO.P,D34,1,K*%
%TO.N,Row3*%
X91840000Y-97793125D03*
D15*
%TO.P,D34,2,A*%
%TO.N,Net-(D34-A)*%
X91840000Y-90173125D03*
%TD*%
D19*
%TO.P,D52,1,K*%
%TO.N,Row4*%
X177565000Y-116843125D03*
D15*
%TO.P,D52,2,A*%
%TO.N,Net-(D52-A)*%
X177565000Y-109223125D03*
%TD*%
D19*
%TO.P,D8,1,K*%
%TO.N,Row1*%
X153752500Y-58740625D03*
D15*
%TO.P,D8,2,A*%
%TO.N,Net-(D8-A)*%
X153752500Y-51120625D03*
%TD*%
D19*
%TO.P,D26,1,K*%
%TO.N,Row2*%
X220427500Y-77790625D03*
D15*
%TO.P,D26,2,A*%
%TO.N,Net-(D26-A)*%
X220427500Y-70170625D03*
%TD*%
D19*
%TO.P,D22,1,K*%
%TO.N,Row2*%
X144227500Y-77790625D03*
D15*
%TO.P,D22,2,A*%
%TO.N,Net-(D22-A)*%
X144227500Y-70170625D03*
%TD*%
D19*
%TO.P,D44,1,K*%
%TO.N,Row3*%
X306152500Y-97793125D03*
D15*
%TO.P,D44,2,A*%
%TO.N,Net-(D44-A)*%
X306152500Y-90173125D03*
%TD*%
D19*
%TO.P,D10,1,K*%
%TO.N,Row1*%
X191852500Y-58740625D03*
D15*
%TO.P,D10,2,A*%
%TO.N,Net-(D10-A)*%
X191852500Y-51120625D03*
%TD*%
D19*
%TO.P,D64,1,K*%
%TO.N,Row5*%
X168040000Y-135893125D03*
D15*
%TO.P,D64,2,A*%
%TO.N,Net-(D64-A)*%
X168040000Y-128273125D03*
%TD*%
D19*
%TO.P,D6,1,K*%
%TO.N,Row1*%
X115652500Y-58740625D03*
D15*
%TO.P,D6,2,A*%
%TO.N,Net-(D6-A)*%
X115652500Y-51120625D03*
%TD*%
D19*
%TO.P,D14,1,K*%
%TO.N,Row1*%
X270433750Y-58740625D03*
D15*
%TO.P,D14,2,A*%
%TO.N,Net-(D14-A)*%
X270433750Y-51120625D03*
%TD*%
D19*
%TO.P,D23,1,K*%
%TO.N,Row2*%
X163277500Y-77790625D03*
D15*
%TO.P,D23,2,A*%
%TO.N,Net-(D23-A)*%
X163277500Y-70170625D03*
%TD*%
D19*
%TO.P,D36,1,K*%
%TO.N,Row3*%
X129940000Y-97793125D03*
D15*
%TO.P,D36,2,A*%
%TO.N,Net-(D36-A)*%
X129940000Y-90173125D03*
%TD*%
D19*
%TO.P,D46,1,K*%
%TO.N,Row4*%
X63265000Y-116843125D03*
D15*
%TO.P,D46,2,A*%
%TO.N,Net-(D46-A)*%
X63265000Y-109223125D03*
%TD*%
D19*
%TO.P,D42,1,K*%
%TO.N,Row3*%
X244240000Y-97793125D03*
D15*
%TO.P,D42,2,A*%
%TO.N,Net-(D42-A)*%
X244240000Y-90173125D03*
%TD*%
D19*
%TO.P,D13,1,K*%
%TO.N,Row1*%
X249002500Y-58740625D03*
D15*
%TO.P,D13,2,A*%
%TO.N,Net-(D13-A)*%
X249002500Y-51120625D03*
%TD*%
D19*
%TO.P,D58,1,K*%
%TO.N,Row4*%
X306152500Y-116843125D03*
D15*
%TO.P,D58,2,A*%
%TO.N,Net-(D58-A)*%
X306152500Y-109223125D03*
%TD*%
D19*
%TO.P,D59,1,K*%
%TO.N,Row5*%
X20402500Y-135893125D03*
D15*
%TO.P,D59,2,A*%
%TO.N,Net-(D59-A)*%
X20402500Y-128273125D03*
%TD*%
D19*
%TO.P,D65,1,K*%
%TO.N,Row5*%
X210902500Y-135893125D03*
D15*
%TO.P,D65,2,A*%
%TO.N,Net-(D65-A)*%
X210902500Y-128273125D03*
%TD*%
D19*
%TO.P,D56,1,K*%
%TO.N,Row4*%
X253765000Y-116843125D03*
D15*
%TO.P,D56,2,A*%
%TO.N,Net-(D56-A)*%
X253765000Y-109223125D03*
%TD*%
D19*
%TO.P,D60,1,K*%
%TO.N,Row5*%
X44215000Y-135893125D03*
D15*
%TO.P,D60,2,A*%
%TO.N,Net-(D60-A)*%
X44215000Y-128273125D03*
%TD*%
D19*
%TO.P,D32,1,K*%
%TO.N,Row3*%
X53740000Y-97793125D03*
D15*
%TO.P,D32,2,A*%
%TO.N,Net-(D32-A)*%
X53740000Y-90173125D03*
%TD*%
D19*
%TO.P,D9,1,K*%
%TO.N,Row1*%
X172802500Y-58740625D03*
D15*
%TO.P,D9,2,A*%
%TO.N,Net-(D9-A)*%
X172802500Y-51120625D03*
%TD*%
D19*
%TO.P,D12,1,K*%
%TO.N,Row1*%
X229952500Y-58740625D03*
D15*
%TO.P,D12,2,A*%
%TO.N,Net-(D12-A)*%
X229952500Y-51120625D03*
%TD*%
D19*
%TO.P,D54,1,K*%
%TO.N,Row4*%
X215665000Y-116843125D03*
D15*
%TO.P,D54,2,A*%
%TO.N,Net-(D54-A)*%
X215665000Y-109223125D03*
%TD*%
D19*
%TO.P,D53,1,K*%
%TO.N,Row4*%
X196615000Y-116843125D03*
D15*
%TO.P,D53,2,A*%
%TO.N,Net-(D53-A)*%
X196615000Y-109223125D03*
%TD*%
D20*
%TO.N,Net-(BT1--)*%
X322326275Y-47091225D03*
X262099375Y-134702500D03*
%TO.N,Net-(A1-VSYS)*%
X108508750Y-18021250D03*
%TO.N,Net-(A1-GPIO0)*%
X237096250Y-129940000D03*
X41833750Y-46596250D03*
%TD*%
D21*
%TO.N,Net-(BT1--)*%
X198205000Y-28736875D02*
X198205000Y-21992500D01*
X257149375Y-134702500D02*
X262099375Y-134702500D01*
X86032125Y-22711625D02*
X87233125Y-21510625D01*
X80962500Y-22711625D02*
X86032125Y-22711625D01*
X87233125Y-20705625D02*
X87233125Y-21510625D01*
X210111250Y-40643125D02*
X198205000Y-28736875D01*
X86032125Y-38089625D02*
X87233125Y-39290625D01*
X74533125Y-21510625D02*
X75734125Y-22711625D01*
X322326275Y-47091225D02*
X315878175Y-40643125D01*
X50334125Y-38089625D02*
X60632125Y-38089625D01*
X61833125Y-39290625D02*
X63034125Y-38089625D01*
X75734125Y-38089625D02*
X77390625Y-38089625D01*
X63034125Y-38089625D02*
X73332125Y-38089625D01*
X75734125Y-22711625D02*
X80962500Y-22711625D01*
X78581250Y-25003125D02*
X78581250Y-36899000D01*
X315878175Y-40643125D02*
X210111250Y-40643125D01*
X74533125Y-39290625D02*
X75734125Y-38089625D01*
X73332125Y-38089625D02*
X74533125Y-39290625D01*
X80962500Y-22711625D02*
X80872750Y-22711625D01*
X78581250Y-36899000D02*
X77390625Y-38089625D01*
X91108125Y-16830625D02*
X87233125Y-20705625D01*
X198205000Y-21992500D02*
X193043125Y-16830625D01*
X60632125Y-38089625D02*
X61833125Y-39290625D01*
X256065000Y-133618125D02*
X257149375Y-134702500D01*
X77390625Y-38089625D02*
X86032125Y-38089625D01*
X193043125Y-16830625D02*
X91108125Y-16830625D01*
X49133125Y-39290625D02*
X50334125Y-38089625D01*
X80872750Y-22711625D02*
X78581250Y-25003125D01*
X49133125Y-21510625D02*
X49133125Y-39290625D01*
%TO.N,Row5*%
X19977732Y-16236875D02*
X16719250Y-19495357D01*
X306152500Y-135893125D02*
X268052500Y-135893125D01*
X80550745Y-16236875D02*
X84693125Y-20379255D01*
X16719250Y-132209875D02*
X20402500Y-135893125D01*
X268052500Y-135893125D02*
X265671250Y-138274375D01*
X210902500Y-135893125D02*
X20402500Y-135893125D01*
X19977732Y-16236875D02*
X80550745Y-16236875D01*
X16719250Y-19495357D02*
X16719250Y-132209875D01*
X265671250Y-138274375D02*
X213283750Y-138274375D01*
X213283750Y-138274375D02*
X210902500Y-135893125D01*
X84693125Y-20379255D02*
X84693125Y-21510625D01*
%TO.N,Row1*%
X20973500Y-18640875D02*
X70254745Y-18640875D01*
X71993125Y-20379255D02*
X71993125Y-21510625D01*
X20402500Y-58740625D02*
X306152500Y-58740625D01*
X19201500Y-57539625D02*
X20402500Y-58740625D01*
X19201500Y-20412875D02*
X19201500Y-57539625D01*
X20973500Y-18640875D02*
X19201500Y-20412875D01*
X70254745Y-18640875D02*
X71993125Y-20379255D01*
%TO.N,Row4*%
X20402500Y-116843125D02*
X306152500Y-116843125D01*
X20226674Y-16837875D02*
X78611745Y-16837875D01*
X82153125Y-20379255D02*
X82153125Y-21510625D01*
X20226674Y-16837875D02*
X17320250Y-19744299D01*
X17320250Y-113760875D02*
X20402500Y-116843125D01*
X78611745Y-16837875D02*
X82153125Y-20379255D01*
X17320250Y-19744299D02*
X17320250Y-113760875D01*
%TO.N,Col2*%
X51673125Y-39290625D02*
X51673125Y-40090625D01*
%TO.N,Row3*%
X79613125Y-20752153D02*
X79613125Y-21510625D01*
X17921250Y-95311875D02*
X20402500Y-97793125D01*
X20475616Y-17438875D02*
X17921250Y-19993241D01*
X20475616Y-17438875D02*
X76299847Y-17438875D01*
X76299847Y-17438875D02*
X79613125Y-20752153D01*
X17921250Y-19993241D02*
X17921250Y-95311875D01*
X306152500Y-97793125D02*
X20402500Y-97793125D01*
%TO.N,Row2*%
X258527500Y-78743125D02*
X256146250Y-78743125D01*
X18522250Y-20242183D02*
X18522250Y-75910375D01*
X239477500Y-77790625D02*
X20402500Y-77790625D01*
X18522250Y-75910375D02*
X20402500Y-77790625D01*
X256146250Y-78743125D02*
X255193750Y-77790625D01*
X77073125Y-20745081D02*
X77073125Y-21510625D01*
X74367919Y-18039875D02*
X77073125Y-20745081D01*
X20724558Y-18039875D02*
X18522250Y-20242183D01*
X306152500Y-78743125D02*
X258527500Y-78743125D01*
X20724558Y-18039875D02*
X74367919Y-18039875D01*
X255193750Y-77790625D02*
X239477500Y-77790625D01*
%TO.N,Net-(A1-VSYS)*%
X118825000Y-28337500D02*
X118825000Y-28736875D01*
X108508750Y-18021250D02*
X118825000Y-28337500D01*
%TO.N,Net-(D1-A)*%
X20402500Y-51120625D02*
X21672500Y-49850625D01*
X21672500Y-49850625D02*
X32467500Y-49850625D01*
%TO.N,Net-(D2-A)*%
X40722500Y-49850625D02*
X51517500Y-49850625D01*
X39452500Y-51120625D02*
X40722500Y-49850625D01*
%TO.N,Net-(D3-A)*%
X59772500Y-49850625D02*
X70567500Y-49850625D01*
X58502500Y-51120625D02*
X59772500Y-49850625D01*
%TO.N,Net-(D4-A)*%
X77552500Y-51120625D02*
X78822500Y-49850625D01*
X78822500Y-49850625D02*
X89617500Y-49850625D01*
%TO.N,Net-(D5-A)*%
X96602500Y-51120625D02*
X97872500Y-49850625D01*
X97872500Y-49850625D02*
X108667500Y-49850625D01*
%TO.N,Net-(D6-A)*%
X115652500Y-51120625D02*
X116922500Y-49850625D01*
X116922500Y-49850625D02*
X127717500Y-49850625D01*
%TO.N,Net-(D7-A)*%
X134702500Y-51120625D02*
X135972500Y-49850625D01*
X135972500Y-49850625D02*
X146767500Y-49850625D01*
%TO.N,Net-(D8-A)*%
X153752500Y-51120625D02*
X155022500Y-49850625D01*
X155022500Y-49850625D02*
X165817500Y-49850625D01*
%TO.N,Net-(D9-A)*%
X174072500Y-49850625D02*
X184867500Y-49850625D01*
X172802500Y-51120625D02*
X174072500Y-49850625D01*
%TO.N,Net-(D10-A)*%
X191852500Y-51120625D02*
X193122500Y-49850625D01*
X193122500Y-49850625D02*
X203917500Y-49850625D01*
%TO.N,Net-(D11-A)*%
X212172500Y-49850625D02*
X222967500Y-49850625D01*
X210902500Y-51120625D02*
X212172500Y-49850625D01*
%TO.N,Net-(D12-A)*%
X231222500Y-49850625D02*
X242017500Y-49850625D01*
X229952500Y-51120625D02*
X231222500Y-49850625D01*
%TO.N,Net-(D13-A)*%
X250272500Y-49850625D02*
X261067500Y-49850625D01*
X249002500Y-51120625D02*
X250272500Y-49850625D01*
%TO.N,Net-(D14-A)*%
X276070736Y-49850625D02*
X289636250Y-49850625D01*
X270433750Y-51120625D02*
X274800736Y-51120625D01*
X274800736Y-51120625D02*
X276070736Y-49850625D01*
%TO.N,Net-(D15-A)*%
X306152500Y-51120625D02*
X307422500Y-49850625D01*
X307422500Y-49850625D02*
X318217500Y-49850625D01*
%TO.N,Net-(D16-A)*%
X20402500Y-70170625D02*
X21672500Y-68900625D01*
X21672500Y-68900625D02*
X37230000Y-68900625D01*
%TO.N,Net-(D17-A)*%
X48977500Y-70170625D02*
X50247500Y-68900625D01*
X50247500Y-68900625D02*
X61042500Y-68900625D01*
%TO.N,Net-(D18-A)*%
X69297500Y-68900625D02*
X80092500Y-68900625D01*
X68027500Y-70170625D02*
X69297500Y-68900625D01*
%TO.N,Net-(D19-A)*%
X87077500Y-70170625D02*
X88347500Y-68900625D01*
X88347500Y-68900625D02*
X99142500Y-68900625D01*
%TO.N,Net-(D20-A)*%
X107397500Y-68900625D02*
X118192500Y-68900625D01*
X106127500Y-70170625D02*
X107397500Y-68900625D01*
%TO.N,Net-(D21-A)*%
X126447500Y-68900625D02*
X137242500Y-68900625D01*
X125177500Y-70170625D02*
X126447500Y-68900625D01*
%TO.N,Net-(D22-A)*%
X144227500Y-70170625D02*
X145497500Y-68900625D01*
X145497500Y-68900625D02*
X156292500Y-68900625D01*
%TO.N,Net-(D23-A)*%
X164547500Y-68900625D02*
X175342500Y-68900625D01*
X163277500Y-70170625D02*
X164547500Y-68900625D01*
%TO.N,Net-(D24-A)*%
X183597500Y-68900625D02*
X194392500Y-68900625D01*
X182327500Y-70170625D02*
X183597500Y-68900625D01*
%TO.N,Net-(D25-A)*%
X202647500Y-68900625D02*
X213442500Y-68900625D01*
X201377500Y-70170625D02*
X202647500Y-68900625D01*
%TO.N,Net-(D26-A)*%
X221697500Y-68900625D02*
X232492500Y-68900625D01*
X220427500Y-70170625D02*
X221697500Y-68900625D01*
%TO.N,Net-(D27-A)*%
X240747500Y-68900625D02*
X251542500Y-68900625D01*
X239477500Y-70170625D02*
X240747500Y-68900625D01*
%TO.N,Net-(D28-A)*%
X258527500Y-71123125D02*
X260750000Y-68900625D01*
X260750000Y-68900625D02*
X270592500Y-68900625D01*
%TO.N,Net-(D29-A)*%
X279800000Y-68900625D02*
X294405000Y-68900625D01*
X277577500Y-71123125D02*
X279800000Y-68900625D01*
%TO.N,Net-(D30-A)*%
X308375000Y-68900625D02*
X318217500Y-68900625D01*
X306152500Y-71123125D02*
X308375000Y-68900625D01*
%TO.N,Net-(D31-A)*%
X22625000Y-87950625D02*
X39611250Y-87950625D01*
X20402500Y-90173125D02*
X22625000Y-87950625D01*
%TO.N,Net-(D32-A)*%
X53740000Y-90173125D02*
X55962500Y-87950625D01*
X55962500Y-87950625D02*
X65805000Y-87950625D01*
%TO.N,Net-(D33-A)*%
X75012500Y-87950625D02*
X84855000Y-87950625D01*
X72790000Y-90173125D02*
X75012500Y-87950625D01*
%TO.N,Net-(D34-A)*%
X91840000Y-90173125D02*
X94062500Y-87950625D01*
X94062500Y-87950625D02*
X103905000Y-87950625D01*
%TO.N,Net-(D35-A)*%
X110890000Y-90173125D02*
X113112500Y-87950625D01*
X113112500Y-87950625D02*
X122955000Y-87950625D01*
%TO.N,Net-(D36-A)*%
X129940000Y-90173125D02*
X132162500Y-87950625D01*
X132162500Y-87950625D02*
X142005000Y-87950625D01*
%TO.N,Net-(D37-A)*%
X151212500Y-87950625D02*
X161055000Y-87950625D01*
X148990000Y-90173125D02*
X151212500Y-87950625D01*
%TO.N,Net-(D38-A)*%
X168040000Y-90173125D02*
X170262500Y-87950625D01*
X170262500Y-87950625D02*
X180105000Y-87950625D01*
%TO.N,Net-(D39-A)*%
X189312500Y-87950625D02*
X199155000Y-87950625D01*
X187090000Y-90173125D02*
X189312500Y-87950625D01*
%TO.N,Net-(D40-A)*%
X208362500Y-87950625D02*
X218205000Y-87950625D01*
X206140000Y-90173125D02*
X208362500Y-87950625D01*
%TO.N,Net-(D41-A)*%
X225190000Y-90173125D02*
X227412500Y-87950625D01*
X227412500Y-87950625D02*
X237255000Y-87950625D01*
%TO.N,Net-(D42-A)*%
X246462500Y-87950625D02*
X256305000Y-87950625D01*
X244240000Y-90173125D02*
X246462500Y-87950625D01*
%TO.N,Net-(D43-A)*%
X281328515Y-87950625D02*
X287261250Y-87950625D01*
X263290000Y-90173125D02*
X279106015Y-90173125D01*
X279106015Y-90173125D02*
X281328515Y-87950625D01*
%TO.N,Net-(D44-A)*%
X306152500Y-90173125D02*
X308375000Y-87950625D01*
X308375000Y-87950625D02*
X318217500Y-87950625D01*
%TO.N,Net-(D45-A)*%
X30808236Y-107000625D02*
X44373750Y-107000625D01*
X28585736Y-109223125D02*
X30808236Y-107000625D01*
X20402500Y-109223125D02*
X28585736Y-109223125D01*
%TO.N,Net-(D46-A)*%
X63265000Y-109223125D02*
X65487500Y-107000625D01*
X65487500Y-107000625D02*
X75330000Y-107000625D01*
%TO.N,Net-(D47-A)*%
X82315000Y-109223125D02*
X84537500Y-107000625D01*
X84537500Y-107000625D02*
X94380000Y-107000625D01*
%TO.N,Net-(D48-A)*%
X103587500Y-107000625D02*
X113430000Y-107000625D01*
X101365000Y-109223125D02*
X103587500Y-107000625D01*
%TO.N,Net-(D49-A)*%
X122637500Y-107000625D02*
X132480000Y-107000625D01*
X120415000Y-109223125D02*
X122637500Y-107000625D01*
%TO.N,Net-(D50-A)*%
X139465000Y-109223125D02*
X141687500Y-107000625D01*
X141687500Y-107000625D02*
X151530000Y-107000625D01*
%TO.N,Net-(D51-A)*%
X160737500Y-107000625D02*
X170580000Y-107000625D01*
X158515000Y-109223125D02*
X160737500Y-107000625D01*
%TO.N,Net-(D52-A)*%
X177565000Y-109223125D02*
X179787500Y-107000625D01*
X179787500Y-107000625D02*
X189630000Y-107000625D01*
%TO.N,Net-(D53-A)*%
X196615000Y-109223125D02*
X198837500Y-107000625D01*
X198837500Y-107000625D02*
X208680000Y-107000625D01*
%TO.N,Net-(D54-A)*%
X215665000Y-109223125D02*
X217887500Y-107000625D01*
X217887500Y-107000625D02*
X227730000Y-107000625D01*
%TO.N,Net-(D55-A)*%
X234715000Y-109223125D02*
X236937500Y-107000625D01*
X236937500Y-107000625D02*
X246780000Y-107000625D01*
%TO.N,Net-(D56-A)*%
X253765000Y-109223125D02*
X255987500Y-107000625D01*
X255987500Y-107000625D02*
X272973750Y-107000625D01*
%TO.N,Net-(D57-A)*%
X289325000Y-107000625D02*
X299167500Y-107000625D01*
X287102500Y-109223125D02*
X289325000Y-107000625D01*
%TO.N,Net-(D58-A)*%
X308375000Y-107000625D02*
X318217500Y-107000625D01*
X306152500Y-109223125D02*
X308375000Y-107000625D01*
%TO.N,Net-(D59-A)*%
X22625000Y-126050625D02*
X34848750Y-126050625D01*
X20402500Y-128273125D02*
X22625000Y-126050625D01*
%TO.N,Net-(D60-A)*%
X46437500Y-126050625D02*
X58661250Y-126050625D01*
X44215000Y-128273125D02*
X46437500Y-126050625D01*
%TO.N,Net-(D61-A)*%
X68027500Y-128273125D02*
X70250000Y-126050625D01*
X70250000Y-126050625D02*
X82473750Y-126050625D01*
%TO.N,Net-(D62-A)*%
X91840000Y-128273125D02*
X107656015Y-128273125D01*
X107656015Y-128273125D02*
X109878515Y-126050625D01*
X109878515Y-126050625D02*
X115811250Y-126050625D01*
%TO.N,Net-(D63-A)*%
X136925000Y-126050625D02*
X153911250Y-126050625D01*
X134702500Y-128273125D02*
X136925000Y-126050625D01*
%TO.N,Net-(D64-A)*%
X183856015Y-128273125D02*
X186078515Y-126050625D01*
X168040000Y-128273125D02*
X183856015Y-128273125D01*
X186078515Y-126050625D02*
X192011250Y-126050625D01*
%TO.N,Net-(D65-A)*%
X213125000Y-126050625D02*
X222967500Y-126050625D01*
X210902500Y-128273125D02*
X213125000Y-126050625D01*
%TO.N,Net-(D66-A)*%
X268052500Y-128273125D02*
X270275000Y-126050625D01*
X270275000Y-126050625D02*
X280117500Y-126050625D01*
%TO.N,Net-(D67-A)*%
X287102500Y-128273125D02*
X289325000Y-126050625D01*
X289325000Y-126050625D02*
X299167500Y-126050625D01*
%TO.N,Net-(D68-A)*%
X306152500Y-128273125D02*
X308375000Y-126050625D01*
X308375000Y-126050625D02*
X318217500Y-126050625D01*
%TO.N,Net-(A1-GPIO0)*%
X256065000Y-128618125D02*
X254664000Y-127217125D01*
X41833750Y-41510000D02*
X44053125Y-39290625D01*
X254664000Y-127217125D02*
X239819125Y-127217125D01*
X41833750Y-46596250D02*
X41833750Y-41510000D01*
X239819125Y-127217125D02*
X237096250Y-129940000D01*
%TD*%
M02*
